<svg version="1.1" xmlns="http://www.w3.org/2000/svg" xmlns:xlink="http://www.w3.org/1999/xlink" stroke-linecap="round" stroke-linejoin="round" stroke-width="0" fill-rule="evenodd" width="19.1mm" height="28.486802mm" viewBox="-9550 -15319.173 19100 28486.802" id="gHmqV9e8ak-HwBc_cn8w"><g transform="translate(0,-2151.5440000000017) scale(1,-1)" fill="currentColor" stroke="currentColor"><path d="M -9000 -13300 -9000 -11800 M -8500 -14300 A 500 500 0 0 0 -9500 -14300 500 500 0 0 0 -8500 -14300 M 9500 12500 A 500 500 0 0 0 8500 12500 500 500 0 0 0 9500 12500" fill="none" stroke-width="100"/><path d="M -5440.229 -12929.888 -6040.229 -12929.888 -6040.229 -13158.459 -6011.658 -13215.602 -5983.086 -13244.173 -5925.943 -13272.745 -5840.229 -13272.745 -5783.086 -13244.173 -5754.515 -13215.602 -5725.943 -13158.459 -5725.943 -12929.888 M -6040.229 -13472.745 -5440.229 -13615.602 -5868.8 -13729.888 -5440.229 -13844.173 -6040.229 -13987.031 M -5440.229 -14215.602 -6040.229 -14215.602 -6040.229 -14358.459 -6011.658 -14444.173 -5954.515 -14501.316 -5897.372 -14529.887 -5783.086 -14558.459 -5697.372 -14558.459 -5583.086 -14529.887 -5525.943 -14501.316 -5468.8 -14444.173 -5440.229 -14358.459 -5440.229 -14215.602 M -5440.229 -14815.602 -6040.229 -14815.602 -5440.229 -15158.459 -6040.229 -15158.459 M -4227.372 -14101.316 -4198.8 -14072.744 -4170.229 -13987.03 -4170.229 -13929.887 -4198.8 -13844.173 -4255.943 -13787.03 -4313.086 -13758.459 -4427.372 -13729.887 -4513.086 -13729.887 -4627.372 -13758.459 -4684.515 -13787.03 -4741.658 -13844.173 -4770.229 -13929.887 -4770.229 -13987.03 -4741.658 -14072.744 -4713.086 -14101.316 M -4170.229 -14644.173 -4170.229 -14358.459 -4770.229 -14358.459 M -4170.229 -14844.173 -4770.229 -14844.173 M -4170.229 -15187.03 -4513.086 -14929.887 M -4770.229 -15187.03 -4427.372 -14844.173 M -2900.229 -14101.315 -3185.943 -13901.315 M -2900.229 -13758.458 -3500.229 -13758.458 -3500.229 -13987.029 -3471.658 -14044.172 -3443.086 -14072.743 -3385.943 -14101.315 -3300.229 -14101.315 -3243.086 -14072.743 -3214.515 -14044.172 -3185.943 -13987.029 -3185.943 -13758.458 M -3071.658 -14329.886 -3071.658 -14615.601 M -2900.229 -14272.743 -3500.229 -14472.743 -2900.229 -14672.743 M -3500.229 -14815.601 -3500.229 -15215.601 -2900.229 -14815.601 -2900.229 -15215.601 M -1658.8 -12815.6 -1630.229 -12901.315 -1630.229 -13044.172 -1658.8 -13101.315 -1687.372 -13129.886 -1744.515 -13158.457 -1801.658 -13158.457 -1858.8 -13129.886 -1887.372 -13101.315 -1915.943 -13044.172 -1944.515 -12929.886 -1973.086 -12872.743 -2001.658 -12844.172 -2058.8 -12815.6 -2115.943 -12815.6 -2173.086 -12844.172 -2201.658 -12872.743 -2230.229 -12929.886 -2230.229 -13072.743 -2201.658 -13158.457 M -2230.229 -13329.886 -2230.229 -13672.744 M -1630.229 -13501.315 -2230.229 -13501.315 M -1801.658 -13844.172 -1801.658 -14129.887 M -1630.229 -13787.029 -2230.229 -13987.029 -1630.229 -14187.029 M -1630.229 -14729.887 -1915.943 -14529.887 M -1630.229 -14387.03 -2230.229 -14387.03 -2230.229 -14615.601 -2201.658 -14672.744 -2173.086 -14701.315 -2115.943 -14729.887 -2030.229 -14729.887 -1973.086 -14701.315 -1944.515 -14672.744 -1915.943 -14615.601 -1915.943 -14387.03 M -2230.229 -14901.315 -2230.229 -15244.173 M -1630.229 -15072.744 -2230.229 -15072.744 M -388.8 -13158.458 -360.229 -13244.173 -360.229 -13387.03 -388.8 -13444.173 -417.372 -13472.744 -474.515 -13501.315 -531.658 -13501.315 -588.8 -13472.744 -617.372 -13444.173 -645.943 -13387.03 -674.515 -13272.744 -703.086 -13215.601 -731.658 -13187.03 -788.8 -13158.458 -845.943 -13158.458 -903.086 -13187.03 -931.658 -13215.601 -960.229 -13272.744 -960.229 -13415.601 -931.658 -13501.315 M -417.372 -14101.316 -388.8 -14072.744 -360.229 -13987.03 -360.229 -13929.887 -388.8 -13844.173 -445.943 -13787.03 -503.086 -13758.459 -617.372 -13729.887 -703.086 -13729.887 -817.372 -13758.459 -874.515 -13787.03 -931.658 -13844.173 -960.229 -13929.887 -960.229 -13987.03 -931.658 -14072.744 -903.086 -14101.316 M -360.229 -14644.173 -360.229 -14358.459 -960.229 -14358.459 M -360.229 -14844.173 -960.229 -14844.173 M -360.229 -15187.03 -703.086 -14929.887 M -960.229 -15187.03 -617.372 -14844.173 M 909.771 -14558.459 309.771 -14558.459 309.771 -14701.316 338.342 -14787.03 395.485 -14844.173 452.628 -14872.744 566.914 -14901.316 652.628 -14901.316 766.914 -14872.744 824.057 -14844.173 881.2 -14787.03 909.771 -14701.316 909.771 -14558.459 M 909.771 -15158.459 309.771 -15158.459 M 2179.771 -14215.602 1579.771 -14215.602 1579.771 -14358.459 1608.342 -14444.173 1665.485 -14501.316 1722.628 -14529.887 1836.914 -14558.459 1922.628 -14558.459 2036.914 -14529.887 2094.057 -14501.316 2151.2 -14444.173 2179.771 -14358.459 2179.771 -14215.602 M 1579.771 -14929.887 1579.771 -15044.173 1608.342 -15101.316 1665.485 -15158.459 1779.771 -15187.03 1979.771 -15187.03 2094.057 -15158.459 2151.2 -15101.316 2179.771 -15044.173 2179.771 -14929.887 2151.2 -14872.745 2094.057 -14815.602 1979.771 -14787.03 1779.771 -14787.03 1665.485 -14815.602 1608.342 -14872.745 1579.771 -14929.887" fill="none" stroke-width="150"/><path d="M 6690.264 12891.968 6690.264 12983.412 6388.014 12976.378 6112.325 12983.412 5999.576 12652.146 5813.038 12157.542 5662.521 11777.268 5404.326 12444.747 5306.506 12712.816 5218.854 12983.412 4936.021 12976.378 4661.431 12983.412 4661.431 12891.968 4707.501 12882.186 4825.691 12851.673 4860.733 12833.056 4876.517 12803.666 4887.386 12741.722 4892.973 12185.691 4891.965 11540.633 4886.415 11452.966 4880.15 11421.711 4858.168 11389.838 4812.034 11369.208 4707.501 11344.445 4661.431 11333.014 4661.431 11238.932 5039.518 11245.966 5436.108 11238.932 5436.108 11330.377 5254.208 11376.429 5223.983 11404.126 5210.153 11450.837 5206.489 11702.859 5204.474 12457.496 5205.482 12618.513 5617.458 11527.114 5720.956 11253 5799.816 11253 6321.427 12627.086 6323.442 12354.182 6320.46 11791.691 6314.191 11543.051 6303.933 11416.436 6293.175 11395.805 6273.25 11378.297 6238.245 11364.714 6133.94 11340.159 6091.9 11330.377 6091.9 11238.932 6372.626 11245.966 6683.12 11238.932 6683.12 11330.377 6521.279 11370.933 6495.855 11387.494 6478.231 11411.49 6468.301 11446.23 6463.851 11517.113 6451.486 12298.567 6448.464 12603.236 6452.761 12743.745 6461.745 12804.7 6473.685 12830.538 6493.069 12848.993 6528.621 12861.742 6642.087 12883.395 6690.264 12891.968"/><path d="M 4621.314 12889.33 4578.266 12877.899 4457.175 12846.17 4422.561 12828.99 4406.433 12804.919 4396.916 12766.671 4391.863 12655.513 4388.764 12211.409 4393.893 11469.192 4403.22 11426.074 4421.096 11396.982 4458.247 11376.494 4578.266 11344.445 4621.314 11334.883 4621.314 11245.966 4249.362 11253 4061.875 11245.966 3871.274 11238.932 3745.367 11246.447 3633.656 11267.934 3534.413 11302.143 3446.109 11348.292 3345.658 11420.827 3258.584 11504.981 3183.696 11601.121 3120.228 11710.113 3070.156 11828.357 3034.092 11954.954 3012.018 12091.265 3008.167 12166.457 3354.884 12166.457 3362.104 11998.848 3382.366 11856.376 3413.98 11735.483 3455.858 11633.066 3507.566 11546.568 3571.984 11475.875 3650.549 11424.163 3746.231 11391.366 3863.123 11379.616 3951.732 11385.147 4071.126 11404.236 4081.384 12109.853 4078.169 12589.223 4071.126 12821.626 3936.669 12837.922 3833.447 12842.728 3716.192 12831.967 3622.833 12802.38 3548.677 12756.647 3490.164 12695.45 3434.17 12601.596 3392.007 12485.484 3364.744 12342.39 3354.884 12166.457 3008.167 12166.457 3004.457 12238.887 3010.711 12374.144 3028.351 12490.15 3056.071 12589.65 3093.117 12675.007 3159.591 12777.501 3240.459 12860.16 3337.482 12924.391 3414.319 12955.106 3514.319 12975.748 3642.755 12983.412 3897.927 12977.037 4226.831 12969.344 4621.314 12983.412 4621.314 12889.33"/><path d="M 2904.897 12891.968 2904.897 12983.412 2496.035 12969.344 2097.43 12983.412 2097.43 12891.968 2287.013 12854.75 2326.866 12842.948 2342.258 12825.134 2353.174 12792.201 2357.64 12736.226 2360.755 12421.006 2360.755 11400.719 1987.796 11400.719 1903.21 11405.382 1864.789 11415.337 1824.904 11443.07 1783.822 11489.745 1739.321 11562.067 1646.527 11738.36 1554.295 11738.36 1620.852 11504.739 1688.568 11238.932 2413.053 11253 2651.871 11249.554 2904.897 11238.932 2904.897 11330.377 2741.487 11373.346 2704.038 11389.288 2689.838 11410.343 2681.048 11448.969 2676.377 12038.082 2677.385 12485.303 2677.385 12563.888 2681.342 12741.718 2688.651 12799.864 2700.108 12825.277 2716.861 12840.97 2753.961 12853.98 2904.897 12891.968"/><path d="M 1156.973 11653.95 1108.002 11646.599 1064.978 11625.079 1026.364 11588.663 996.279 11541.989 978.546 11490.477 972.509 11432.372 978.626 11373.524 996.532 11321.821 1026.822 11275.422 1065.716 11239.314 1108.614 11218.037 1156.973 11210.795 1205.984 11218.081 1249.043 11239.397 1287.674 11275.422 1317.634 11321.774 1335.373 11373.48 1341.438 11432.372 1335.409 11490.484 1317.704 11541.997 1287.674 11588.663 1249.004 11625.083 1205.947 11646.601 1156.973 11653.95"/><path d="M 786.945 12891.968 608.617 12846.465 588.682 12833.255 576.835 12818.219 565.207 12778.032 558.426 12691.603 553.388 12224.599 555.403 11648.234 559.069 11487.869 564.562 11433.142 582.056 11396.212 615.853 11374.121 786.945 11329.827 786.945 11238.932 447.783 11260.035 290.98 11251.242 143.426 11245.966 -1.038 11254.693 -118.011 11278.623 -212.039 11314.989 -299.06 11369.331 -367.342 11434.585 -419.584 11510.958 -458.262 11598.544 -481.089 11689.237 -486.489 11756.605 -157.817 11756.605 -148.584 11633.166 -123.936 11542.628 -86.559 11476.996 -34.363 11428.717 34.45 11397.926 125.017 11386.65 183.565 11390.144 251.046 11401.378 251.046 12097.104 198.747 12097.104 69.193 12086.889 -18.992 12060.81 -76.85 12023.904 -109.784 11983.92 -134.898 11928.974 -151.589 11855.011 -157.817 11756.605 -486.489 11756.605 -488.735 11784.632 -483.512 11862.858 -468.489 11931.742 -444.13 11992.91 -410.501 12047.127 -369.306 12091.049 -319.658 12125.46 -232.584 12159.822 -108.632 12181.514 -204.634 12225.331 -276.152 12273.24 -327.901 12324.396 -381.304 12406.755 -413.179 12500.411 -418.958 12557.514 -119.898 12557.514 -110.49 12451.231 -84.706 12370.038 -44.061 12308.02 11.06 12264.281 89.711 12234.889 199.846 12223.719 251.046 12223.719 251.046 12842.728 127.032 12849.763 48.793 12840.438 -11.1 12814.959 -56.883 12775.134 -90.581 12720.822 -112.055 12649.948 -119.898 12557.514 -418.958 12557.514 -424.163 12608.951 -415.748 12703.488 -391.812 12782.473 -352.799 12849.262 -297.127 12905.816 -229.163 12945.094 -128.363 12972.691 16.39 12983.412 148.647 12978.686 366.817 12969.344 786.945 12983.412 786.945 12891.968"/><path d="M -2005.117 11575.914 -2057.415 11458.751 -1936.395 11371.163 -1827.753 11306.502 -1730.069 11261.683 -1629.01 11229.643 -1524.521 11210.289 -1416.003 11203.761 -1276.177 11214.315 -1154.172 11244.381 -1047.387 11292.282 -953.648 11357.349 -871.311 11439.956 -801.473 11538.43 -746.803 11649.252 -706.803 11774.174 -681.834 11915.548 -673.108 12076.221 -682.771 12245.662 -710.559 12396.12 -755.369 12530.479 -817.068 12651.087 -896.499 12759.637 -988.861 12849.75 -1094.596 12921.043 -1215.658 12973.734 -1354.581 13006.911 -1514.372 13018.583 -1639.076 13012.537 -1757.729 12994.733 -1881.303 12962.974 -2048.256 12906.036 -2042.12 12740.733 -2045.598 12584.49 -2057.415 12378.472 -1944.758 12378.472 -1895.952 12592.164 -1877.164 12656.652 -1847.385 12713.859 -1806.412 12766.047 -1752.6 12813.602 -1692.48 12847.537 -1615.791 12869.756 -1518.494 12877.899 -1407.65 12866.497 -1315.119 12834.374 -1237.432 12783.199 -1172.096 12712.596 -1110.046 12609.047 -1064.125 12485.734 -1034.944 12338.799 -1024.543 12163.379 -1031.428 12014.499 -1050.78 11887.836 -1081.072 11780.157 -1121.403 11688.685 -1171.547 11611.195 -1249.983 11529.565 -1340.41 11470.952 -1445.183 11434.587 -1567.586 11421.821 -1675.828 11431.085 -1784.186 11459.132 -1893.649 11506.877 -2005.117 11575.914"/><path d="M -2966.365 12983.412 -2966.365 12891.968 -2928.446 12891.968 -2806.387 12865.496 -2764.956 12842.618 -2745.903 12804.217 -2737.845 12727.873 -2737.845 12683.47 -2735.83 12270.321 -2736.838 11797.821 -2737.845 11557.339 -2740.767 11460.914 -2746.547 11424.129 -2758.449 11400.395 -2776.772 11383.463 -2823.754 11363.205 -2928.446 11337.741 -2966.365 11330.377 -2966.365 11238.932 -2596.429 11253 -2194.802 11238.932 -2194.802 11330.377 -2370.016 11373.461 -2391.117 11387.377 -2405.828 11405.555 -2416.534 11441.58 -2422.223 11521.289 -2424.329 12217.235 -2421.215 12665.664 -2421.215 12702.594 -2413.774 12791.091 -2397.585 12829.429 -2359.485 12852.49 -2238.857 12884.934 -2194.802 12891.968 -2194.802 12983.412 -2589.285 12969.344 -2966.365 12983.412"/><path d="M -3062.719 11682.086 -3037.073 11717.257 -3073.844 11850.475 -3100.638 11977.522 -3324.028 11970.488 -3639.651 11977.522 -3663.19 11939.824 -3626.682 11813.533 -3596.603 11682.086 -3257.35 11689.121 -3062.719 11682.086"/><path d="M -3759.544 12329.232 -3759.544 12420.677 -4044.392 12413.643 -4325.21 12420.677 -4325.21 12336.266 -4249.255 12311.003 -4227.849 12298.897 -4215.514 12278.844 -4211.454 12255.153 -4219.697 12201.078 -4371.281 11696.704 -4520.94 12203.716 -4528.084 12250.207 -4524.831 12269.55 -4514.712 12287.247 -4495.241 12302.905 -4442.996 12329.232 -4442.996 12420.677 -4630.575 12413.643 -4804.781 12420.677 -4804.781 12329.232 -4720.46 12285.352 -4680.309 12243.063 -4641.294 12145.64 -4506.561 11732.864 -4333.362 11210.795 -4248.365 11210.795 -4031.111 11849.588 -3904.074 12213.168 -3883.474 12249.676 -3865.606 12271.2 -3837.83 12289.961 -3759.544 12329.232"/><path d="M -5072.135 12575.429 -4974.774 12575.429 -5002.15 12694.619 -5033.209 12879.878 -5118.778 12938.521 -5202.744 12978.906 -5289.126 13003.425 -5376.401 13011.549 -5482.081 12999.364 -5563.783 12965.987 -5626.902 12913.84 -5675.389 12842.973 -5704.461 12760.466 -5714.555 12662.697 -5703.881 12561.388 -5672.515 12471.675 -5618.532 12389.066 -5519.924 12286.807 -5601.212 12248.991 -5667.398 12195.91 -5720.783 12127.109 -5760.106 12045.544 -5784.149 11953.096 -5792.499 11847.06 -5784.732 11742.07 -5761.61 11642.347 -5722.663 11546.33 -5666.47 11452.816 -5593.359 11366.674 -5510.858 11299.95 -5417.662 11251.48 -5311.854 11221.33 -5191.021 11210.795 -5098.176 11217.377 -5002.412 11237.506 -4903.058 11272.015 -4932.276 11437.868 -4952.243 11653.95 -5042.368 11653.95 -5062.092 11545.799 -5089.643 11469.021 -5123.335 11416.216 -5167.354 11376.443 -5217.297 11352.648 -5275.01 11344.445 -5335.524 11355.062 -5389.133 11386.591 -5437.95 11441.385 -5473.038 11510.521 -5496.024 11602.368 -5504.537 11723.522 -5497.52 11828.963 -5478.129 11913.63 -5447.934 11981.595 -5407.176 12035.884 -5356.342 12074.03 -5285.368 12100.165 -5187.906 12111.172 -5191.021 12216.685 -5280.165 12254.923 -5346.06 12300.417 -5393.345 12352.203 -5429.219 12415.383 -5450.276 12482.639 -5457.367 12555.755 -5451.623 12617.785 -5435.3 12669.21 -5408.641 12712.376 -5373.543 12745.558 -5332.978 12765.478 -5285.268 12772.386 -5218.245 12760.705 -5160.704 12726.444 -5113.757 12669.266 -5072.135 12575.429"/><path d="M -6269.963 11653.95 -6318.934 11646.599 -6361.959 11625.079 -6400.572 11588.663 -6430.658 11541.989 -6448.391 11490.477 -6454.428 11432.372 -6448.31 11373.524 -6430.404 11321.821 -6400.114 11275.422 -6361.221 11239.314 -6318.323 11218.037 -6269.963 11210.795 -6220.953 11218.081 -6177.894 11239.397 -6139.263 11275.422 -6109.302 11321.774 -6091.564 11373.48 -6085.499 11432.372 -6091.527 11490.484 -6109.232 11541.997 -6139.263 11588.663 -6177.933 11625.083 -6220.989 11646.601 -6269.963 11653.95"/><path d="M -6819.327 12709.079 -6819.327 12793.489 -7107.747 12914.939 -7290.654 13011.549 -7343.96 12969.674 -7323.902 12603.016 -7317.307 12128.098 -7321.429 11469.742 -7329.699 11408.971 -7343.869 11379.286 -7375.224 11360.732 -7474.111 11334.443 -7519.174 11323.342 -7519.174 11238.932 -7181.02 11253 -6839.751 11238.932 -6839.751 11323.342 -6969.303 11354.409 -7009.928 11374.78 -7023.398 11395.819 -7032.459 11436.109 -7040.518 11595.745 -7044.732 12045.007 -7042.626 12563.229 -7034.966 12664.759 -7022.659 12702.374 -7000.999 12721.683 -6967.887 12728.752 -6819.327 12709.079"/><path d="M 7699.999 12517.629 7899.999 12803.343 M 8042.856 12517.629 8042.856 13117.629 7814.285 13117.629 7757.142 13089.058 7728.571 13060.486 7699.999 13003.343 7699.999 12917.629 7728.571 12860.486 7757.142 12831.915 7814.285 12803.343 8042.856 12803.343 M 7185.714 13117.629 7299.999 13117.629 7357.142 13089.058 7385.714 13060.486 7442.856 12974.772 7471.428 12860.486 7471.428 12631.915 7442.856 12574.772 7414.285 12546.2 7357.142 12517.629 7242.856 12517.629 7185.714 12546.2 7157.142 12574.772 7128.571 12631.915 7128.571 12774.772 7157.142 12831.915 7185.714 12860.486 7242.856 12889.058 7357.142 12889.058 7414.285 12860.486 7442.856 12831.915 7471.428 12774.772 M 8485.714 -5915.228 8514.286 -5943.8 8600 -5972.371 8657.143 -5972.371 8742.857 -5943.8 8800 -5886.657 8828.571 -5829.514 8857.143 -5715.228 8857.143 -5629.514 8828.571 -5515.228 8800 -5458.085 8742.857 -5400.942 8657.143 -5372.371 8600 -5372.371 8514.286 -5400.942 8485.714 -5429.514 M 7914.286 -5972.371 8257.143 -5972.371 M 8085.714 -5972.371 8085.714 -5372.371 8142.857 -5458.085 8200 -5515.228 8257.143 -5543.8 M 7542.857 -5372.371 7485.714 -5372.371 7428.571 -5400.942 7400 -5429.514 7371.428 -5486.657 7342.857 -5600.942 7342.857 -5743.8 7371.428 -5858.085 7400 -5915.228 7428.571 -5943.8 7485.714 -5972.371 7542.857 -5972.371 7600 -5943.8 7628.571 -5915.228 7657.142 -5858.085 7685.714 -5743.8 7685.714 -5600.942 7657.142 -5486.657 7628.571 -5429.514 7600 -5400.942 7542.857 -5372.371 M 4248.496 -7315.228 4277.068 -7343.8 4362.782 -7372.371 4419.925 -7372.371 4505.639 -7343.8 4562.782 -7286.657 4591.353 -7229.514 4619.925 -7115.228 4619.925 -7029.514 4591.353 -6915.228 4562.782 -6858.085 4505.639 -6800.942 4419.925 -6772.371 4362.782 -6772.371 4277.068 -6800.942 4248.496 -6829.514 M 4048.496 -6772.371 3677.068 -6772.371 3877.068 -7000.942 3791.353 -7000.942 3734.211 -7029.514 3705.639 -7058.085 3677.068 -7115.228 3677.068 -7258.085 3705.639 -7315.228 3734.211 -7343.8 3791.353 -7372.371 3962.782 -7372.371 4019.925 -7343.8 4048.496 -7315.228 M 8199.999 -3015.228 8228.571 -3043.8 8314.285 -3072.371 8371.428 -3072.371 8457.142 -3043.8 8514.285 -2986.657 8542.856 -2929.514 8571.428 -2815.228 8571.428 -2729.514 8542.856 -2615.228 8514.285 -2558.085 8457.142 -2500.942 8371.428 -2472.371 8314.285 -2472.371 8228.571 -2500.942 8199.999 -2529.514 M 7999.999 -2472.371 7599.999 -2472.371 7857.142 -3072.371 M -227.629 -11100 -513.343 -10900 M -227.629 -10757.143 -827.629 -10757.143 -827.629 -10985.714 -799.058 -11042.857 -770.486 -11071.428 -713.343 -11100 -627.629 -11100 -570.486 -11071.428 -541.915 -11042.857 -513.343 -10985.714 -513.343 -10757.143 M -770.486 -11328.571 -799.058 -11357.143 -827.629 -11414.286 -827.629 -11557.143 -799.058 -11614.286 -770.486 -11642.857 -713.343 -11671.428 -656.2 -11671.428 -570.486 -11642.857 -227.629 -11300 -227.629 -11671.428 M -3714.286 -1015.228 -3685.714 -1043.8 -3600 -1072.371 -3542.857 -1072.371 -3457.143 -1043.8 -3400 -986.657 -3371.429 -929.514 -3342.857 -815.228 -3342.857 -729.514 -3371.429 -615.228 -3400 -558.085 -3457.143 -500.942 -3542.857 -472.371 -3600 -472.371 -3685.714 -500.942 -3714.286 -529.514 M -4285.714 -1072.371 -3942.857 -1072.371 M -4114.286 -1072.371 -4114.286 -472.371 -4057.143 -558.085 -4000 -615.228 -3942.857 -643.8 M -4514.286 -529.514 -4542.858 -500.942 -4600 -472.371 -4742.858 -472.371 -4800 -500.942 -4828.572 -529.514 -4857.143 -586.657 -4857.143 -643.8 -4828.572 -729.514 -4485.715 -1072.371 -4857.143 -1072.371 M 4248.496 -72.371 4448.496 213.343 M 4591.353 -72.371 4591.353 527.629 4362.782 527.629 4305.639 499.058 4277.068 470.486 4248.496 413.343 4248.496 327.629 4277.068 270.486 4305.639 241.915 4362.782 213.343 4591.353 213.343 M 3677.068 -72.371 4019.925 -72.371 M 3848.496 -72.371 3848.496 527.629 3905.639 441.915 3962.782 384.772 4019.925 356.2 M 3391.353 -72.371 3277.067 -72.371 3219.924 -43.8 3191.353 -15.228 3134.21 70.486 3105.639 184.772 3105.639 413.343 3134.21 470.486 3162.782 499.058 3219.924 527.629 3334.21 527.629 3391.353 499.058 3419.924 470.486 3448.496 413.343 3448.496 270.486 3419.924 213.343 3391.353 184.772 3334.21 156.2 3219.924 156.2 3162.782 184.772 3134.21 213.343 3105.639 270.486 M -3900.001 -9672.371 -3700.001 -9386.657 M -3557.144 -9672.371 -3557.144 -9072.371 -3785.715 -9072.371 -3842.858 -9100.942 -3871.429 -9129.514 -3900.001 -9186.657 -3900.001 -9272.371 -3871.429 -9329.514 -3842.858 -9358.085 -3785.715 -9386.657 -3557.144 -9386.657 M -4471.429 -9672.371 -4128.572 -9672.371 M -4300.001 -9672.371 -4300.001 -9072.371 -4242.858 -9158.085 -4185.715 -9215.228 -4128.572 -9243.8 M -3714.286 -3015.228 -3685.714 -3043.8 -3600 -3072.371 -3542.857 -3072.371 -3457.143 -3043.8 -3400 -2986.657 -3371.429 -2929.514 -3342.857 -2815.228 -3342.857 -2729.514 -3371.429 -2615.228 -3400 -2558.085 -3457.143 -2500.942 -3542.857 -2472.371 -3600 -2472.371 -3685.714 -2500.942 -3714.286 -2529.514 M -3914.286 -2472.371 -4285.714 -2472.371 -4085.714 -2700.942 -4171.429 -2700.942 -4228.571 -2729.514 -4257.143 -2758.085 -4285.714 -2815.228 -4285.714 -2958.085 -4257.143 -3015.228 -4228.571 -3043.8 -4171.429 -3072.371 -4000 -3072.371 -3942.857 -3043.8 -3914.286 -3015.228 M -4657.143 -2472.371 -4714.286 -2472.371 -4771.429 -2500.942 -4800 -2529.514 -4828.572 -2586.657 -4857.143 -2700.942 -4857.143 -2843.8 -4828.572 -2958.085 -4800 -3015.228 -4771.429 -3043.8 -4714.286 -3072.371 -4657.143 -3072.371 -4600 -3043.8 -4571.429 -3015.228 -4542.858 -2958.085 -4514.286 -2843.8 -4514.286 -2700.942 -4542.858 -2586.657 -4571.429 -2529.514 -4600 -2500.942 -4657.143 -2472.371 M -8000.001 -115.228 -7971.429 -143.8 -7885.715 -172.371 -7828.572 -172.371 -7742.858 -143.8 -7685.715 -86.657 -7657.144 -29.514 -7628.572 84.772 -7628.572 170.486 -7657.144 284.772 -7685.715 341.915 -7742.858 399.058 -7828.572 427.629 -7885.715 427.629 -7971.429 399.058 -8000.001 370.486 M -8342.858 170.486 -8285.715 199.058 -8257.144 227.629 -8228.572 284.772 -8228.572 313.343 -8257.144 370.486 -8285.715 399.058 -8342.858 427.629 -8457.144 427.629 -8514.286 399.058 -8542.858 370.486 -8571.429 313.343 -8571.429 284.772 -8542.858 227.629 -8514.286 199.058 -8457.144 170.486 -8342.858 170.486 -8285.715 141.915 -8257.144 113.343 -8228.572 56.2 -8228.572 -58.085 -8257.144 -115.228 -8285.715 -143.8 -8342.858 -172.371 -8457.144 -172.371 -8514.286 -143.8 -8542.858 -115.228 -8571.429 -58.085 -8571.429 56.2 -8542.858 113.343 -8514.286 141.915 -8457.144 170.486 M 4248.496 -2915.228 4277.068 -2943.8 4362.782 -2972.371 4419.925 -2972.371 4505.639 -2943.8 4562.782 -2886.657 4591.353 -2829.514 4619.925 -2715.228 4619.925 -2629.514 4591.353 -2515.228 4562.782 -2458.085 4505.639 -2400.942 4419.925 -2372.371 4362.782 -2372.371 4277.068 -2400.942 4248.496 -2429.514 M 3677.068 -2972.371 4019.925 -2972.371 M 3848.496 -2972.371 3848.496 -2372.371 3905.639 -2458.085 3962.782 -2515.228 4019.925 -2543.8 M 3477.067 -2372.371 3105.639 -2372.371 3305.639 -2600.942 3219.924 -2600.942 3162.782 -2629.514 3134.21 -2658.085 3105.639 -2715.228 3105.639 -2858.085 3134.21 -2915.228 3162.782 -2943.8 3219.924 -2972.371 3391.353 -2972.371 3448.496 -2943.8 3477.067 -2915.228 M 4248.496 -1915.228 4277.068 -1943.8 4362.782 -1972.371 4419.925 -1972.371 4505.639 -1943.8 4562.782 -1886.657 4591.353 -1829.514 4619.925 -1715.228 4619.925 -1629.514 4591.353 -1515.228 4562.782 -1458.085 4505.639 -1400.942 4419.925 -1372.371 4362.782 -1372.371 4277.068 -1400.942 4248.496 -1429.514 M 3677.068 -1972.371 4019.925 -1972.371 M 3848.496 -1972.371 3848.496 -1372.371 3905.639 -1458.085 3962.782 -1515.228 4019.925 -1543.8 M 3162.782 -1572.371 3162.782 -1972.371 M 3305.639 -1343.8 3448.496 -1772.371 3077.067 -1772.371 M 4248.496 -6315.228 4277.068 -6343.8 4362.782 -6372.371 4419.925 -6372.371 4505.639 -6343.8 4562.782 -6286.657 4591.353 -6229.514 4619.925 -6115.228 4619.925 -6029.514 4591.353 -5915.228 4562.782 -5858.085 4505.639 -5800.942 4419.925 -5772.371 4362.782 -5772.371 4277.068 -5800.942 4248.496 -5829.514 M 3734.211 -5972.371 3734.211 -6372.371 M 3877.068 -5743.8 4019.925 -6172.371 3648.496 -6172.371 M 4248.496 -3915.228 4277.068 -3943.8 4362.782 -3972.371 4419.925 -3972.371 4505.639 -3943.8 4562.782 -3886.657 4591.353 -3829.514 4619.925 -3715.228 4619.925 -3629.514 4591.353 -3515.228 4562.782 -3458.085 4505.639 -3400.942 4419.925 -3372.371 4362.782 -3372.371 4277.068 -3400.942 4248.496 -3429.514 M 4019.925 -3429.514 3991.353 -3400.942 3934.211 -3372.371 3791.353 -3372.371 3734.211 -3400.942 3705.639 -3429.514 3677.068 -3486.657 3677.068 -3543.8 3705.639 -3629.514 4048.496 -3972.371 3677.068 -3972.371 M 3391.353 -3972.371 3277.067 -3972.371 3219.924 -3943.8 3191.353 -3915.228 3134.21 -3829.514 3105.639 -3715.228 3105.639 -3486.657 3134.21 -3429.514 3162.782 -3400.942 3219.924 -3372.371 3334.21 -3372.371 3391.353 -3400.942 3419.924 -3429.514 3448.496 -3486.657 3448.496 -3629.514 3419.924 -3686.657 3391.353 -3715.228 3334.21 -3743.8 3219.924 -3743.8 3162.782 -3715.228 3134.21 -3686.657 3105.639 -3629.514 M -3614.286 -6272.371 -3414.286 -5986.657 M -3271.429 -6272.371 -3271.429 -5672.371 -3500 -5672.371 -3557.143 -5700.942 -3585.714 -5729.514 -3614.286 -5786.657 -3614.286 -5872.371 -3585.714 -5929.514 -3557.143 -5958.085 -3500 -5986.657 -3271.429 -5986.657 M -4185.714 -6272.371 -3842.857 -6272.371 M -4014.286 -6272.371 -4014.286 -5672.371 -3957.143 -5758.085 -3900 -5815.228 -3842.857 -5843.8 M -4700 -5672.371 -4585.715 -5672.371 -4528.572 -5700.942 -4500 -5729.514 -4442.858 -5815.228 -4414.286 -5929.514 -4414.286 -6158.085 -4442.858 -6215.228 -4471.429 -6243.8 -4528.572 -6272.371 -4642.858 -6272.371 -4700 -6243.8 -4728.572 -6215.228 -4757.143 -6158.085 -4757.143 -6015.228 -4728.572 -5958.085 -4700 -5929.514 -4642.858 -5900.942 -4528.572 -5900.942 -4471.429 -5929.514 -4442.858 -5958.085 -4414.286 -6015.228 M 4248.496 -4915.228 4277.068 -4943.8 4362.782 -4972.371 4419.925 -4972.371 4505.639 -4943.8 4562.782 -4886.657 4591.353 -4829.514 4619.925 -4715.228 4619.925 -4629.514 4591.353 -4515.228 4562.782 -4458.085 4505.639 -4400.942 4419.925 -4372.371 4362.782 -4372.371 4277.068 -4400.942 4248.496 -4429.514 M 4019.925 -4429.514 3991.353 -4400.942 3934.211 -4372.371 3791.353 -4372.371 3734.211 -4400.942 3705.639 -4429.514 3677.068 -4486.657 3677.068 -4543.8 3705.639 -4629.514 4048.496 -4972.371 3677.068 -4972.371 M 3334.21 -4629.514 3391.353 -4600.942 3419.924 -4572.371 3448.496 -4515.228 3448.496 -4486.657 3419.924 -4429.514 3391.353 -4400.942 3334.21 -4372.371 3219.924 -4372.371 3162.782 -4400.942 3134.21 -4429.514 3105.639 -4486.657 3105.639 -4515.228 3134.21 -4572.371 3162.782 -4600.942 3219.924 -4629.514 3334.21 -4629.514 3391.353 -4658.085 3419.924 -4686.657 3448.496 -4743.8 3448.496 -4858.085 3419.924 -4915.228 3391.353 -4943.8 3334.21 -4972.371 3219.924 -4972.371 3162.782 -4943.8 3134.21 -4915.228 3105.639 -4858.085 3105.639 -4743.8 3134.21 -4686.657 3162.782 -4658.085 3219.924 -4629.514 M -3714.286 -2015.228 -3685.714 -2043.8 -3600 -2072.371 -3542.857 -2072.371 -3457.143 -2043.8 -3400 -1986.657 -3371.429 -1929.514 -3342.857 -1815.228 -3342.857 -1729.514 -3371.429 -1615.228 -3400 -1558.085 -3457.143 -1500.942 -3542.857 -1472.371 -3600 -1472.371 -3685.714 -1500.942 -3714.286 -1529.514 M -4285.714 -2072.371 -3942.857 -2072.371 M -4114.286 -2072.371 -4114.286 -1472.371 -4057.143 -1558.085 -4000 -1615.228 -3942.857 -1643.8 M -4857.143 -2072.371 -4514.286 -2072.371 M -4685.715 -2072.371 -4685.715 -1472.371 -4628.572 -1558.085 -4571.429 -1615.228 -4514.286 -1643.8 M -1884.772 -3539.285 -1856.2 -3510.713 -1827.629 -3424.999 -1827.629 -3367.856 -1856.2 -3282.142 -1913.343 -3224.999 -1970.486 -3196.428 -2084.772 -3167.856 -2170.486 -3167.856 -2284.772 -3196.428 -2341.915 -3224.999 -2399.058 -3282.142 -2427.629 -3367.856 -2427.629 -3424.999 -2399.058 -3510.713 -2370.486 -3539.285 M -2370.486 -3767.856 -2399.058 -3796.428 -2427.629 -3853.571 -2427.629 -3996.428 -2399.058 -4053.571 -2370.486 -4082.142 -2313.343 -4110.713 -2256.2 -4110.713 -2170.486 -4082.142 -1827.629 -3739.285 -1827.629 -4110.713 M -2427.629 -4310.714 -2427.629 -4710.714 -1827.629 -4453.571 M -8000.001 -3015.228 -7971.429 -3043.8 -7885.715 -3072.371 -7828.572 -3072.371 -7742.858 -3043.8 -7685.715 -2986.657 -7657.144 -2929.514 -7628.572 -2815.228 -7628.572 -2729.514 -7657.144 -2615.228 -7685.715 -2558.085 -7742.858 -2500.942 -7828.572 -2472.371 -7885.715 -2472.371 -7971.429 -2500.942 -8000.001 -2529.514 M -8285.715 -3072.371 -8400.001 -3072.371 -8457.144 -3043.8 -8485.715 -3015.228 -8542.858 -2929.514 -8571.429 -2815.228 -8571.429 -2586.657 -8542.858 -2529.514 -8514.286 -2500.942 -8457.144 -2472.371 -8342.858 -2472.371 -8285.715 -2500.942 -8257.144 -2529.514 -8228.572 -2586.657 -8228.572 -2729.514 -8257.144 -2786.657 -8285.715 -2815.228 -8342.858 -2843.8 -8457.144 -2843.8 -8514.286 -2815.228 -8542.858 -2786.657 -8571.429 -2729.514" fill="none" stroke-width="100"/><path d="M 7220 11643.641 7220 11336.359 M 7980 11643.641 7980 11336.359 M -7660 5792.164 -7660 6007.836 M -6940 5792.164 -6940 6007.836 M 7992.164 -4340 8207.836 -4340 M 7992.164 -5060 8207.836 -5060 M 6740 3392.164 6740 3607.836 M 7460 3392.164 7460 3607.836 M 5592.164 -6740 5807.836 -6740 M 5592.164 -7460 5807.836 -7460 M 7992.164 -3340 8207.836 -3340 M 7992.164 -4060 8207.836 -4060 M 5965 -11059.42 5965 -11340.58 M 6985 -11059.42 6985 -11340.58 M 120 -11353.641 120 -11046.359 M 880 -11353.641 880 -11046.359 M 5540 5792.164 5540 6007.836 M 6260 5792.164 6260 6007.836 M 5890 9190 5890 8200 M 7710 8800 7710 9400 M 7710 8800 7710 8200 M 5890 9590 5560 9830 5560 9350 5890 9590" fill="none" stroke-width="120"/><path d="M 5890 9590 5560 9350 5560 9830 5890 9590"/><path d="M -6007.836 -440 -5792.164 -440 M -6007.836 -1160 -5792.164 -1160 M -910 9190 -910 8200 M 910 8800 910 9400 M 910 8800 910 8200 M -910 9590 -1240 9830 -1240 9350 -910 9590" fill="none" stroke-width="120"/><path d="M -910 9590 -1240 9350 -1240 9830 -910 9590"/><path d="M 5853.641 580 5546.359 580 M 5853.641 -180 5546.359 -180 M -3846.359 -10020 -4153.641 -10020 M -3846.359 -10780 -4153.641 -10780 M -6007.836 -2440 -5792.164 -2440 M -6007.836 -3160 -5792.164 -3160 M 2393.333 5792.164 2393.333 6007.836 M 3113.333 5792.164 3113.333 6007.836 M -7660 2107.836 -7660 1892.164 M -6940 2107.836 -6940 1892.164 M -7992.164 -440 -8207.836 -440 M -7992.164 -1160 -8207.836 -1160 M -7390.58 -12990 -7109.42 -12990 M -7390.58 -14010 -7109.42 -14010 M -753.333 5792.164 -753.333 6007.836 M -33.333 5792.164 -33.333 6007.836 M 3180 3607.836 3180 3392.164 M 3900 3607.836 3900 3392.164 M 2865 -11037.221 2865 -11362.779 M 3885 -11037.221 3885 -11362.779 M 4753.333 3607.836 4753.333 3392.164 M 5473.333 3607.836 5473.333 3392.164 M 7515 -11037.221 7515 -11362.779 M 8535 -11037.221 8535 -11362.779 M 3966.667 5792.164 3966.667 6007.836 M 4686.667 5792.164 4686.667 6007.836 M -8535 -11362.779 -8535 -11037.221 M -7515 -11362.779 -7515 -11037.221 M 5807.836 -2340 5592.164 -2340 M 5807.836 -3060 5592.164 -3060 M -3900 5792.164 -3900 6007.836 M -3180 5792.164 -3180 6007.836 M 5807.836 -1340 5592.164 -1340 M 5807.836 -2060 5592.164 -2060 M 5592.164 -5740 5807.836 -5740 M 5592.164 -6460 5807.836 -6460 M -6985 -11059.42 -6985 -11340.58 M -5965 -11059.42 -5965 -11340.58 M -5473.333 5792.164 -5473.333 6007.836 M -4753.333 5792.164 -4753.333 6007.836 M 5592.164 -3340 5807.836 -3340 M 5592.164 -4060 5807.836 -4060 M -3113.333 3607.836 -3113.333 3392.164 M -2393.333 3607.836 -2393.333 3392.164 M 4009.42 -12990 4290.58 -12990 M 4009.42 -14010 4290.58 -14010 M -7710 9190 -7710 8200 M -5890 8800 -5890 9400 M -5890 8800 -5890 8200 M -7710 9590 -8040 9830 -8040 9350 -7710 9590" fill="none" stroke-width="120"/><path d="M -7710 9590 -8040 9350 -8040 9830 -7710 9590"/><path d="M 820 5792.164 820 6007.836 M 1540 5792.164 1540 6007.836 M -4686.667 3607.836 -4686.667 3392.164 M -3966.667 3607.836 -3966.667 3392.164 M 33.333 3607.836 33.333 3392.164 M 753.333 3607.836 753.333 3392.164 M -8060 -5488.748 -8060 -6911.252 M -6240 -5488.748 -6240 -6911.252 M -1540 3607.836 -1540 3392.164 M -820 3607.836 -820 3392.164 M -6260 3607.836 -6260 3392.164 M -5540 3607.836 -5540 3392.164 M 7390.58 -12990 7109.42 -12990 M 7390.58 -14010 7109.42 -14010 M -4310 9190 -4310 8200 M -2490 8800 -2490 9400 M -2490 8800 -2490 8200 M -4310 9590 -4640 9830 -4640 9350 -4310 9590" fill="none" stroke-width="120"/><path d="M -4310 9590 -4640 9350 -4640 9830 -4310 9590"/><path d="M -3846.359 -6620 -4153.641 -6620 M -3846.359 -7380 -4153.641 -7380 M 1606.666 3607.836 1606.666 3392.164 M 2326.666 3607.836 2326.666 3392.164 M -2326.666 5792.164 -2326.666 6007.836 M -1606.666 5792.164 -1606.666 6007.836 M 5592.164 -4340 5807.836 -4340 M 5592.164 -5060 5807.836 -5060 M 4415 -11059.42 4415 -11340.58 M 5435 -11059.42 5435 -11340.58 M 2490 9190 2490 8200 M 4310 8800 4310 9400 M 4310 8800 4310 8200 M 2490 9590 2160 9830 2160 9350 2490 9590" fill="none" stroke-width="120"/><path d="M 2490 9590 2160 9350 2160 9830 2490 9590"/><path d="M -6007.836 -1440 -5792.164 -1440 M -6007.836 -2160 -5792.164 -2160 M -3460 -4032.836 -3460 -3817.164 M -2740 -4032.836 -2740 -3817.164 M -7992.164 -1440 -8207.836 -1440 M -7992.164 -2160 -8207.836 -2160" fill="none" stroke-width="120"/></g></svg>