<svg version="1.1" xmlns="http://www.w3.org/2000/svg" xmlns:xlink="http://www.w3.org/1999/xlink" stroke-linecap="round" stroke-linejoin="round" stroke-width="0" fill-rule="evenodd" width="16.545mm" height="26.881mm" viewBox="-7875 -12280 16545 26881" id="_TAj1Jv3rRwX_F6zAMBk"><defs><g id="_TAj1Jv3rRwX_F6zAMBk_pad-11"><polygon points="185,-135 185,135 -185,135 -185,-135"/><circle cx="185" cy="-135" r="135"/><circle cx="185" cy="135" r="135"/><circle cx="-185" cy="135" r="135"/><circle cx="-185" cy="-135" r="135"/><polygon points="320,-135 320,135 50,135 50,-135"/><polygon points="185,0 -185,0 -185,270 185,270"/><polygon points="-50,135 -50,-135 -320,-135 -320,135"/><polygon points="-185,-270 185,-270 185,0 -185,0"/></g><g id="_TAj1Jv3rRwX_F6zAMBk_pad-12"><polygon points="-140,-170 140,-170 140,170 -140,170"/><circle cx="-140" cy="-170" r="140"/><circle cx="140" cy="-170" r="140"/><circle cx="140" cy="170" r="140"/><circle cx="-140" cy="170" r="140"/><polygon points="-140,-310 140,-310 140,-30 -140,-30"/><polygon points="280,-170 280,170 0,170 0,-170"/><polygon points="140,30 -140,30 -140,310 140,310"/><polygon points="0,170 0,-170 -280,-170 -280,170"/></g><g id="_TAj1Jv3rRwX_F6zAMBk_pad-13"><polygon points="-172.5,147.5 -172.5,-147.5 172.5,-147.5 172.5,147.5"/><circle cx="-172.5" cy="147.5" r="147.5"/><circle cx="-172.5" cy="-147.5" r="147.5"/><circle cx="172.5" cy="-147.5" r="147.5"/><circle cx="172.5" cy="147.5" r="147.5"/><polygon points="-25,147.5 -25,-147.5 -320,-147.5 -320,147.5"/><polygon points="-172.5,-295 172.5,-295 172.5,0 -172.5,0"/><polygon points="320,-147.5 320,147.5 25,147.5 25,-147.5"/><polygon points="172.5,0 -172.5,0 -172.5,295 172.5,295"/></g><g id="_TAj1Jv3rRwX_F6zAMBk_pad-14"><polygon points="-185,135 -185,-135 185,-135 185,135"/><circle cx="-185" cy="135" r="135"/><circle cx="-185" cy="-135" r="135"/><circle cx="185" cy="-135" r="135"/><circle cx="185" cy="135" r="135"/><polygon points="-50,135 -50,-135 -320,-135 -320,135"/><polygon points="-185,-270 185,-270 185,0 -185,0"/><polygon points="320,-135 320,135 50,135 50,-135"/><polygon points="185,0 -185,0 -185,270 185,270"/></g><g id="_TAj1Jv3rRwX_F6zAMBk_pad-15"><polygon points="-170,140 -170,-140 170,-140 170,140"/><circle cx="-170" cy="140" r="140"/><circle cx="-170" cy="-140" r="140"/><circle cx="170" cy="-140" r="140"/><circle cx="170" cy="140" r="140"/><polygon points="-30,140 -30,-140 -310,-140 -310,140"/><polygon points="-170,-280 170,-280 170,0 -170,0"/><polygon points="310,-140 310,140 30,140 30,-140"/><polygon points="170,0 -170,0 -170,280 170,280"/></g><g id="_TAj1Jv3rRwX_F6zAMBk_pad-16"><polygon points="135,185 -135,185 -135,-185 135,-185"/><circle cx="135" cy="185" r="135"/><circle cx="-135" cy="185" r="135"/><circle cx="-135" cy="-185" r="135"/><circle cx="135" cy="-185" r="135"/><polygon points="135,50 -135,50 -135,320 135,320"/><polygon points="0,185 0,-185 -270,-185 -270,185"/><polygon points="-135,-320 135,-320 135,-50 -135,-50"/><polygon points="270,-185 270,185 0,185 0,-185"/></g><g id="_TAj1Jv3rRwX_F6zAMBk_pad-17"><polygon points="-75,662.5 -75,-662.5 75,-662.5 75,662.5"/><circle cx="-75" cy="662.5" r="75"/><circle cx="-75" cy="-662.5" r="75"/><circle cx="75" cy="-662.5" r="75"/><circle cx="75" cy="662.5" r="75"/><polygon points="0,662.5 0,-662.5 -150,-662.5 -150,662.5"/><polygon points="-75,-737.5 75,-737.5 75,-587.5 -75,-587.5"/><polygon points="150,-662.5 150,662.5 0,662.5 0,-662.5"/><polygon points="75,587.5 -75,587.5 -75,737.5 75,737.5"/></g><g id="_TAj1Jv3rRwX_F6zAMBk_pad-18"><polygon points="-662.5,75 -662.5,-75 662.5,-75 662.5,75"/><circle cx="-662.5" cy="75" r="75"/><circle cx="-662.5" cy="-75" r="75"/><circle cx="662.5" cy="-75" r="75"/><circle cx="662.5" cy="75" r="75"/><polygon points="-587.5,75 -587.5,-75 -737.5,-75 -737.5,75"/><polygon points="-662.5,-150 662.5,-150 662.5,0 -662.5,0"/><polygon points="737.5,-75 737.5,75 587.5,75 587.5,-75"/><polygon points="662.5,0 -662.5,0 -662.5,150 662.5,150"/></g><g id="_TAj1Jv3rRwX_F6zAMBk_pad-19"><polygon points="-135,-185 135,-185 135,185 -135,185"/><circle cx="-135" cy="-185" r="135"/><circle cx="135" cy="-185" r="135"/><circle cx="135" cy="185" r="135"/><circle cx="-135" cy="185" r="135"/><polygon points="-135,-320 135,-320 135,-50 -135,-50"/><polygon points="270,-185 270,185 0,185 0,-185"/><polygon points="135,50 -135,50 -135,320 135,320"/><polygon points="0,185 0,-185 -270,-185 -270,185"/></g><g id="_TAj1Jv3rRwX_F6zAMBk_pad-20"><polygon points="250,-225 250,225 -250,225 -250,-225"/><circle cx="250" cy="-225" r="225"/><circle cx="250" cy="225" r="225"/><circle cx="-250" cy="225" r="225"/><circle cx="-250" cy="-225" r="225"/><polygon points="475,-225 475,225 25,225 25,-225"/><polygon points="250,0 -250,0 -250,450 250,450"/><polygon points="-25,225 -25,-225 -475,-225 -475,225"/><polygon points="-250,-450 250,-450 250,0 -250,0"/></g></defs><g transform="translate(0,2321) scale(1,-1)" fill="currentColor" stroke="currentColor"><path d="M -5742.8 13004 -6857.2 13004 -6857.2 14596 -5742.8 14596 -5742.8 13004" fill="none" stroke-width="10"/><path d="M -5742.8 13004 -6857.2 13004 -6857.2 14596 -5742.8 14596 -5742.8 13004"/><path d="M -3720.4 11952.4 -3879.6 11952.4 -3879.6 12907.6 -3720.4 12907.6 -3720.4 11952.4" fill="none" stroke-width="10"/><path d="M -3720.4 11952.4 -3879.6 11952.4 -3879.6 12907.6 -3720.4 12907.6 -3720.4 11952.4"/><path d="M -3320.4 11952.4 -3479.6 11952.4 -3479.6 12907.6 -3320.4 12907.6 -3320.4 11952.4" fill="none" stroke-width="10"/><path d="M -3320.4 11952.4 -3479.6 11952.4 -3479.6 12907.6 -3320.4 12907.6 -3320.4 11952.4"/><path d="M -2920.4 11952.4 -3079.6 11952.4 -3079.6 12907.6 -2920.4 12907.6 -2920.4 11952.4" fill="none" stroke-width="10"/><path d="M -2920.4 11952.4 -3079.6 11952.4 -3079.6 12907.6 -2920.4 12907.6 -2920.4 11952.4"/><path d="M -2520.4 11952.4 -2679.6 11952.4 -2679.6 12907.6 -2520.4 12907.6 -2520.4 11952.4" fill="none" stroke-width="10"/><path d="M -2520.4 11952.4 -2679.6 11952.4 -2679.6 12907.6 -2520.4 12907.6 -2520.4 11952.4"/><path d="M -2120.4 11952.4 -2279.6 11952.4 -2279.6 12907.6 -2120.4 12907.6 -2120.4 11952.4" fill="none" stroke-width="10"/><path d="M -2120.4 11952.4 -2279.6 11952.4 -2279.6 12907.6 -2120.4 12907.6 -2120.4 11952.4"/><path d="M -1720.4 11952.4 -1879.6 11952.4 -1879.6 12907.6 -1720.4 12907.6 -1720.4 11952.4" fill="none" stroke-width="10"/><path d="M -1720.4 11952.4 -1879.6 11952.4 -1879.6 12907.6 -1720.4 12907.6 -1720.4 11952.4"/><path d="M -1320.4 11952.4 -1479.6 11952.4 -1479.6 12907.6 -1320.4 12907.6 -1320.4 11952.4" fill="none" stroke-width="10"/><path d="M -1320.4 11952.4 -1479.6 11952.4 -1479.6 12907.6 -1320.4 12907.6 -1320.4 11952.4"/><path d="M -920.4 11952.4 -1079.6 11952.4 -1079.6 12907.6 -920.4 12907.6 -920.4 11952.4" fill="none" stroke-width="10"/><path d="M -920.4 11952.4 -1079.6 11952.4 -1079.6 12907.6 -920.4 12907.6 -920.4 11952.4"/><path d="M -520.4 11952.4 -679.6 11952.4 -679.6 12907.6 -520.4 12907.6 -520.4 11952.4" fill="none" stroke-width="10"/><path d="M -520.4 11952.4 -679.6 11952.4 -679.6 12907.6 -520.4 12907.6 -520.4 11952.4"/><path d="M -120.4 11952.4 -279.6 11952.4 -279.6 12907.6 -120.4 12907.6 -120.4 11952.4" fill="none" stroke-width="10"/><path d="M -120.4 11952.4 -279.6 11952.4 -279.6 12907.6 -120.4 12907.6 -120.4 11952.4"/><path d="M 279.6 11952.4 120.4 11952.4 120.4 12907.6 279.6 12907.6 279.6 11952.4" fill="none" stroke-width="10"/><path d="M 279.6 11952.4 120.4 11952.4 120.4 12907.6 279.6 12907.6 279.6 11952.4"/><path d="M 679.6 11952.4 520.4 11952.4 520.4 12907.6 679.6 12907.6 679.6 11952.4" fill="none" stroke-width="10"/><path d="M 679.6 11952.4 520.4 11952.4 520.4 12907.6 679.6 12907.6 679.6 11952.4"/><path d="M 1079.6 11952.4 920.4 11952.4 920.4 12907.6 1079.6 12907.6 1079.6 11952.4" fill="none" stroke-width="10"/><path d="M 1079.6 11952.4 920.4 11952.4 920.4 12907.6 1079.6 12907.6 1079.6 11952.4"/><path d="M 1479.6 11952.4 1320.4 11952.4 1320.4 12907.6 1479.6 12907.6 1479.6 11952.4" fill="none" stroke-width="10"/><path d="M 1479.6 11952.4 1320.4 11952.4 1320.4 12907.6 1479.6 12907.6 1479.6 11952.4"/><path d="M 1879.6 11952.4 1720.4 11952.4 1720.4 12907.6 1879.6 12907.6 1879.6 11952.4" fill="none" stroke-width="10"/><path d="M 1879.6 11952.4 1720.4 11952.4 1720.4 12907.6 1879.6 12907.6 1879.6 11952.4"/><path d="M 2279.6 11952.4 2120.4 11952.4 2120.4 12907.6 2279.6 12907.6 2279.6 11952.4" fill="none" stroke-width="10"/><path d="M 2279.6 11952.4 2120.4 11952.4 2120.4 12907.6 2279.6 12907.6 2279.6 11952.4"/><path d="M 2679.6 11952.4 2520.4 11952.4 2520.4 12907.6 2679.6 12907.6 2679.6 11952.4" fill="none" stroke-width="10"/><path d="M 2679.6 11952.4 2520.4 11952.4 2520.4 12907.6 2679.6 12907.6 2679.6 11952.4"/><path d="M 3079.6 11952.4 2920.4 11952.4 2920.4 12907.6 3079.6 12907.6 3079.6 11952.4" fill="none" stroke-width="10"/><path d="M 3079.6 11952.4 2920.4 11952.4 2920.4 12907.6 3079.6 12907.6 3079.6 11952.4"/><path d="M 3479.6 11952.4 3320.4 11952.4 3320.4 12907.6 3479.6 12907.6 3479.6 11952.4" fill="none" stroke-width="10"/><path d="M 3479.6 11952.4 3320.4 11952.4 3320.4 12907.6 3479.6 12907.6 3479.6 11952.4"/><path d="M 3879.6 11952.4 3720.4 11952.4 3720.4 12907.6 3879.6 12907.6 3879.6 11952.4" fill="none" stroke-width="10"/><path d="M 3879.6 11952.4 3720.4 11952.4 3720.4 12907.6 3879.6 12907.6 3879.6 11952.4"/><path d="M 6857.2 13004 5742.8 13004 5742.8 14596 6857.2 14596 6857.2 13004" fill="none" stroke-width="10"/><path d="M 6857.2 13004 5742.8 13004 5742.8 14596 6857.2 14596 6857.2 13004"/><use xlink:href="#_TAj1Jv3rRwX_F6zAMBk_pad-11" x="3500" y="5890"/><use xlink:href="#_TAj1Jv3rRwX_F6zAMBk_pad-11" x="3500" y="6910"/><use xlink:href="#_TAj1Jv3rRwX_F6zAMBk_pad-12" x="7370" y="-4950"/><use xlink:href="#_TAj1Jv3rRwX_F6zAMBk_pad-12" x="8330" y="-4950"/><use xlink:href="#_TAj1Jv3rRwX_F6zAMBk_pad-11" x="-1500" y="5890"/><use xlink:href="#_TAj1Jv3rRwX_F6zAMBk_pad-11" x="-1500" y="6910"/><use xlink:href="#_TAj1Jv3rRwX_F6zAMBk_pad-13" x="5000" y="-11015"/><use xlink:href="#_TAj1Jv3rRwX_F6zAMBk_pad-13" x="5000" y="-11985"/><use xlink:href="#_TAj1Jv3rRwX_F6zAMBk_pad-11" x="2500" y="5890"/><use xlink:href="#_TAj1Jv3rRwX_F6zAMBk_pad-11" x="2500" y="6910"/><use xlink:href="#_TAj1Jv3rRwX_F6zAMBk_pad-13" x="-6000" y="-11015"/><use xlink:href="#_TAj1Jv3rRwX_F6zAMBk_pad-13" x="-6000" y="-11985"/><use xlink:href="#_TAj1Jv3rRwX_F6zAMBk_pad-14" x="7300" y="2010"/><use xlink:href="#_TAj1Jv3rRwX_F6zAMBk_pad-14" x="7300" y="990"/><use xlink:href="#_TAj1Jv3rRwX_F6zAMBk_pad-11" x="4000" y="-12010"/><use xlink:href="#_TAj1Jv3rRwX_F6zAMBk_pad-11" x="4000" y="-10990"/><use xlink:href="#_TAj1Jv3rRwX_F6zAMBk_pad-11" x="-5000" y="-12010"/><use xlink:href="#_TAj1Jv3rRwX_F6zAMBk_pad-11" x="-5000" y="-10990"/><use xlink:href="#_TAj1Jv3rRwX_F6zAMBk_pad-11" x="-1000" y="-12010"/><use xlink:href="#_TAj1Jv3rRwX_F6zAMBk_pad-11" x="-1000" y="-10990"/><use xlink:href="#_TAj1Jv3rRwX_F6zAMBk_pad-11" x="-3500" y="5890"/><use xlink:href="#_TAj1Jv3rRwX_F6zAMBk_pad-11" x="-3500" y="6910"/><use xlink:href="#_TAj1Jv3rRwX_F6zAMBk_pad-14" x="8350" y="-5990"/><use xlink:href="#_TAj1Jv3rRwX_F6zAMBk_pad-14" x="8350" y="-7010"/><use xlink:href="#_TAj1Jv3rRwX_F6zAMBk_pad-11" x="7350" y="-7010"/><use xlink:href="#_TAj1Jv3rRwX_F6zAMBk_pad-11" x="7350" y="-5990"/><use xlink:href="#_TAj1Jv3rRwX_F6zAMBk_pad-11" x="8300" y="990"/><use xlink:href="#_TAj1Jv3rRwX_F6zAMBk_pad-11" x="8300" y="2010"/><use xlink:href="#_TAj1Jv3rRwX_F6zAMBk_pad-11" x="3000" y="-12010"/><use xlink:href="#_TAj1Jv3rRwX_F6zAMBk_pad-11" x="3000" y="-10990"/><use xlink:href="#_TAj1Jv3rRwX_F6zAMBk_pad-11" x="5500" y="5890"/><use xlink:href="#_TAj1Jv3rRwX_F6zAMBk_pad-11" x="5500" y="6910"/><use xlink:href="#_TAj1Jv3rRwX_F6zAMBk_pad-15" x="-7200" y="-7920"/><use xlink:href="#_TAj1Jv3rRwX_F6zAMBk_pad-15" x="-7200" y="-8880"/><use xlink:href="#_TAj1Jv3rRwX_F6zAMBk_pad-16" x="-5790" y="1500"/><use xlink:href="#_TAj1Jv3rRwX_F6zAMBk_pad-16" x="-6810" y="1500"/><use xlink:href="#_TAj1Jv3rRwX_F6zAMBk_pad-14" x="-2000" y="-10990"/><use xlink:href="#_TAj1Jv3rRwX_F6zAMBk_pad-14" x="-2000" y="-12010"/><use xlink:href="#_TAj1Jv3rRwX_F6zAMBk_pad-11" x="4500" y="5890"/><use xlink:href="#_TAj1Jv3rRwX_F6zAMBk_pad-11" x="4500" y="6910"/><use xlink:href="#_TAj1Jv3rRwX_F6zAMBk_pad-11" x="-4500" y="5890"/><use xlink:href="#_TAj1Jv3rRwX_F6zAMBk_pad-11" x="-4500" y="6910"/><use xlink:href="#_TAj1Jv3rRwX_F6zAMBk_pad-11" x="-2500" y="5890"/><use xlink:href="#_TAj1Jv3rRwX_F6zAMBk_pad-11" x="-2500" y="6910"/><use xlink:href="#_TAj1Jv3rRwX_F6zAMBk_pad-11" x="1500" y="5890"/><use xlink:href="#_TAj1Jv3rRwX_F6zAMBk_pad-11" x="1500" y="6910"/><use xlink:href="#_TAj1Jv3rRwX_F6zAMBk_pad-11" x="7500" y="5890"/><use xlink:href="#_TAj1Jv3rRwX_F6zAMBk_pad-11" x="7500" y="6910"/><use xlink:href="#_TAj1Jv3rRwX_F6zAMBk_pad-15" x="7300" y="30"/><use xlink:href="#_TAj1Jv3rRwX_F6zAMBk_pad-15" x="7300" y="-930"/><use xlink:href="#_TAj1Jv3rRwX_F6zAMBk_pad-11" x="-7500" y="5890"/><use xlink:href="#_TAj1Jv3rRwX_F6zAMBk_pad-11" x="-7500" y="6910"/><use xlink:href="#_TAj1Jv3rRwX_F6zAMBk_pad-17" x="3750" y="2462.5"/><use xlink:href="#_TAj1Jv3rRwX_F6zAMBk_pad-17" x="3250" y="2462.5"/><use xlink:href="#_TAj1Jv3rRwX_F6zAMBk_pad-17" x="2750" y="2462.5"/><use xlink:href="#_TAj1Jv3rRwX_F6zAMBk_pad-17" x="2250" y="2462.5"/><use xlink:href="#_TAj1Jv3rRwX_F6zAMBk_pad-17" x="1750" y="2462.5"/><use xlink:href="#_TAj1Jv3rRwX_F6zAMBk_pad-17" x="1250" y="2462.5"/><use xlink:href="#_TAj1Jv3rRwX_F6zAMBk_pad-17" x="750" y="2462.5"/><use xlink:href="#_TAj1Jv3rRwX_F6zAMBk_pad-17" x="250" y="2462.5"/><use xlink:href="#_TAj1Jv3rRwX_F6zAMBk_pad-17" x="-250" y="2462.5"/><use xlink:href="#_TAj1Jv3rRwX_F6zAMBk_pad-17" x="-750" y="2462.5"/><use xlink:href="#_TAj1Jv3rRwX_F6zAMBk_pad-17" x="-1250" y="2462.5"/><use xlink:href="#_TAj1Jv3rRwX_F6zAMBk_pad-17" x="-1750" y="2462.5"/><use xlink:href="#_TAj1Jv3rRwX_F6zAMBk_pad-17" x="-2250" y="2462.5"/><use xlink:href="#_TAj1Jv3rRwX_F6zAMBk_pad-17" x="-2750" y="2462.5"/><use xlink:href="#_TAj1Jv3rRwX_F6zAMBk_pad-17" x="-3250" y="2462.5"/><use xlink:href="#_TAj1Jv3rRwX_F6zAMBk_pad-17" x="-3750" y="2462.5"/><use xlink:href="#_TAj1Jv3rRwX_F6zAMBk_pad-18" x="-5662.5" y="550"/><use xlink:href="#_TAj1Jv3rRwX_F6zAMBk_pad-18" x="-5662.5" y="50"/><use xlink:href="#_TAj1Jv3rRwX_F6zAMBk_pad-18" x="-5662.5" y="-450"/><use xlink:href="#_TAj1Jv3rRwX_F6zAMBk_pad-18" x="-5662.5" y="-950"/><use xlink:href="#_TAj1Jv3rRwX_F6zAMBk_pad-18" x="-5662.5" y="-1450"/><use xlink:href="#_TAj1Jv3rRwX_F6zAMBk_pad-18" x="-5662.5" y="-1950"/><use xlink:href="#_TAj1Jv3rRwX_F6zAMBk_pad-18" x="-5662.5" y="-2450"/><use xlink:href="#_TAj1Jv3rRwX_F6zAMBk_pad-18" x="-5662.5" y="-2950"/><use xlink:href="#_TAj1Jv3rRwX_F6zAMBk_pad-18" x="-5662.5" y="-3450"/><use xlink:href="#_TAj1Jv3rRwX_F6zAMBk_pad-18" x="-5662.5" y="-3950"/><use xlink:href="#_TAj1Jv3rRwX_F6zAMBk_pad-18" x="-5662.5" y="-4450"/><use xlink:href="#_TAj1Jv3rRwX_F6zAMBk_pad-18" x="-5662.5" y="-4950"/><use xlink:href="#_TAj1Jv3rRwX_F6zAMBk_pad-18" x="-5662.5" y="-5450"/><use xlink:href="#_TAj1Jv3rRwX_F6zAMBk_pad-18" x="-5662.5" y="-5950"/><use xlink:href="#_TAj1Jv3rRwX_F6zAMBk_pad-18" x="-5662.5" y="-6450"/><use xlink:href="#_TAj1Jv3rRwX_F6zAMBk_pad-18" x="-5662.5" y="-6950"/><use xlink:href="#_TAj1Jv3rRwX_F6zAMBk_pad-17" x="-3750" y="-8862.5"/><use xlink:href="#_TAj1Jv3rRwX_F6zAMBk_pad-17" x="-3250" y="-8862.5"/><use xlink:href="#_TAj1Jv3rRwX_F6zAMBk_pad-17" x="-2750" y="-8862.5"/><use xlink:href="#_TAj1Jv3rRwX_F6zAMBk_pad-17" x="-2250" y="-8862.5"/><use xlink:href="#_TAj1Jv3rRwX_F6zAMBk_pad-17" x="-1750" y="-8862.5"/><use xlink:href="#_TAj1Jv3rRwX_F6zAMBk_pad-17" x="-1250" y="-8862.5"/><use xlink:href="#_TAj1Jv3rRwX_F6zAMBk_pad-17" x="-750" y="-8862.5"/><use xlink:href="#_TAj1Jv3rRwX_F6zAMBk_pad-17" x="-250" y="-8862.5"/><use xlink:href="#_TAj1Jv3rRwX_F6zAMBk_pad-17" x="250" y="-8862.5"/><use xlink:href="#_TAj1Jv3rRwX_F6zAMBk_pad-17" x="750" y="-8862.5"/><use xlink:href="#_TAj1Jv3rRwX_F6zAMBk_pad-17" x="1250" y="-8862.5"/><use xlink:href="#_TAj1Jv3rRwX_F6zAMBk_pad-17" x="1750" y="-8862.5"/><use xlink:href="#_TAj1Jv3rRwX_F6zAMBk_pad-17" x="2250" y="-8862.5"/><use xlink:href="#_TAj1Jv3rRwX_F6zAMBk_pad-17" x="2750" y="-8862.5"/><use xlink:href="#_TAj1Jv3rRwX_F6zAMBk_pad-17" x="3250" y="-8862.5"/><use xlink:href="#_TAj1Jv3rRwX_F6zAMBk_pad-17" x="3750" y="-8862.5"/><use xlink:href="#_TAj1Jv3rRwX_F6zAMBk_pad-18" x="5662.5" y="-6950"/><use xlink:href="#_TAj1Jv3rRwX_F6zAMBk_pad-18" x="5662.5" y="-6450"/><use xlink:href="#_TAj1Jv3rRwX_F6zAMBk_pad-18" x="5662.5" y="-5950"/><use xlink:href="#_TAj1Jv3rRwX_F6zAMBk_pad-18" x="5662.5" y="-5450"/><use xlink:href="#_TAj1Jv3rRwX_F6zAMBk_pad-18" x="5662.5" y="-4950"/><use xlink:href="#_TAj1Jv3rRwX_F6zAMBk_pad-18" x="5662.5" y="-4450"/><use xlink:href="#_TAj1Jv3rRwX_F6zAMBk_pad-18" x="5662.5" y="-3950"/><use xlink:href="#_TAj1Jv3rRwX_F6zAMBk_pad-18" x="5662.5" y="-3450"/><use xlink:href="#_TAj1Jv3rRwX_F6zAMBk_pad-18" x="5662.5" y="-2950"/><use xlink:href="#_TAj1Jv3rRwX_F6zAMBk_pad-18" x="5662.5" y="-2450"/><use xlink:href="#_TAj1Jv3rRwX_F6zAMBk_pad-18" x="5662.5" y="-1950"/><use xlink:href="#_TAj1Jv3rRwX_F6zAMBk_pad-18" x="5662.5" y="-1450"/><use xlink:href="#_TAj1Jv3rRwX_F6zAMBk_pad-18" x="5662.5" y="-950"/><use xlink:href="#_TAj1Jv3rRwX_F6zAMBk_pad-18" x="5662.5" y="-450"/><use xlink:href="#_TAj1Jv3rRwX_F6zAMBk_pad-18" x="5662.5" y="50"/><use xlink:href="#_TAj1Jv3rRwX_F6zAMBk_pad-18" x="5662.5" y="550"/><use xlink:href="#_TAj1Jv3rRwX_F6zAMBk_pad-14" x="-3000" y="-10990"/><use xlink:href="#_TAj1Jv3rRwX_F6zAMBk_pad-14" x="-3000" y="-12010"/><use xlink:href="#_TAj1Jv3rRwX_F6zAMBk_pad-14" x="1000" y="-10990"/><use xlink:href="#_TAj1Jv3rRwX_F6zAMBk_pad-14" x="1000" y="-12010"/><use xlink:href="#_TAj1Jv3rRwX_F6zAMBk_pad-19" x="-6810" y="2600"/><use xlink:href="#_TAj1Jv3rRwX_F6zAMBk_pad-19" x="-5790" y="2600"/><use xlink:href="#_TAj1Jv3rRwX_F6zAMBk_pad-14" x="-4000" y="-10990"/><use xlink:href="#_TAj1Jv3rRwX_F6zAMBk_pad-14" x="-4000" y="-12010"/><use xlink:href="#_TAj1Jv3rRwX_F6zAMBk_pad-14" x="0" y="-10990"/><use xlink:href="#_TAj1Jv3rRwX_F6zAMBk_pad-14" x="0" y="-12010"/><use xlink:href="#_TAj1Jv3rRwX_F6zAMBk_pad-11" x="-6500" y="5890"/><use xlink:href="#_TAj1Jv3rRwX_F6zAMBk_pad-11" x="-6500" y="6910"/><use xlink:href="#_TAj1Jv3rRwX_F6zAMBk_pad-20" x="-7400" y="-3975"/><use xlink:href="#_TAj1Jv3rRwX_F6zAMBk_pad-20" x="-7400" y="-2425"/><use xlink:href="#_TAj1Jv3rRwX_F6zAMBk_pad-11" x="6500" y="5890"/><use xlink:href="#_TAj1Jv3rRwX_F6zAMBk_pad-11" x="6500" y="6910"/><use xlink:href="#_TAj1Jv3rRwX_F6zAMBk_pad-15" x="-7200" y="-5970"/><use xlink:href="#_TAj1Jv3rRwX_F6zAMBk_pad-15" x="-7200" y="-6930"/><use xlink:href="#_TAj1Jv3rRwX_F6zAMBk_pad-11" x="-5500" y="5890"/><use xlink:href="#_TAj1Jv3rRwX_F6zAMBk_pad-11" x="-5500" y="6910"/><use xlink:href="#_TAj1Jv3rRwX_F6zAMBk_pad-11" x="8300" y="-960"/><use xlink:href="#_TAj1Jv3rRwX_F6zAMBk_pad-11" x="8300" y="60"/><use xlink:href="#_TAj1Jv3rRwX_F6zAMBk_pad-11" x="-500" y="5890"/><use xlink:href="#_TAj1Jv3rRwX_F6zAMBk_pad-11" x="-500" y="6910"/><use xlink:href="#_TAj1Jv3rRwX_F6zAMBk_pad-11" x="500" y="5890"/><use xlink:href="#_TAj1Jv3rRwX_F6zAMBk_pad-11" x="500" y="6910"/><use xlink:href="#_TAj1Jv3rRwX_F6zAMBk_pad-11" x="2000" y="-12010"/><use xlink:href="#_TAj1Jv3rRwX_F6zAMBk_pad-11" x="2000" y="-10990"/></g></svg>