<svg version="1.1" xmlns="http://www.w3.org/2000/svg" xmlns:xlink="http://www.w3.org/1999/xlink" stroke-linecap="round" stroke-linejoin="round" stroke-width="0" fill-rule="evenodd" width="18.035586mm" height="32.9385mm" viewBox="-9067.729 -18050 18035.586 32938.5" id="evlik11ZwYs3d7M-nivj"><g transform="translate(0,-3161.5) scale(1,-1)" fill="currentColor" stroke="currentColor"><path d="M -1300 -13100 -1299.981 -13095.637 -1299.924 -13091.274 -1299.829 -13086.912 -1299.695 -13082.55 -1299.524 -13078.19 -1299.315 -13073.832 -1299.067 -13069.476 -1298.782 -13065.122 -1298.459 -13060.77 -1298.097 -13056.422 -1297.698 -13052.077 -1297.261 -13047.736 -1296.786 -13043.398 -1296.273 -13039.065 -1295.722 -13034.737 -1295.134 -13030.413 -1294.508 -13026.095 -1293.844 -13021.783 -1293.143 -13017.476 -1292.404 -13013.176 -1291.627 -13008.882 -1290.814 -13004.596 -1289.962 -13000.316 -1289.074 -12996.044 -1288.148 -12991.78 -1287.185 -12987.524 -1286.185 -12983.277 -1285.148 -12979.039 -1284.074 -12974.81 -1282.963 -12970.59 -1281.815 -12966.381 -1280.631 -12962.181 -1279.41 -12957.992 -1278.152 -12953.814 -1276.858 -12949.647 -1275.528 -12945.492 -1274.162 -12941.348 -1272.759 -12937.216 -1271.321 -12933.097 -1269.846 -12928.99 -1268.336 -12924.896 -1266.79 -12920.816 -1265.209 -12916.749 -1263.592 -12912.697 -1261.94 -12908.658 -1260.252 -12904.634 -1258.53 -12900.625 -1256.773 -12896.632 -1254.981 -12892.653 -1253.154 -12888.691 -1251.293 -12884.744 -1249.397 -12880.814 -1247.467 -12876.901 -1245.503 -12873.005 -1243.505 -12869.126 -1241.474 -12865.264 -1239.409 -12861.421 -1237.31 -12857.595 -1235.178 -12853.788 -1233.013 -12850 -1230.815 -12846.231 -1228.584 -12842.481 -1226.32 -12838.751 -1224.024 -12835.04 -1221.696 -12831.35 -1219.335 -12827.68 -1216.943 -12824.032 -1214.519 -12820.404 -1212.063 -12816.797 -1209.576 -12813.212 -1207.058 -12809.649 -1204.508 -12806.107 -1201.928 -12802.589 -1199.318 -12799.092 -1196.677 -12795.619 -1194.005 -12792.169 -1191.304 -12788.743 -1188.573 -12785.34 -1185.812 -12781.961 -1183.022 -12778.606 -1180.203 -12775.276 -1177.355 -12771.97 -1174.478 -12768.69 -1171.572 -12765.435 -1168.639 -12762.205 -1165.677 -12759.001 -1162.687 -12755.823 -1159.67 -12752.671 -1156.625 -12749.545 -1153.553 -12746.447 -1150.455 -12743.375 -1147.329 -12740.33 -1144.177 -12737.313 -1140.999 -12734.323 -1137.795 -12731.361 -1134.565 -12728.428 -1131.31 -12725.522 -1128.03 -12722.645 -1124.724 -12719.797 -1121.394 -12716.978 -1118.039 -12714.188 -1114.66 -12711.427 -1111.257 -12708.696 -1107.831 -12705.995 -1104.381 -12703.323 -1100.908 -12700.682 -1097.411 -12698.072 -1093.893 -12695.492 -1090.351 -12692.942 -1086.788 -12690.424 -1083.203 -12687.937 -1079.596 -12685.481 -1075.968 -12683.057 -1072.32 -12680.665 -1068.65 -12678.304 -1064.96 -12675.976 -1061.249 -12673.68 -1057.519 -12671.416 -1053.769 -12669.185 -1050 -12666.987 -1046.212 -12664.822 -1042.405 -12662.69 -1038.579 -12660.591 -1034.736 -12658.526 -1030.874 -12656.495 -1026.995 -12654.497 -1023.099 -12652.533 -1019.186 -12650.603 -1015.256 -12648.707 -1011.309 -12646.846 -1007.347 -12645.019 -1003.368 -12643.227 -999.375 -12641.47 -995.366 -12639.748 -991.342 -12638.06 -987.303 -12636.408 -983.251 -12634.791 -979.184 -12633.21 -975.104 -12631.664 -971.01 -12630.154 -966.903 -12628.679 -962.784 -12627.241 -958.652 -12625.838 -954.508 -12624.472 -950.353 -12623.142 -946.186 -12621.848 -942.008 -12620.59 -937.819 -12619.369 -933.619 -12618.185 -929.41 -12617.037 -925.19 -12615.926 -920.961 -12614.852 -916.723 -12613.815 -912.476 -12612.815 -908.22 -12611.852 -903.956 -12610.926 -899.684 -12610.038 -895.404 -12609.186 -891.118 -12608.373 -886.824 -12607.596 -882.524 -12606.857 -878.217 -12606.156 -873.905 -12605.492 -869.587 -12604.866 -865.263 -12604.278 -860.935 -12603.727 -856.602 -12603.214 -852.264 -12602.739 -847.923 -12602.302 -843.578 -12601.903 -839.23 -12601.541 -834.878 -12601.218 -830.524 -12600.933 -826.168 -12600.685 -821.81 -12600.476 -817.45 -12600.305 -813.088 -12600.171 -808.726 -12600.076 -804.363 -12600.019 -800 -12600 300 -12600 M 700 -12600 720 -12600 M 1120 -12600 1140 -12600 M 1540 -12600 2640 -12600 M 3040 -12600 3060 -12600 M 3300 -12600 3304.363 -12600.019 3308.726 -12600.076 3313.088 -12600.171 3317.45 -12600.305 3321.81 -12600.476 3326.168 -12600.685 3330.524 -12600.933 3334.878 -12601.218 3339.23 -12601.541 3343.578 -12601.903 3347.923 -12602.302 3352.264 -12602.739 3356.602 -12603.214 3360.935 -12603.727 3365.263 -12604.278 3369.587 -12604.866 3373.905 -12605.492 3378.217 -12606.156 3382.524 -12606.857 3386.824 -12607.596 3391.118 -12608.373 3395.404 -12609.186 3399.684 -12610.038 3403.956 -12610.926 3408.22 -12611.852 3412.476 -12612.815 3416.723 -12613.815 3420.961 -12614.852 3425.19 -12615.926 3429.41 -12617.037 3433.619 -12618.185 3437.819 -12619.369 3442.008 -12620.59 3446.186 -12621.848 3450.353 -12623.142 3454.508 -12624.472 3458.652 -12625.838 3462.784 -12627.241 3466.903 -12628.679 3471.01 -12630.154 3475.104 -12631.664 3479.184 -12633.21 3483.251 -12634.791 3487.303 -12636.408 3491.342 -12638.06 3495.366 -12639.748 3499.375 -12641.47 3503.368 -12643.227 3507.347 -12645.019 3511.309 -12646.846 3515.256 -12648.707 3519.186 -12650.603 3523.099 -12652.533 3526.995 -12654.497 3530.874 -12656.495 3534.736 -12658.526 3538.579 -12660.591 3542.405 -12662.69 3546.212 -12664.822 3550 -12666.987 3553.769 -12669.185 3557.519 -12671.416 3561.249 -12673.68 3564.96 -12675.976 3568.65 -12678.304 3572.32 -12680.665 3575.968 -12683.057 3579.596 -12685.481 3583.203 -12687.937 3586.788 -12690.424 3590.351 -12692.942 3593.893 -12695.492 3597.411 -12698.072 3600.908 -12700.682 3604.381 -12703.323 3607.831 -12705.995 3611.257 -12708.696 3614.66 -12711.427 3618.039 -12714.188 3621.394 -12716.978 3624.724 -12719.797 3628.03 -12722.645 3631.31 -12725.522 3634.565 -12728.428 3637.795 -12731.361 3640.999 -12734.323 3644.177 -12737.313 3647.329 -12740.33 3650.455 -12743.375 3653.553 -12746.447 3656.625 -12749.545 3659.67 -12752.671 3662.687 -12755.823 3665.677 -12759.001 3668.639 -12762.205 3671.572 -12765.435 3674.478 -12768.69 3677.355 -12771.97 3680.203 -12775.276 3683.022 -12778.606 3685.812 -12781.961 3688.573 -12785.34 3691.304 -12788.743 3694.005 -12792.169 3696.677 -12795.619 3699.318 -12799.092 3701.928 -12802.589 3704.508 -12806.107 3707.058 -12809.649 3709.576 -12813.212 3712.063 -12816.797 3714.519 -12820.404 3716.943 -12824.032 3719.335 -12827.68 3721.696 -12831.35 3724.024 -12835.04 3726.32 -12838.751 3728.584 -12842.481 3730.815 -12846.231 3733.013 -12850 3735.178 -12853.788 3737.31 -12857.595 3739.409 -12861.421 3741.474 -12865.264 3743.505 -12869.126 3745.503 -12873.005 3747.467 -12876.901 3749.397 -12880.814 3751.293 -12884.744 3753.154 -12888.691 3754.981 -12892.653 3756.773 -12896.632 3758.53 -12900.625 3760.252 -12904.634 3761.94 -12908.658 3763.592 -12912.697 3765.209 -12916.749 3766.79 -12920.816 3768.336 -12924.896 3769.846 -12928.99 3771.321 -12933.097 3772.759 -12937.216 3774.162 -12941.348 3775.528 -12945.492 3776.858 -12949.647 3778.152 -12953.814 3779.41 -12957.992 3780.631 -12962.181 3781.815 -12966.381 3782.963 -12970.59 3784.074 -12974.81 3785.148 -12979.039 3786.185 -12983.277 3787.185 -12987.524 3788.148 -12991.78 3789.074 -12996.044 3789.962 -13000.316 3790.814 -13004.596 3791.627 -13008.882 3792.404 -13013.176 3793.143 -13017.476 3793.844 -13021.783 3794.508 -13026.095 3795.134 -13030.413 3795.722 -13034.737 3796.273 -13039.065 3796.786 -13043.398 3797.261 -13047.736 3797.698 -13052.077 3798.097 -13056.422 3798.459 -13060.77 3798.782 -13065.122 3799.067 -13069.476 3799.315 -13073.832 3799.524 -13078.19 3799.695 -13082.55 3799.829 -13086.912 3799.924 -13091.274 3799.981 -13095.637 3800 -13100 3800 -14200 M 3800 -14600 3800 -14620 M 3800 -15020 3800 -15040 M 3800 -15440 3800 -16540 M 3800 -16940 3800 -16960 M 3800 -17360 3800 -17380 M 3800 -17500 3799.981 -17504.363 3799.924 -17508.726 3799.829 -17513.088 3799.695 -17517.45 3799.524 -17521.81 3799.315 -17526.168 3799.067 -17530.524 3798.782 -17534.878 3798.459 -17539.23 3798.097 -17543.578 3797.698 -17547.923 3797.261 -17552.264 3796.786 -17556.602 3796.273 -17560.935 3795.722 -17565.263 3795.134 -17569.587 3794.508 -17573.905 3793.844 -17578.217 3793.143 -17582.524 3792.404 -17586.824 3791.627 -17591.118 3790.814 -17595.404 3789.962 -17599.684 3789.074 -17603.956 3788.148 -17608.22 3787.185 -17612.476 3786.185 -17616.723 3785.148 -17620.961 3784.074 -17625.19 3782.963 -17629.41 3781.815 -17633.619 3780.631 -17637.819 3779.41 -17642.008 3778.152 -17646.186 3776.858 -17650.353 3775.528 -17654.508 3774.162 -17658.652 3772.759 -17662.784 3771.321 -17666.903 3769.846 -17671.01 3768.336 -17675.104 3766.79 -17679.184 3765.209 -17683.251 3763.592 -17687.303 3761.94 -17691.342 3760.252 -17695.366 3758.53 -17699.375 3756.773 -17703.368 3754.981 -17707.347 3753.154 -17711.309 3751.293 -17715.256 3749.397 -17719.186 3747.467 -17723.099 3745.503 -17726.995 3743.505 -17730.874 3741.474 -17734.736 3739.409 -17738.579 3737.31 -17742.405 3735.178 -17746.212 3733.013 -17750 3730.815 -17753.769 3728.584 -17757.519 3726.32 -17761.249 3724.024 -17764.96 3721.696 -17768.65 3719.335 -17772.32 3716.943 -17775.968 3714.519 -17779.596 3712.063 -17783.203 3709.576 -17786.788 3707.058 -17790.351 3704.508 -17793.893 3701.928 -17797.411 3699.318 -17800.908 3696.677 -17804.381 3694.005 -17807.831 3691.304 -17811.257 3688.573 -17814.66 3685.812 -17818.039 3683.022 -17821.394 3680.203 -17824.724 3677.355 -17828.03 3674.478 -17831.31 3671.572 -17834.565 3668.639 -17837.795 3665.677 -17840.999 3662.687 -17844.177 3659.67 -17847.329 3656.625 -17850.455 3653.553 -17853.553 3650.455 -17856.625 3647.329 -17859.67 3644.177 -17862.687 3640.999 -17865.677 3637.795 -17868.639 3634.565 -17871.572 3631.31 -17874.478 3628.03 -17877.355 3624.724 -17880.203 3621.394 -17883.022 3618.039 -17885.812 3614.66 -17888.573 3611.257 -17891.304 3607.831 -17894.005 3604.381 -17896.677 3600.908 -17899.318 3597.411 -17901.928 3593.893 -17904.508 3590.351 -17907.058 3586.788 -17909.576 3583.203 -17912.063 3579.596 -17914.519 3575.968 -17916.943 3572.32 -17919.335 3568.65 -17921.696 3564.96 -17924.024 3561.249 -17926.32 3557.519 -17928.584 3553.769 -17930.815 3550 -17933.013 3546.212 -17935.178 3542.405 -17937.31 3538.579 -17939.409 3534.736 -17941.474 3530.874 -17943.505 3526.995 -17945.503 3523.099 -17947.467 3519.186 -17949.397 3515.256 -17951.293 3511.309 -17953.154 3507.347 -17954.981 3503.368 -17956.773 3499.375 -17958.53 3495.366 -17960.252 3491.342 -17961.94 3487.303 -17963.592 3483.251 -17965.209 3479.184 -17966.79 3475.104 -17968.336 3471.01 -17969.846 3466.903 -17971.321 3462.784 -17972.759 3458.652 -17974.162 3454.508 -17975.528 3450.353 -17976.858 3446.186 -17978.152 3442.008 -17979.41 3437.819 -17980.631 3433.619 -17981.815 3429.41 -17982.963 3425.19 -17984.074 3420.961 -17985.148 3416.723 -17986.185 3412.476 -17987.185 3408.22 -17988.148 3403.956 -17989.074 3399.684 -17989.962 3395.404 -17990.814 3391.118 -17991.627 3386.824 -17992.404 3382.524 -17993.143 3378.217 -17993.844 3373.905 -17994.508 3369.587 -17995.134 3365.263 -17995.722 3360.935 -17996.273 3356.602 -17996.786 3352.264 -17997.261 3347.923 -17997.698 3343.578 -17998.097 3339.23 -17998.459 3334.878 -17998.782 3330.524 -17999.067 3326.168 -17999.315 3321.81 -17999.524 3317.45 -17999.695 3313.088 -17999.829 3308.726 -17999.924 3304.363 -17999.981 3300 -18000 2200 -18000 M 1800 -18000 1780 -18000 M 1380 -18000 1360 -18000 M 960 -18000 -140 -18000 M -540 -18000 -560 -18000 M -800 -18000 -804.363 -17999.981 -808.726 -17999.924 -813.088 -17999.829 -817.45 -17999.695 -821.81 -17999.524 -826.168 -17999.315 -830.524 -17999.067 -834.878 -17998.782 -839.23 -17998.459 -843.578 -17998.097 -847.923 -17997.698 -852.264 -17997.261 -856.602 -17996.786 -860.935 -17996.273 -865.263 -17995.722 -869.587 -17995.134 -873.905 -17994.508 -878.217 -17993.844 -882.524 -17993.143 -886.824 -17992.404 -891.118 -17991.627 -895.404 -17990.814 -899.684 -17989.962 -903.956 -17989.074 -908.22 -17988.148 -912.476 -17987.185 -916.723 -17986.185 -920.961 -17985.148 -925.19 -17984.074 -929.41 -17982.963 -933.619 -17981.815 -937.819 -17980.631 -942.008 -17979.41 -946.186 -17978.152 -950.353 -17976.858 -954.508 -17975.528 -958.652 -17974.162 -962.784 -17972.759 -966.903 -17971.321 -971.01 -17969.846 -975.104 -17968.336 -979.184 -17966.79 -983.251 -17965.209 -987.303 -17963.592 -991.342 -17961.94 -995.366 -17960.252 -999.375 -17958.53 -1003.368 -17956.773 -1007.347 -17954.981 -1011.309 -17953.154 -1015.256 -17951.293 -1019.186 -17949.397 -1023.099 -17947.467 -1026.995 -17945.503 -1030.874 -17943.505 -1034.736 -17941.474 -1038.579 -17939.409 -1042.405 -17937.31 -1046.212 -17935.178 -1050 -17933.013 -1053.769 -17930.815 -1057.519 -17928.584 -1061.249 -17926.32 -1064.96 -17924.024 -1068.65 -17921.696 -1072.32 -17919.335 -1075.968 -17916.943 -1079.596 -17914.519 -1083.203 -17912.063 -1086.788 -17909.576 -1090.351 -17907.058 -1093.893 -17904.508 -1097.411 -17901.928 -1100.908 -17899.318 -1104.381 -17896.677 -1107.831 -17894.005 -1111.257 -17891.304 -1114.66 -17888.573 -1118.039 -17885.812 -1121.394 -17883.022 -1124.724 -17880.203 -1128.03 -17877.355 -1131.31 -17874.478 -1134.565 -17871.572 -1137.795 -17868.639 -1140.999 -17865.677 -1144.177 -17862.687 -1147.329 -17859.67 -1150.455 -17856.625 -1153.553 -17853.553 -1156.625 -17850.455 -1159.67 -17847.329 -1162.687 -17844.177 -1165.677 -17840.999 -1168.639 -17837.795 -1171.572 -17834.565 -1174.478 -17831.31 -1177.355 -17828.03 -1180.203 -17824.724 -1183.022 -17821.394 -1185.812 -17818.039 -1188.573 -17814.66 -1191.304 -17811.257 -1194.005 -17807.831 -1196.677 -17804.381 -1199.318 -17800.908 -1201.928 -17797.411 -1204.508 -17793.893 -1207.058 -17790.351 -1209.576 -17786.788 -1212.063 -17783.203 -1214.519 -17779.596 -1216.943 -17775.968 -1219.335 -17772.32 -1221.696 -17768.65 -1224.024 -17764.96 -1226.32 -17761.249 -1228.584 -17757.519 -1230.815 -17753.769 -1233.013 -17750 -1235.178 -17746.212 -1237.31 -17742.405 -1239.409 -17738.579 -1241.474 -17734.736 -1243.505 -17730.874 -1245.503 -17726.995 -1247.467 -17723.099 -1249.397 -17719.186 -1251.293 -17715.256 -1253.154 -17711.309 -1254.981 -17707.347 -1256.773 -17703.368 -1258.53 -17699.375 -1260.252 -17695.366 -1261.94 -17691.342 -1263.592 -17687.303 -1265.209 -17683.251 -1266.79 -17679.184 -1268.336 -17675.104 -1269.846 -17671.01 -1271.321 -17666.903 -1272.759 -17662.784 -1274.162 -17658.652 -1275.528 -17654.508 -1276.858 -17650.353 -1278.152 -17646.186 -1279.41 -17642.008 -1280.631 -17637.819 -1281.815 -17633.619 -1282.963 -17629.41 -1284.074 -17625.19 -1285.148 -17620.961 -1286.185 -17616.723 -1287.185 -17612.476 -1288.148 -17608.22 -1289.074 -17603.956 -1289.962 -17599.684 -1290.814 -17595.404 -1291.627 -17591.118 -1292.404 -17586.824 -1293.143 -17582.524 -1293.844 -17578.217 -1294.508 -17573.905 -1295.134 -17569.587 -1295.722 -17565.263 -1296.273 -17560.935 -1296.786 -17556.602 -1297.261 -17552.264 -1297.698 -17547.923 -1298.097 -17543.578 -1298.459 -17539.23 -1298.782 -17534.878 -1299.067 -17530.524 -1299.315 -17526.168 -1299.524 -17521.81 -1299.695 -17517.45 -1299.829 -17513.088 -1299.924 -17508.726 -1299.981 -17504.363 -1300 -17500 -1300 -16400 M -1300 -16000 -1300 -15980 M -1300 -15580 -1300 -15560 M -1300 -15160 -1300 -14060 M -1300 -13660 -1300 -13640 M -1300 -13240 -1300 -13220" fill="none" stroke-width="100"/><path d="M 2292.736 -15734.324 2292.736 -15772.592 2281.897 -15788.813 35.355 -18035.355 19.134 -18046.194 -19.134 -18046.194 -46.194 -18019.134 -46.194 -17980.866 -35.355 -17964.645 2211.187 -15718.103 2227.408 -15707.264 2265.676 -15707.264 2292.736 -15734.324"/><path d="M 3259.466 -15767.594 3259.466 -15805.863 3248.627 -15822.084 1035.355 -18035.355 1019.134 -18046.194 980.866 -18046.194 953.806 -18019.134 953.806 -17980.866 964.645 -17964.645 3177.916 -15751.373 3194.137 -15740.534 3232.406 -15740.534 3259.466 -15767.594"/><path d="M 3846.194 -16180.866 3846.194 -16219.135 3835.355 -16235.356 2035.355 -18035.355 2019.134 -18046.194 1980.866 -18046.194 1953.806 -18019.134 1953.806 -17980.866 1964.645 -17964.645 3764.644 -16164.645 3780.865 -16153.806 3819.134 -16153.806 3846.194 -16180.866"/><path d="M 3846.194 -17180.866 3846.194 -17219.134 3835.355 -17235.355 3035.355 -18035.355 3019.134 -18046.194 2980.866 -18046.194 2953.806 -18019.134 2953.806 -17980.866 2964.645 -17964.645 3764.645 -17164.645 3780.866 -17153.806 3819.134 -17153.806 3846.194 -17180.866"/><path d="M 1292.736 -15734.323 1292.736 -15772.592 1281.898 -15788.813 -934.787 -18005.497 -951.008 -18016.336 -989.276 -18016.336 -1016.336 -17989.276 -1016.336 -17951.008 -1005.497 -17934.787 1211.187 -15718.102 1227.408 -15707.264 1265.677 -15707.264 1292.736 -15734.323"/><path d="M 292.736 -15734.324 292.736 -15772.592 281.898 -15788.813 275.075 -15795.635 259.07 -15806.329 248.376 -15822.334 -1264.645 -17335.355 -1280.866 -17346.194 -1319.134 -17346.194 -1346.194 -17319.134 -1346.194 -17280.866 -1335.355 -17264.645 177.666 -15751.624 193.67 -15740.929 204.365 -15724.925 211.187 -15718.102 227.408 -15707.264 265.676 -15707.264 292.736 -15734.324"/><path d="M -740.785 -15767.845 -740.785 -15806.113 -751.624 -15822.335 -1264.645 -16335.355 -1280.866 -16346.194 -1319.134 -16346.194 -1346.194 -16319.134 -1346.194 -16280.866 -1335.355 -16264.645 -822.335 -15751.624 -806.113 -15740.785 -767.845 -15740.785 -740.785 -15767.845"/><path d="M 1446.194 -12580.865 1446.194 -12619.134 1435.356 -12635.355 275.075 -13795.635 258.854 -13806.474 220.586 -13806.474 193.526 -13779.414 193.526 -13741.146 204.365 -13724.925 1364.645 -12564.644 1380.866 -12553.806 1419.135 -12553.806 1446.194 -12580.865"/><path d="M 3566.016 -13461.044 3566.016 -13499.312 3555.177 -13515.533 3391.131 -13679.579 3374.91 -13690.418 3336.642 -13690.418 3309.582 -13663.358 3309.582 -13625.09 3320.421 -13608.869 3484.467 -13444.823 3500.688 -13433.984 3538.956 -13433.984 3566.016 -13461.044"/><path d="M 2446.194 -12580.866 2446.194 -12619.135 2435.355 -12635.356 1448.023 -13622.687 1431.802 -13633.526 1393.534 -13633.526 1366.474 -13606.466 1366.474 -13568.198 1377.313 -13551.977 2364.644 -12564.645 2380.865 -12553.806 2419.134 -12553.806 2446.194 -12580.866"/><path d="M 3437.896 -12589.164 3437.896 -12627.432 3427.057 -12643.653 2448.023 -13622.687 2431.802 -13633.526 2393.534 -13633.526 2366.474 -13606.466 2366.474 -13568.198 2377.313 -13551.977 3356.347 -12572.943 3372.568 -12562.104 3410.836 -12562.104 3437.896 -12589.164"/><path d="M 446.194 -12580.866 446.194 -12619.134 435.355 -12635.355 275.075 -12795.635 258.854 -12806.474 220.586 -12806.474 193.526 -12779.414 193.526 -12741.146 204.365 -12724.925 364.645 -12564.645 380.866 -12553.806 419.134 -12553.806 446.194 -12580.866"/><path d="M -8558.459 4424.515 -8472.745 4395.943 -8444.174 4367.372 -8415.602 4310.229 -8415.602 4224.515 -8444.174 4167.372 -8472.745 4138.8 -8529.888 4110.229 -8758.459 4110.229 -8758.459 4710.229 -8558.459 4710.229 -8501.316 4681.658 -8472.745 4653.086 -8444.174 4595.943 -8444.174 4538.8 -8472.745 4481.658 -8501.316 4453.086 -8558.459 4424.515 -8758.459 4424.515 M -7844.174 4110.229 -8187.031 4110.229 M -8015.602 4110.229 -8015.602 4710.229 -8072.745 4624.515 -8129.888 4567.372 -8187.031 4538.8 M -8558.459 3154.515 -8472.745 3125.943 -8444.174 3097.372 -8415.602 3040.229 -8415.602 2954.515 -8444.174 2897.372 -8472.745 2868.8 -8529.888 2840.229 -8758.459 2840.229 -8758.459 3440.229 -8558.459 3440.229 -8501.316 3411.658 -8472.745 3383.086 -8444.174 3325.943 -8444.174 3268.8 -8472.745 3211.658 -8501.316 3183.086 -8558.459 3154.515 -8758.459 3154.515 M -8187.031 3383.086 -8158.459 3411.658 -8101.316 3440.229 -7958.459 3440.229 -7901.316 3411.658 -7872.745 3383.086 -7844.174 3325.943 -7844.174 3268.8 -7872.745 3183.086 -8215.602 2840.229 -7844.174 2840.229 M -8758.459 1570.229 -8758.459 2170.229 -8615.602 2170.229 -8529.888 2141.658 -8472.745 2084.515 -8444.174 2027.372 -8415.602 1913.086 -8415.602 1827.372 -8444.174 1713.086 -8472.745 1655.943 -8529.888 1598.8 -8615.602 1570.229 -8758.459 1570.229 M -7815.602 1570.229 -8015.602 1855.943 M -8158.459 1570.229 -8158.459 2170.229 -7929.888 2170.229 -7872.745 2141.658 -7844.174 2113.086 -7815.602 2055.943 -7815.602 1970.229 -7844.174 1913.086 -7872.745 1884.515 -7929.888 1855.943 -8158.459 1855.943 M -7644.174 2170.229 -7444.174 1570.229 -7244.174 2170.229 M -8844.174 900.229 -8644.174 300.229 -8444.174 900.229 M -7901.316 300.229 -8101.316 585.943 M -8244.173 300.229 -8244.173 900.229 -8015.602 900.229 -7958.459 871.658 -7929.888 843.086 -7901.316 785.943 -7901.316 700.229 -7929.888 643.086 -7958.459 614.515 -8015.602 585.943 -8244.173 585.943 M -7444.173 614.515 -7644.173 614.515 M -7644.173 300.229 -7644.173 900.229 -7358.459 900.229 M -6300 -10169.771 -6300 -9569.771 -6071.429 -9569.771 -6014.286 -9598.342 -5985.715 -9626.914 -5957.143 -9684.057 -5957.143 -9769.771 -5985.715 -9826.914 -6014.286 -9855.485 -6071.429 -9884.057 -6300 -9884.057 M -5757.143 -9569.771 -5614.286 -10169.771 -5500 -9741.2 -5385.715 -10169.771 -5242.857 -9569.771 M -4671.429 -10169.771 -4871.429 -9884.057 M -5014.286 -10169.771 -5014.286 -9569.771 -4785.715 -9569.771 -4728.572 -9598.342 -4700.001 -9626.914 -4671.429 -9684.057 -4671.429 -9769.771 -4700.001 -9826.914 -4728.572 -9855.485 -4785.715 -9884.057 -5014.286 -9884.057 M 7235.714 -8062.628 7207.142 -8091.2 7121.428 -8119.771 7064.285 -8119.771 6978.571 -8091.2 6921.428 -8034.057 6892.857 -7976.914 6864.285 -7862.628 6864.285 -7776.914 6892.857 -7662.628 6921.428 -7605.485 6978.571 -7548.342 7064.285 -7519.771 7121.428 -7519.771 7207.142 -7548.342 7235.714 -7576.914 M 7464.285 -8091.2 7550 -8119.771 7692.857 -8119.771 7750 -8091.2 7778.571 -8062.628 7807.142 -8005.485 7807.142 -7948.342 7778.571 -7891.2 7750 -7862.628 7692.857 -7834.057 7578.571 -7805.485 7521.428 -7776.914 7492.857 -7748.342 7464.285 -7691.2 7464.285 -7634.057 7492.857 -7576.914 7521.428 -7548.342 7578.571 -7519.771 7721.428 -7519.771 7807.142 -7548.342 M 8064.286 -7805.485 8264.286 -7805.485 M 8350 -8119.771 8064.286 -8119.771 8064.286 -7519.771 8350 -7519.771 M 8892.857 -8119.771 8607.143 -8119.771 8607.143 -7519.771 M 7358.458 11730.229 7358.458 12330.229 7501.315 12330.229 7587.029 12301.658 7644.172 12244.515 7672.743 12187.372 7701.315 12073.086 7701.315 11987.372 7672.743 11873.086 7644.172 11815.943 7587.029 11758.8 7501.315 11730.229 7358.458 11730.229 M 7901.315 12330.229 8301.315 12330.229 7901.315 11730.229 8301.315 11730.229 M 8644.172 12015.943 8644.172 11730.229 M 8444.172 12330.229 8644.172 12015.943 8844.172 12330.229 M 7529.887 10774.515 7615.601 10745.943 7644.172 10717.372 7672.744 10660.229 7672.744 10574.515 7644.172 10517.372 7615.601 10488.8 7558.458 10460.229 7329.887 10460.229 7329.887 11060.229 7529.887 11060.229 7587.03 11031.658 7615.601 11003.086 7644.172 10945.943 7644.172 10888.8 7615.601 10831.658 7587.03 10803.086 7529.887 10774.515 7329.887 10774.515 M 8272.744 10460.229 8072.744 10745.943 M 7929.887 10460.229 7929.887 11060.229 8158.458 11060.229 8215.601 11031.658 8244.172 11003.086 8272.744 10945.943 8272.744 10860.229 8244.172 10803.086 8215.601 10774.515 8158.458 10745.943 7929.887 10745.943 M 8729.887 10774.515 8529.887 10774.515 M 8529.887 10460.229 8529.887 11060.229 8815.601 11060.229 M 7272.744 4424.515 7358.458 4395.943 7387.029 4367.372 7415.601 4310.229 7415.601 4224.515 7387.029 4167.372 7358.458 4138.8 7301.315 4110.229 7072.744 4110.229 7072.744 4710.229 7272.744 4710.229 7329.887 4681.658 7358.458 4653.086 7387.029 4595.943 7387.029 4538.8 7358.458 4481.658 7329.887 4453.086 7272.744 4424.515 7072.744 4424.515 M 7672.744 4110.229 7672.744 4710.229 M 7929.886 4281.658 8215.601 4281.658 M 7872.743 4110.229 8072.743 4710.229 8272.743 4110.229 M 8444.172 4138.8 8529.887 4110.229 8672.744 4110.229 8729.887 4138.8 8758.458 4167.372 8787.029 4224.515 8787.029 4281.658 8758.458 4338.8 8729.887 4367.372 8672.744 4395.943 8558.458 4424.515 8501.315 4453.086 8472.744 4481.658 8444.172 4538.8 8444.172 4595.943 8472.744 4653.086 8501.315 4681.658 8558.458 4710.229 8701.315 4710.229 8787.029 4681.658 M -8208.8 -15158.458 -8208.8 -14701.316 M -7980.229 -14929.887 -8437.372 -14929.887 M -8580.229 -14472.744 -8580.229 -14101.316 -8351.658 -14301.316 -8351.658 -14215.601 -8323.086 -14158.459 -8294.515 -14129.887 -8237.372 -14101.316 -8094.515 -14101.316 -8037.372 -14129.887 -8008.8 -14158.459 -7980.229 -14215.601 -7980.229 -14387.03 -8008.8 -14444.173 -8037.372 -14472.744 M -8380.229 -13901.315 -7980.229 -13758.458 -8380.229 -13615.601 M -8580.229 -13444.172 -8580.229 -13072.744 -8351.658 -13272.744 -8351.658 -13187.029 -8323.086 -13129.887 -8294.515 -13101.315 -8237.372 -13072.744 -8094.515 -13072.744 -8037.372 -13101.315 -8008.8 -13129.887 -7980.229 -13187.029 -7980.229 -13358.458 -8008.8 -13415.601 -8037.372 -13444.172 M -7281.658 -14844.173 -7310.229 -14901.316 -7310.229 -14987.03 -7281.658 -15072.744 -7224.515 -15129.887 -7167.372 -15158.458 -7053.086 -15187.03 -6967.372 -15187.03 -6853.086 -15158.458 -6795.943 -15129.887 -6738.8 -15072.744 -6710.229 -14987.03 -6710.229 -14929.887 -6738.8 -14844.173 -6767.372 -14815.601 -6967.372 -14815.601 -6967.372 -14929.887 M -6710.229 -14558.458 -7310.229 -14558.458 -6710.229 -14215.601 -7310.229 -14215.601 M -6710.229 -13929.887 -7310.229 -13929.887 -7310.229 -13787.03 -7281.658 -13701.316 -7224.515 -13644.173 -7167.372 -13615.602 -7053.086 -13587.03 -6967.372 -13587.03 -6853.086 -13615.602 -6795.943 -13644.173 -6738.8 -13701.316 -6710.229 -13787.03 -6710.229 -13929.887 M -5440.229 -15158.458 -6040.229 -15158.458 -6040.229 -14929.887 -6011.658 -14872.744 -5983.086 -14844.173 -5925.943 -14815.601 -5840.229 -14815.601 -5783.086 -14844.173 -5754.515 -14872.744 -5725.943 -14929.887 -5725.943 -15158.458 M -6040.229 -14615.601 -5440.229 -14472.744 -5868.8 -14358.458 -5440.229 -14244.173 -6040.229 -14101.316 M -5440.229 -13872.744 -6040.229 -13872.744 -6040.229 -13729.887 -6011.658 -13644.173 -5954.515 -13587.03 -5897.372 -13558.459 -5783.086 -13529.887 -5697.372 -13529.887 -5583.086 -13558.459 -5525.943 -13587.03 -5468.8 -13644.173 -5440.229 -13729.887 -5440.229 -13872.744 M -5440.229 -13272.744 -6040.229 -13272.744 -5440.229 -12929.887 -6040.229 -12929.887 M -4227.372 -14815.601 -4198.8 -14844.173 -4170.229 -14929.887 -4170.229 -14987.03 -4198.8 -15072.744 -4255.943 -15129.887 -4313.086 -15158.458 -4427.372 -15187.03 -4513.086 -15187.03 -4627.372 -15158.458 -4684.515 -15129.887 -4741.658 -15072.744 -4770.229 -14987.03 -4770.229 -14929.887 -4741.658 -14844.173 -4713.086 -14815.601 M -4170.229 -14272.744 -4170.229 -14558.458 -4770.229 -14558.458 M -4170.229 -14072.744 -4770.229 -14072.744 M -4170.229 -13729.887 -4513.086 -13987.03 M -4770.229 -13729.887 -4427.372 -14072.744 M -2900.229 -14815.601 -3185.943 -15015.601 M -2900.229 -15158.458 -3500.229 -15158.458 -3500.229 -14929.887 -3471.658 -14872.744 -3443.086 -14844.173 -3385.943 -14815.601 -3300.229 -14815.601 -3243.086 -14844.173 -3214.515 -14872.744 -3185.943 -14929.887 -3185.943 -15158.458 M -3071.658 -14587.03 -3071.658 -14301.316 M -2900.229 -14644.173 -3500.229 -14444.173 -2900.229 -14244.173 M -3500.229 -14101.315 -3500.229 -13701.315 -2900.229 -14101.315 -2900.229 -13701.315 M -1658.8 -15187.03 -1630.229 -15101.316 -1630.229 -14958.458 -1658.8 -14901.316 -1687.372 -14872.744 -1744.515 -14844.173 -1801.658 -14844.173 -1858.8 -14872.744 -1887.372 -14901.316 -1915.943 -14958.458 -1944.515 -15072.744 -1973.086 -15129.887 -2001.658 -15158.458 -2058.8 -15187.03 -2115.943 -15187.03 -2173.086 -15158.458 -2201.658 -15129.887 -2230.229 -15072.744 -2230.229 -14929.887 -2201.658 -14844.173 M -2230.229 -14672.744 -2230.229 -14329.887 M -1630.229 -14501.315 -2230.229 -14501.315 M -1801.658 -14158.458 -1801.658 -13872.744 M -1630.229 -14215.601 -2230.229 -14015.601 -1630.229 -13815.601 M -1630.229 -13272.743 -1915.943 -13472.743 M -1630.229 -13615.6 -2230.229 -13615.6 -2230.229 -13387.029 -2201.658 -13329.886 -2173.086 -13301.315 -2115.943 -13272.743 -2030.229 -13272.743 -1973.086 -13301.315 -1944.515 -13329.886 -1915.943 -13387.029 -1915.943 -13615.6 M -2230.229 -13101.315 -2230.229 -12758.458 M -1630.229 -12929.886 -2230.229 -12929.886 M -388.8 -15187.03 -360.229 -15101.316 -360.229 -14958.458 -388.8 -14901.316 -417.372 -14872.744 -474.515 -14844.173 -531.658 -14844.173 -588.8 -14872.744 -617.372 -14901.316 -645.943 -14958.458 -674.515 -15072.744 -703.086 -15129.887 -731.658 -15158.458 -788.8 -15187.03 -845.943 -15187.03 -903.086 -15158.458 -931.658 -15129.887 -960.229 -15072.744 -960.229 -14929.887 -931.658 -14844.173 M -417.372 -14244.172 -388.8 -14272.744 -360.229 -14358.458 -360.229 -14415.601 -388.8 -14501.315 -445.943 -14558.458 -503.086 -14587.029 -617.372 -14615.601 -703.086 -14615.601 -817.372 -14587.029 -874.515 -14558.458 -931.658 -14501.315 -960.229 -14415.601 -960.229 -14358.458 -931.658 -14272.744 -903.086 -14244.172 M -360.229 -13701.315 -360.229 -13987.029 -960.229 -13987.029 M -360.229 -13501.315 -960.229 -13501.315 M -360.229 -13158.458 -703.086 -13415.601 M -960.229 -13158.458 -617.372 -13501.315 M 909.771 -15158.458 309.771 -15158.458 309.771 -15015.601 338.342 -14929.887 395.485 -14872.744 452.628 -14844.173 566.914 -14815.601 652.628 -14815.601 766.914 -14844.173 824.057 -14872.744 881.2 -14929.887 909.771 -15015.601 909.771 -15158.458 M 909.771 -14558.458 309.771 -14558.458 M 2179.771 -15158.458 1579.771 -15158.458 1579.771 -15015.601 1608.342 -14929.887 1665.485 -14872.744 1722.628 -14844.173 1836.914 -14815.601 1922.628 -14815.601 2036.914 -14844.173 2094.057 -14872.744 2151.2 -14929.887 2179.771 -15015.601 2179.771 -15158.458 M 1579.771 -14444.173 1579.771 -14329.887 1608.342 -14272.744 1665.485 -14215.601 1779.771 -14187.03 1979.771 -14187.03 2094.057 -14215.601 2151.2 -14272.744 2179.771 -14329.887 2179.771 -14444.173 2151.2 -14501.316 2094.057 -14558.458 1979.771 -14587.03 1779.771 -14587.03 1665.485 -14558.458 1608.342 -14501.316 1579.771 -14444.173 M 3392.628 -14815.601 3421.2 -14844.173 3449.771 -14929.887 3449.771 -14987.03 3421.2 -15072.744 3364.057 -15129.887 3306.914 -15158.458 3192.628 -15187.03 3106.914 -15187.03 2992.628 -15158.458 2935.485 -15129.887 2878.342 -15072.744 2849.771 -14987.03 2849.771 -14929.887 2878.342 -14844.173 2906.914 -14815.601 M 3421.2 -14587.03 3449.771 -14501.316 3449.771 -14358.458 3421.2 -14301.316 3392.628 -14272.744 3335.485 -14244.173 3278.342 -14244.173 3221.2 -14272.744 3192.628 -14301.316 3164.057 -14358.458 3135.485 -14472.744 3106.914 -14529.887 3078.342 -14558.458 3021.2 -14587.03 2964.057 -14587.03 2906.914 -14558.458 2878.342 -14529.887 2849.771 -14472.744 2849.771 -14329.887 2878.342 -14244.173 M 4719.771 -15158.458 4119.771 -15158.458 4119.771 -15015.601 4148.342 -14929.887 4205.485 -14872.744 4262.628 -14844.173 4376.914 -14815.601 4462.628 -14815.601 4576.914 -14844.173 4634.057 -14872.744 4691.2 -14929.887 4719.771 -15015.601 4719.771 -15158.458 M 4719.771 -14215.601 4434.057 -14415.601 M 4719.771 -14558.458 4119.771 -14558.458 4119.771 -14329.887 4148.342 -14272.744 4176.914 -14244.173 4234.057 -14215.601 4319.771 -14215.601 4376.914 -14244.173 4405.485 -14272.744 4434.057 -14329.887 4434.057 -14558.458 M 4719.771 -13958.458 4119.771 -13958.458 4119.771 -13815.601 4148.342 -13729.887 4205.485 -13672.744 4262.628 -13644.173 4376.914 -13615.601 4462.628 -13615.601 4576.914 -13644.173 4634.057 -13672.744 4691.2 -13729.887 4719.771 -13815.601 4719.771 -13958.458 M 4434.057 -13244.173 4719.771 -13244.173 M 4119.771 -13444.173 4434.057 -13244.173 4119.771 -13044.173 M 5761.2 -15158.458 5761.2 -14701.316 M 5989.771 -14929.887 5532.628 -14929.887 M 5446.914 -14444.173 5418.342 -14415.601 5389.771 -14358.459 5389.771 -14215.601 5418.342 -14158.459 5446.914 -14129.887 5504.057 -14101.316 5561.2 -14101.316 5646.914 -14129.887 5989.771 -14472.744 5989.771 -14101.316 M 5589.771 -13901.315 5989.771 -13758.458 5589.771 -13615.601 M 5389.771 -13101.315 5389.771 -13387.029 5675.485 -13415.601 5646.914 -13387.029 5618.342 -13329.887 5618.342 -13187.029 5646.914 -13129.887 5675.485 -13101.315 5732.628 -13072.744 5875.485 -13072.744 5932.628 -13101.315 5961.2 -13129.887 5989.771 -13187.029 5989.771 -13329.887 5961.2 -13387.029 5932.628 -13415.601 M 6688.342 -14844.173 6659.771 -14901.316 6659.771 -14987.03 6688.342 -15072.744 6745.485 -15129.887 6802.628 -15158.458 6916.914 -15187.03 7002.628 -15187.03 7116.914 -15158.458 7174.057 -15129.887 7231.2 -15072.744 7259.771 -14987.03 7259.771 -14929.887 7231.2 -14844.173 7202.628 -14815.601 7002.628 -14815.601 7002.628 -14929.887 M 7259.771 -14558.458 6659.771 -14558.458 7259.771 -14215.601 6659.771 -14215.601 M 7259.771 -13929.887 6659.771 -13929.887 6659.771 -13787.03 6688.342 -13701.316 6745.485 -13644.173 6802.628 -13615.602 6916.914 -13587.03 7002.628 -13587.03 7116.914 -13615.602 7174.057 -13644.173 7231.2 -13701.316 7259.771 -13787.03 7259.771 -13929.887 M 8301.2 -15158.458 8301.2 -14701.316 M 7986.914 -14444.173 7958.342 -14415.601 7929.771 -14358.459 7929.771 -14215.601 7958.342 -14158.459 7986.914 -14129.887 8044.057 -14101.316 8101.2 -14101.316 8186.914 -14129.887 8529.771 -14472.744 8529.771 -14101.316 M 8129.771 -13901.315 8529.771 -13758.458 8129.771 -13615.601 M 7929.771 -13101.315 7929.771 -13387.029 8215.485 -13415.601 8186.914 -13387.029 8158.342 -13329.887 8158.342 -13187.029 8186.914 -13129.887 8215.485 -13101.315 8272.628 -13072.744 8415.485 -13072.744 8472.628 -13101.315 8501.2 -13129.887 8529.771 -13187.029 8529.771 -13329.887 8501.2 -13387.029 8472.628 -13415.601 M -8801.658 10942.858 -8830.229 10885.715 -8830.229 10800.001 -8801.658 10714.287 -8744.515 10657.144 -8687.372 10628.573 -8573.086 10600.001 -8487.372 10600.001 -8373.086 10628.573 -8315.943 10657.144 -8258.8 10714.287 -8230.229 10800.001 -8230.229 10857.144 -8258.8 10942.858 -8287.372 10971.43 -8487.372 10971.43 -8487.372 10857.144 M -8230.229 11228.573 -8830.229 11228.573 -8230.229 11571.43 -8830.229 11571.43 M -8230.229 11857.144 -8830.229 11857.144 -8830.229 12000.001 -8801.658 12085.715 -8744.515 12142.858 -8687.372 12171.429 -8573.086 12200.001 -8487.372 12200.001 -8373.086 12171.429 -8315.943 12142.858 -8258.8 12085.715 -8230.229 12000.001 -8230.229 11857.144 M 6269.771 -12099.999 5669.771 -12099.999 M 5669.771 -11700 5669.771 -11585.714 5698.342 -11528.571 5755.485 -11471.428 5869.771 -11442.857 6069.771 -11442.857 6184.057 -11471.428 6241.2 -11528.571 6269.771 -11585.714 6269.771 -11700 6241.2 -11757.143 6184.057 -11814.285 6069.771 -11842.857 5869.771 -11842.857 5755.485 -11814.285 5698.342 -11757.143 5669.771 -11700 M 5869.771 -10928.572 6269.771 -10928.572 M 5641.2 -11071.429 6069.771 -11214.286 6069.771 -10842.857" fill="none" stroke-width="150"/><path d="M -7381.701 9990.629 -7280.448 9958.091 -7190.905 9905.246 -7111.161 9831.345 -7045.453 9740.703 -6998.723 9639.24 -6970.061 9524.796 -6960.109 9394.357 -6970.653 9277.942 -7001.97 9169.473 -7055.01 9066.584 -6959.246 8934.779 -6904.654 8824.649 -6873.993 8705.565 -6862.772 8552.758 -6874.493 8403.29 -6908.497 8270.132 -6964.403 8150.066 -7043.64 8040.812 -7139.359 7951.178 -7244.97 7887.622 -7362.491 7848.82 -7494.708 7835.416 -7627.607 7848.844 -7745.546 7887.685 -7851.346 7951.248 -7947.052 8040.812 -8026.289 8150.066 -8082.195 8270.132 -8116.199 8403.29 -8127.088 8542.145 -7707.712 8542.145 -7700.793 8473.055 -7680.844 8414 -7647.732 8362.676 -7604.471 8322.977 -7554.971 8299.263 -7497.26 8291.076 -7439.549 8299.263 -7390.049 8322.977 -7346.788 8362.676 -7313.677 8414 -7293.728 8473.055 -7286.809 8542.145 -7293.746 8604.072 -7314.251 8659.509 -7349.341 8710.331 -7393.951 8749.952 -7442.726 8773.229 -7497.26 8781.125 -7552.657 8773.239 -7601.64 8750.119 -7645.876 8711.003 -7680.451 8660.706 -7700.79 8605.073 -7707.712 8542.145 -8127.088 8542.145 -8127.92 8552.758 -8116.415 8702.003 -8084.182 8824.649 -8028.199 8938.26 -7935.682 9066.584 -7988.565 9168.585 -8019.958 9277.504 -8029.908 9388.312 -7640.191 9388.312 -7629.75 9316.793 -7599.702 9260.964 -7553.974 9223.701 -7495.984 9210.992 -7443.479 9223.646 -7398.067 9262.442 -7367.158 9318.619 -7356.882 9383.745 -7367.47 9451.069 -7398.647 9505.72 -7444.938 9542.525 -7501.089 9554.886 -7553.714 9542.549 -7599.122 9504.914 -7630.015 9450.518 -7640.191 9388.312 -8029.908 9388.312 -8030.583 9395.835 -8020.723 9524.658 -7992.263 9638.259 -7945.753 9739.53 -7880.227 9830.539 -7800.698 9904.935 -7711.715 9958.01 -7611.418 9990.621 -7497.26 10001.948 -7381.701 9990.629"/><path d="M -5366.638 8896.517 -4807.56 8879.726 -4839.5 8676.997 -4886.247 8501.521 -4946.525 8349.845 -5019.705 8219.035 -5105.836 8106.77 -5206.996 8010.659 -5319.173 7935.687 -5443.91 7881.091 -5583.272 7847.199 -5739.744 7835.416 -5896.829 7848.346 -6039.868 7885.96 -6171.112 7947.413 -6292.38 8033.104 -6404.976 8144.652 -6501.644 8274.733 -6575.849 8414.719 -6629.028 8566.104 -6661.561 8730.987 -6672.739 8911.966 -6661.395 9093.844 -6628.334 9260.013 -6574.197 9413.054 -6498.519 9555.05 -6399.755 9687.473 -6284.895 9801.146 -6161.692 9888.326 -6028.867 9950.733 -5884.626 9988.862 -5726.75 10001.948 -5571.28 9988.994 -5429.907 9951.322 -5300.349 9889.772 -5180.771 9803.908 -5069.871 9692.041 -4989.085 9580.367 -4918.607 9445.345 -4858.854 9283.53 -4810.925 9090.764 -5382.881 9046.568 -5431.383 9178.982 -5490.676 9273.862 -5560.326 9338.764 -5642.108 9377.889 -5739.744 9391.536 -5846.018 9376.049 -5936.677 9331.211 -6015.512 9255.994 -6075.051 9159.219 -6111.383 9045.783 -6124.103 8911.025 -6111.674 8781.408 -6076.066 8671.691 -6017.485 8577.475 -5940.188 8504.434 -5851.421 8460.872 -5747.517 8445.828 -5640.969 8459.551 -5554.401 8498.226 -5483.35 8560.952 -5429.102 8644.519 -5389.596 8754.115 -5366.638 8896.517"/><path d="M -4238.969 8566.191 -4156.96 8554.135 -4084.002 8518.634 -4017.612 8458.187 -3965.8 8380.958 -3935.363 8296.286 -3925.032 8201.341 -3935.373 8106.473 -3965.676 8023.064 -4017.032 7948.122 -4082.78 7890.118 -4155.917 7855.757 -4238.969 7844.014 -4325.45 7855.732 -4398.646 7889.402 -4461.603 7945.167 -4509.759 8017.981 -4538.84 8102.687 -4548.962 8202.819 -4538.705 8299.883 -4508.774 8384.752 -4458.354 8460.47 -4393.252 8519.479 -4320.97 8554.309 -4238.969 8566.191"/><path d="M -2607.445 9150.811 -2607.445 8686.554 -2955.027 8686.554 -3018.184 8679.796 -3051.9 8663.986 -3072.27 8635.216 -3079.86 8587.684 -3071.762 8534.708 -3051.32 8507.756 -3014.797 8494.888 -2931.708 8488.815 -2573.685 8488.815 -2573.685 7887 -2991.456 7887 -3139.062 7898.841 -3260.145 7931.728 -3359.393 7982.895 -3440.552 8051.29 -3506.504 8139.002 -3554.733 8244.646 -3585.239 8371.901 -3596.128 8525.757 -3596.128 9323.161 -3585.886 9471.221 -3557.091 9594.904 -3511.454 9698.656 -3449.021 9785.805 -3371.713 9855.191 -3279.207 9906.332 -3168.461 9938.786 -3035.542 9950.364 -2573.685 9950.364 -2573.685 9348.55 -2913.494 9348.55 -2979.008 9340.499 -3017.777 9320.609 -3038.852 9291.844 -3046.099 9251.964 -3037.674 9202.094 -3015.007 9172.841 -2977.131 9157.57 -2901.892 9150.811 -2607.445 9150.811"/><path d="M -1326.636 9150.811 -1326.636 8686.554 -1674.218 8686.554 -1737.374 8679.796 -1771.091 8663.986 -1791.46 8635.216 -1799.05 8587.684 -1790.952 8534.708 -1770.511 8507.756 -1733.988 8494.888 -1650.899 8488.815 -1292.875 8488.815 -1292.875 7887 -1710.647 7887 -1858.253 7898.841 -1979.336 7931.728 -2078.584 7982.895 -2159.742 8051.29 -2225.695 8139.002 -2273.923 8244.646 -2304.43 8371.901 -2315.319 8525.757 -2315.319 9323.161 -2305.077 9471.221 -2276.281 9594.904 -2230.644 9698.656 -2168.211 9785.805 -2090.904 9855.191 -1998.397 9906.332 -1887.651 9938.786 -1754.732 9950.364 -1292.875 9950.364 -1292.875 9348.55 -1632.684 9348.55 -1698.199 9340.499 -1736.968 9320.609 -1758.043 9291.844 -1765.29 9251.964 -1756.865 9202.094 -1734.198 9172.841 -1696.322 9157.57 -1621.083 9150.811 -1326.636 9150.811"/><path d="M -247.925 9047.643 259.874 9047.643 333.899 8923.61 384.565 8800.472 414.214 8676.776 424.036 8550.743 411.813 8403.678 376.182 8271.762 317.156 8151.766 232.727 8041.484 132.051 7951.637 21.532 7887.82 -100.825 7848.857 -237.716 7835.416 -379.308 7848.366 -509.773 7886.317 -631.216 7948.991 -745.281 8037.536 -853.061 8154.459 -944.045 8287.635 -1014.151 8430.255 -1064.493 8583.75 -1095.292 8750.039 -1105.859 8931.444 -1094.996 9113.742 -1063.471 9279.023 -1012.139 9429.908 -940.842 9568.539 -848.421 9696.474 -739.921 9806.783 -622.888 9891.414 -496.045 9952.064 -357.578 9989.183 -205.231 10001.948 -70.852 9987.172 89.216 9938.543 89.216 9313.489 0.928 9359.069 -75.288 9383.881 -141.655 9391.536 -259.635 9375.912 -358.352 9331.28 -442.135 9257.875 -506.028 9161.434 -544.883 9047.393 -558.498 8910.622 -545.524 8770.211 -509.148 8656.951 -450.604 8564.848 -372.323 8495.353 -276.623 8452.466 -158.477 8437.231 -88.181 8448.585 -54.749 8475.349 -44.086 8516.219 -51.447 8547.295 -73.57 8566.777 -118.336 8574.788 -247.925 8574.788 -247.925 9047.643"/><path d="M 958.519 8566.191 1040.528 8554.135 1113.485 8518.634 1179.876 8458.187 1231.688 8380.958 1262.125 8296.286 1272.456 8201.341 1262.114 8106.473 1231.812 8023.064 1180.456 7948.122 1114.708 7890.118 1041.57 7855.757 958.519 7844.014 872.038 7855.732 798.841 7889.402 735.885 7945.167 687.728 8017.981 658.648 8102.687 648.526 8202.819 658.782 8299.883 688.714 8384.752 739.134 8460.47 804.236 8519.479 876.517 8554.309 958.519 8566.191"/><path d="M 1601.36 7887 1601.36 9220.664 1613.72 9395.845 1648.896 9546.13 1705.374 9675.954 1783.504 9788.626 1880.026 9880.344 1990.974 9946.449 2119.143 9987.53 2268.332 10001.948 2417.693 9987.497 2541.382 9946.964 2644.252 9882.747 2729.841 9794.671 2796.471 9686.83 2846.348 9555.185 2878.406 9394.843 2889.942 9199.708 2889.942 7887 2355.459 7887 2355.459 9199.708 2346.405 9293.383 2323.813 9349.561 2290.577 9380.677 2243.737 9391.536 2198.845 9380.866 2166.73 9350.067 2144.711 9293.936 2135.842 9199.708 2135.842 7887 1601.36 7887"/><path d="M 4194.061 9988.975 4331.097 9950.916 4459.16 9888.089 4579.865 9799.5 4694.329 9682.906 4792.83 9548.449 4867.917 9406.453 4921.309 9255.6 4953.708 9094.041 4964.761 8919.488 4953.539 8741.596 4920.74 8578.028 4866.853 8426.347 4791.277 8284.591 4692.357 8151.369 4577.539 8036.593 4455.382 7948.935 4324.687 7886.45 4183.759 7848.425 4030.489 7835.416 3878.435 7848.425 3738.19 7886.508 3607.691 7949.197 3485.277 8037.298 3369.782 8152.847 3270.197 8286.8 3194.24 8428.812 3140.175 8580.238 3107.325 8743.001 3096.152 8918.682 3643.462 8918.682 3656.349 8793.365 3693.982 8683.161 3757.273 8584.326 3839.263 8506.634 3929.277 8461.219 4030.489 8445.828 4133.311 8461.256 4223.661 8506.526 4304.865 8583.52 4367.313 8681.866 4404.593 8792.309 4417.4 8918.682 4404.59 9045.052 4367.309 9155.448 4304.865 9253.71 4223.652 9330.786 4133.303 9376.096 4030.489 9391.536 3928.456 9376.089 3838.236 9330.623 3756.577 9253.039 3693.7 9154.26 3656.281 9044.052 3643.462 8918.682 3096.152 8918.682 3096.101 8919.488 3107.458 9097.902 3140.635 9261.663 3195.127 9413.273 3271.557 9554.741 3371.638 9687.473 3487.543 9801.287 3611.443 9888.498 3744.59 9950.857 3888.734 9988.906 4046.035 10001.948 4194.061 9988.975"/><path d="M 5739.859 9348.55 5739.859 7887 5205.493 7887 5205.493 9950.364 5895.784 9950.364 6081.574 9939.329 6242.313 9908.119 6381.337 9859.001 6501.573 9793.417 6605.45 9711.922 6715.366 9589.548 6799.605 9453.318 6860.197 9301.359 6897.581 9130.732 6910.57 8937.623 6899.432 8751.648 6867.267 8584.993 6815.151 8434.693 6743.062 8298.341 6649.884 8174.206 6541.003 8068.843 6421.256 7987.047 6289.111 7927.758 6142.486 7891.105 5978.851 7878.403 5818.054 7881.09 5818.054 8488.815 5906.109 8488.815 6040.673 8500.165 6144.323 8530.882 6223.473 8577.455 6283.06 8638.634 6326.111 8715.582 6353.376 8811.711 6363.21 8932.25 6350.499 9060.526 6315.332 9159.698 6258.959 9236.735 6178.315 9295.064 6066.565 9333.934 5913.998 9348.55 5739.859 9348.55"/><path d="M 8103.092 9150.811 8103.092 8686.554 7755.51 8686.554 7692.353 8679.796 7658.637 8663.986 7638.267 8635.216 7630.678 8587.684 7638.776 8534.708 7659.217 8507.756 7695.74 8494.888 7778.829 8488.815 8136.852 8488.815 8136.852 7887 7719.081 7887 7571.475 7898.841 7450.392 7931.728 7351.144 7982.895 7269.986 8051.29 7204.033 8139.002 7155.805 8244.646 7125.298 8371.901 7114.409 8525.757 7114.409 9323.161 7124.651 9471.221 7153.447 9594.904 7199.084 9698.656 7261.517 9785.805 7338.824 9855.191 7431.331 9906.332 7542.077 9938.786 7674.995 9950.364 8136.852 9950.364 8136.852 9348.55 7797.044 9348.55 7731.529 9340.499 7692.76 9320.609 7671.685 9291.844 7664.438 9251.964 7672.863 9202.094 7695.53 9172.841 7733.406 9157.57 7808.645 9150.811 8103.092 9150.811"/><path d="M 7464.285 -4165.228 7435.713 -4193.8 7349.999 -4222.371 7292.856 -4222.371 7207.142 -4193.8 7149.999 -4136.657 7121.428 -4079.514 7092.856 -3965.228 7092.856 -3879.514 7121.428 -3765.228 7149.999 -3708.085 7207.142 -3650.942 7292.856 -3622.371 7349.999 -3622.371 7435.713 -3650.942 7464.285 -3679.514 M 7692.856 -3679.514 7721.428 -3650.942 7778.571 -3622.371 7921.428 -3622.371 7978.571 -3650.942 8007.142 -3679.514 8035.713 -3736.657 8035.713 -3793.8 8007.142 -3879.514 7664.285 -4222.371 8035.713 -4222.371 M 8235.714 -3622.371 8607.142 -3622.371 8407.142 -3850.942 8492.857 -3850.942 8550 -3879.514 8578.571 -3908.085 8607.142 -3965.228 8607.142 -4108.085 8578.571 -4165.228 8550 -4193.8 8492.857 -4222.371 8321.428 -4222.371 8264.285 -4193.8 8235.714 -4165.228 M -7984.772 -8785.714 -7956.2 -8814.286 -7927.629 -8900 -7927.629 -8957.143 -7956.2 -9042.857 -8013.343 -9100 -8070.486 -9128.571 -8184.772 -9157.143 -8270.486 -9157.143 -8384.772 -9128.571 -8441.915 -9100 -8499.058 -9042.857 -8527.629 -8957.143 -8527.629 -8900 -8499.058 -8814.286 -8470.486 -8785.714 M -8470.486 -8557.143 -8499.058 -8528.571 -8527.629 -8471.429 -8527.629 -8328.571 -8499.058 -8271.429 -8470.486 -8242.857 -8413.343 -8214.286 -8356.2 -8214.286 -8270.486 -8242.857 -7927.629 -8585.714 -7927.629 -8214.286 M -8327.629 -7700 -7927.629 -7700 M -8556.2 -7842.857 -8127.629 -7985.714 -8127.629 -7614.285 M 7515.228 -2622.932 7543.8 -2651.504 7572.371 -2737.218 7572.371 -2794.361 7543.8 -2880.075 7486.657 -2937.218 7429.514 -2965.789 7315.228 -2994.361 7229.514 -2994.361 7115.228 -2965.789 7058.085 -2937.218 7000.942 -2880.075 6972.371 -2794.361 6972.371 -2737.218 7000.942 -2651.504 7029.514 -2622.932 M 7029.514 -2394.361 7000.942 -2365.789 6972.371 -2308.647 6972.371 -2165.789 7000.942 -2108.647 7029.514 -2080.075 7086.657 -2051.504 7143.8 -2051.504 7229.514 -2080.075 7572.371 -2422.932 7572.371 -2051.504 M 6972.371 -1680.075 6972.371 -1622.932 7000.942 -1565.789 7029.514 -1537.218 7086.657 -1508.646 7200.942 -1480.075 7343.8 -1480.075 7458.085 -1508.646 7515.228 -1537.218 7543.8 -1565.789 7572.371 -1622.932 7572.371 -1680.075 7543.8 -1737.218 7515.228 -1765.789 7458.085 -1794.36 7343.8 -1822.932 7200.942 -1822.932 7086.657 -1794.36 7029.514 -1765.789 7000.942 -1737.218 6972.371 -1680.075" fill="none" stroke-width="100"/><path d="M -8486.761 -10870.765 -8447.871 -10890.209 -8411.852 -10926.228 -8392.729 -10983.597 -8392.729 -11039.285 -8842.729 -11039.285 -8842.729 -10983.597 -8823.606 -10926.227 -8787.589 -10890.21 -8748.697 -10870.764 -8651.352 -10846.428 -8584.106 -10846.428 -8486.761 -10870.765"/><path d="M -8486.761 -9756.479 -8447.871 -9775.923 -8411.852 -9811.942 -8392.729 -9869.311 -8392.729 -9924.999 -8842.729 -9924.999 -8842.729 -9869.311 -8823.606 -9811.941 -8787.589 -9775.924 -8748.697 -9756.478 -8651.352 -9732.142 -8584.106 -9732.142 -8486.761 -9756.479"/><path d="M -8167.729 -11264.285 -9067.729 -11264.285 -9067.729 -10971.428 -8992.729 -10971.428 -8992.729 -11114.285 -8991.288 -11128.917 -8980.089 -11155.953 -8959.397 -11176.645 -8932.361 -11187.844 -8917.729 -11189.285 -8317.729 -11189.285 -8303.097 -11187.844 -8276.061 -11176.645 -8255.369 -11155.953 -8244.17 -11128.917 -8242.729 -11114.285 -8242.729 -10971.428 -8243.459 -10964.022 -8243.318 -10962.048 -8243.909 -10959.45 -8244.17 -10956.796 -8244.929 -10954.964 -8246.578 -10947.711 -8275.149 -10861.997 -8281.143 -10848.572 -8282.909 -10846.536 -8283.94 -10844.046 -8293.267 -10832.681 -8350.41 -10775.538 -8356.16 -10770.819 -8357.459 -10769.321 -8359.719 -10767.899 -8361.775 -10766.211 -8363.603 -10765.453 -8369.902 -10761.489 -8427.045 -10732.918 -8428.115 -10732.508 -8428.55 -10732.186 -8434.696 -10729.99 -8440.777 -10727.663 -8441.317 -10727.624 -8442.396 -10727.239 -8556.682 -10698.667 -8559.219 -10698.291 -8560.24 -10697.869 -8565.753 -10697.326 -8571.226 -10696.517 -8572.319 -10696.679 -8574.872 -10696.428 -8660.586 -10696.428 -8663.14 -10696.679 -8664.232 -10696.517 -8669.707 -10697.326 -8675.218 -10697.869 -8676.239 -10698.291 -8678.777 -10698.667 -8793.062 -10727.239 -8794.142 -10727.624 -8794.68 -10727.663 -8800.748 -10729.984 -8806.908 -10732.186 -8807.345 -10732.509 -8808.412 -10732.918 -8865.556 -10761.489 -8871.854 -10765.453 -8873.683 -10766.211 -8875.743 -10767.901 -8877.998 -10769.321 -8879.296 -10770.817 -8885.048 -10775.538 -8942.191 -10832.681 -8951.518 -10844.046 -8952.55 -10846.536 -8954.315 -10848.572 -8960.309 -10861.998 -8988.88 -10947.711 -8990.53 -10954.964 -8991.288 -10956.796 -8991.55 -10959.45 -8992.14 -10962.048 -8992 -10964.022 -8992.729 -10971.428 -9067.729 -10971.428 -9067.729 -10190.62 -8992.14 -10190.62 -8990.065 -10219.81 -8976.979 -10245.983 -8954.872 -10265.157 -8941.446 -10271.151 -8554.899 -10400 -8941.446 -10528.849 -8954.872 -10534.843 -8976.979 -10554.017 -8990.065 -10580.19 -8992.14 -10609.38 -8982.886 -10637.143 -8963.712 -10659.25 -8937.539 -10672.336 -8908.349 -10674.411 -8894.012 -10671.151 -8294.011 -10471.151 -8280.586 -10465.157 -8276.54 -10461.647 -8271.745 -10459.25 -8265.58 -10452.141 -8258.479 -10445.983 -8256.085 -10441.193 -8252.571 -10437.143 -8249.597 -10428.217 -8245.392 -10419.81 -8245.013 -10414.465 -8243.317 -10409.38 -8243.984 -10400 -8243.317 -10390.62 -8245.013 -10385.534 -8245.392 -10380.19 -8249.597 -10371.782 -8252.571 -10362.857 -8256.085 -10358.806 -8258.479 -10354.017 -8265.58 -10347.858 -8271.745 -10340.75 -8276.54 -10338.352 -8280.586 -10334.843 -8294.011 -10328.849 -8894.012 -10128.849 -8908.349 -10125.589 -8937.539 -10127.664 -8963.712 -10140.75 -8982.886 -10162.857 -8992.14 -10190.62 -9067.729 -10190.62 -9067.729 -9857.142 -8992.729 -9857.142 -8992.729 -9999.999 -8991.288 -10014.631 -8980.089 -10041.667 -8959.397 -10062.359 -8932.361 -10073.558 -8917.729 -10074.999 -8317.729 -10074.999 -8303.097 -10073.558 -8276.061 -10062.359 -8255.369 -10041.667 -8244.17 -10014.631 -8242.729 -9999.999 -8242.729 -9857.142 -8243.459 -9849.736 -8243.318 -9847.762 -8243.909 -9845.164 -8244.17 -9842.51 -8244.929 -9840.678 -8246.578 -9833.425 -8275.149 -9747.711 -8281.143 -9734.286 -8282.909 -9732.25 -8283.94 -9729.76 -8293.267 -9718.395 -8350.41 -9661.252 -8356.16 -9656.533 -8357.459 -9655.035 -8359.719 -9653.613 -8361.775 -9651.925 -8363.603 -9651.167 -8369.902 -9647.203 -8427.045 -9618.632 -8428.115 -9618.222 -8428.55 -9617.9 -8434.696 -9615.704 -8440.777 -9613.377 -8441.317 -9613.338 -8442.396 -9612.953 -8556.682 -9584.381 -8559.219 -9584.005 -8560.24 -9583.583 -8565.753 -9583.04 -8571.226 -9582.231 -8572.319 -9582.393 -8574.872 -9582.142 -8660.586 -9582.142 -8663.14 -9582.393 -8664.232 -9582.231 -8669.707 -9583.04 -8675.218 -9583.583 -8676.239 -9584.005 -8678.777 -9584.381 -8793.062 -9612.953 -8794.142 -9613.338 -8794.68 -9613.377 -8800.748 -9615.698 -8806.908 -9617.9 -8807.345 -9618.223 -8808.412 -9618.632 -8865.556 -9647.203 -8871.854 -9651.167 -8873.683 -9651.925 -8875.743 -9653.615 -8877.998 -9655.035 -8879.296 -9656.531 -8885.048 -9661.252 -8942.191 -9718.395 -8951.518 -9729.76 -8952.55 -9732.25 -8954.315 -9734.286 -8960.309 -9747.712 -8988.88 -9833.425 -8990.53 -9840.678 -8991.288 -9842.51 -8991.55 -9845.164 -8992.14 -9847.762 -8992 -9849.736 -8992.729 -9857.142 -9067.729 -9857.142 -9067.729 -9507.142 -8167.729 -9507.142 -8167.729 -11264.285"/><path d="M -8184.772 -3585.714 -8156.2 -3614.286 -8127.629 -3700 -8127.629 -3757.143 -8156.2 -3842.857 -8213.343 -3900 -8270.486 -3928.571 -8384.772 -3957.143 -8470.486 -3957.143 -8584.772 -3928.571 -8641.915 -3900 -8699.058 -3842.857 -8727.629 -3757.143 -8727.629 -3700 -8699.058 -3614.286 -8670.486 -3585.714 M -8727.629 -3385.714 -8727.629 -3014.286 -8499.058 -3214.286 -8499.058 -3128.571 -8470.486 -3071.429 -8441.915 -3042.857 -8384.772 -3014.286 -8241.915 -3014.286 -8184.772 -3042.857 -8156.2 -3071.429 -8127.629 -3128.571 -8127.629 -3300 -8156.2 -3357.143 -8184.772 -3385.714 M -8127.629 -2442.857 -8127.629 -2785.714 M -8127.629 -2614.285 -8727.629 -2614.285 -8641.915 -2671.428 -8584.772 -2728.571 -8556.2 -2785.714 M -7984.772 -6835.714 -7956.2 -6864.286 -7927.629 -6950 -7927.629 -7007.143 -7956.2 -7092.857 -8013.343 -7150 -8070.486 -7178.571 -8184.772 -7207.143 -8270.486 -7207.143 -8384.772 -7178.571 -8441.915 -7150 -8499.058 -7092.857 -8527.629 -7007.143 -8527.629 -6950 -8499.058 -6864.286 -8470.486 -6835.714 M -8470.486 -6607.143 -8499.058 -6578.571 -8527.629 -6521.429 -8527.629 -6378.571 -8499.058 -6321.429 -8470.486 -6292.857 -8413.343 -6264.286 -8356.2 -6264.286 -8270.486 -6292.857 -7927.629 -6635.714 -7927.629 -6264.286 M -8470.486 -6035.714 -8499.058 -6007.142 -8527.629 -5950 -8527.629 -5807.142 -8499.058 -5750 -8470.486 -5721.428 -8413.343 -5692.857 -8356.2 -5692.857 -8270.486 -5721.428 -7927.629 -6064.285 -7927.629 -5692.857 M 8572.371 -2051.503 8286.657 -2251.503 M 8572.371 -2394.36 7972.371 -2394.36 7972.371 -2165.789 8000.942 -2108.646 8029.514 -2080.075 8086.657 -2051.503 8172.371 -2051.503 8229.514 -2080.075 8258.085 -2108.646 8286.657 -2165.789 8286.657 -2394.36 M 8572.371 -1765.789 8572.371 -1651.503 8543.8 -1594.36 8515.228 -1565.789 8429.514 -1508.646 8315.228 -1480.075 8086.657 -1480.075 8029.514 -1508.646 8000.942 -1537.218 7972.371 -1594.36 7972.371 -1708.646 8000.942 -1765.789 8029.514 -1794.36 8086.657 -1822.932 8229.514 -1822.932 8286.657 -1794.36 8315.228 -1765.789 8343.8 -1708.646 8343.8 -1594.36 8315.228 -1537.218 8286.657 -1508.646 8229.514 -1480.075" fill="none" stroke-width="100"/><path d="M 3120 6246.359 3120 6553.641 M 3880 6246.359 3880 6553.641" fill="none" stroke-width="120"/><path d="M -4215 12775 -5100 12775 M 5200 14825 -5200 14825 M 5200 12775 4215 12775" fill="none" stroke-width="127"/><path d="M 3900 11300 A 100 100 0 0 0 3700 11300 100 100 0 0 0 3900 11300" fill="none" stroke-width="200"/><path d="M 7742.164 -4590 7957.836 -4590 M 7742.164 -5310 7957.836 -5310 M -1880 6246.359 -1880 6553.641 M -1120 6246.359 -1120 6553.641" fill="none" stroke-width="120"/><path d="M 5050 -10410 A 50 50 0 0 0 4950 -10410 50 50 0 0 0 5050 -10410" fill="none" stroke-width="100"/><path d="M 2120 6246.359 2120 6553.641 M 2880 6246.359 2880 6553.641" fill="none" stroke-width="120"/><path d="M -5950 -10410 A 50 50 0 0 0 -6050 -10410 50 50 0 0 0 -5950 -10410" fill="none" stroke-width="100"/><path d="M 6920 1653.641 6920 1346.359 M 7680 1653.641 7680 1346.359 M 3620 -11653.641 3620 -11346.359 M 4380 -11653.641 4380 -11346.359 M -5380 -11653.641 -5380 -11346.359 M -4620 -11653.641 -4620 -11346.359 M -1380 -11653.641 -1380 -11346.359 M -620 -11653.641 -620 -11346.359 M -3880 6246.359 -3880 6553.641 M -3120 6246.359 -3120 6553.641 M 7970 -6346.359 7970 -6653.641 M 8730 -6346.359 8730 -6653.641 M 6970 -6653.641 6970 -6346.359 M 7730 -6653.641 7730 -6346.359 M 7920 1346.359 7920 1653.641 M 8680 1346.359 8680 1653.641 M 2620 -11653.641 2620 -11346.359 M 3380 -11653.641 3380 -11346.359 M 5120 6246.359 5120 6553.641 M 5880 6246.359 5880 6553.641 M -7560 -8292.164 -7560 -8507.836 M -6840 -8292.164 -6840 -8507.836 M -6146.359 1880 -6453.641 1880 M -6146.359 1120 -6453.641 1120 M -2380 -11346.359 -2380 -11653.641 M -1620 -11346.359 -1620 -11653.641 M 4120 6246.359 4120 6553.641 M 4880 6246.359 4880 6553.641 M -4880 6246.359 -4880 6553.641 M -4120 6246.359 -4120 6553.641 M -2880 6246.359 -2880 6553.641 M -2120 6246.359 -2120 6553.641 M 1120 6246.359 1120 6553.641 M 1880 6246.359 1880 6553.641 M 700 13900 A 700 700 0 0 0 -700 13900 700 700 0 0 0 700 13900 M 7120 6246.359 7120 6553.641 M 7880 6246.359 7880 6553.641 M 6940 -342.164 6940 -557.836 M 7660 -342.164 7660 -557.836 M -7880 6246.359 -7880 6553.641 M -7120 6246.359 -7120 6553.641 M -5110 1910 -4160 1910 M -5110 960 -5110 1910 M -5110 -8310 -5110 -7360 M -4160 -8310 -5110 -8310 M 4160 1910 5110 1910 5110 960 M 5110 -7360 5110 -8310 4160 -8310 M 4160 2550 4630 2890 4630 2210 4160 2550" fill="none" stroke-width="120"/><path d="M 4630 2210 4160 2550 4630 2890 4630 2210"/><path d="M -3380 -11346.359 -3380 -11653.641 M -2620 -11346.359 -2620 -11653.641 M 620 -11346.359 620 -11653.641 M 1380 -11346.359 1380 -11653.641 M -6453.641 2980 -6146.359 2980 M -6453.641 2220 -6146.359 2220 M -4380 -11346.359 -4380 -11653.641 M -3620 -11346.359 -3620 -11653.641 M -380 -11346.359 -380 -11653.641 M 380 -11346.359 380 -11653.641 M -6880 6246.359 -6880 6553.641 M -6120 6246.359 -6120 6553.641 M 700 0 A 700 700 0 0 0 -700 0 700 700 0 0 0 700 0 M -7910 -3340.58 -7910 -3059.42 M -6890 -3340.58 -6890 -3059.42 M 6120 6246.359 6120 6553.641 M 6880 6246.359 6880 6553.641 M -7560 -6342.164 -7560 -6557.836 M -6840 -6342.164 -6840 -6557.836 M -5880 6246.359 -5880 6553.641 M -5120 6246.359 -5120 6553.641 M 7920 -603.641 7920 -296.359 M 8680 -603.641 8680 -296.359 M -880 6246.359 -880 6553.641 M -120 6246.359 -120 6553.641 M 120 6246.359 120 6553.641 M 880 6246.359 880 6553.641 M 1620 -11653.641 1620 -11346.359 M 2380 -11653.641 2380 -11346.359" fill="none" stroke-width="120"/></g></svg>