<svg version="1.1" xmlns="http://www.w3.org/2000/svg" xmlns:xlink="http://www.w3.org/1999/xlink" stroke-linecap="round" stroke-linejoin="round" stroke-width="0" fill-rule="evenodd" width="21.6mm" height="31.5mm" viewBox="-10800 -17300 21600 31500" id="sXREUx7JNEJGWw_VU1Vu"><defs><circle cx="0" cy="0" r="100" id="sXREUx7JNEJGWw_VU1Vu_pad-1"/><circle cx="0" cy="0" r="150" id="sXREUx7JNEJGWw_VU1Vu_pad-2"/><circle cx="0" cy="0" r="250" id="sXREUx7JNEJGWw_VU1Vu_pad-3"/><circle cx="0" cy="0" r="300" id="sXREUx7JNEJGWw_VU1Vu_pad-4"/></defs><g transform="translate(0,-3100) scale(1,-1)" fill="currentColor" stroke="currentColor"><use xlink:href="#sXREUx7JNEJGWw_VU1Vu_pad-1" x="-9700" y="14100"/><use xlink:href="#sXREUx7JNEJGWw_VU1Vu_pad-1" x="-9700" y="-600"/><use xlink:href="#sXREUx7JNEJGWw_VU1Vu_pad-1" x="-9700" y="-3550"/><use xlink:href="#sXREUx7JNEJGWw_VU1Vu_pad-1" x="-9700" y="-6500"/><use xlink:href="#sXREUx7JNEJGWw_VU1Vu_pad-1" x="-9700" y="-10400"/><use xlink:href="#sXREUx7JNEJGWw_VU1Vu_pad-1" x="-9700" y="-13200"/><use xlink:href="#sXREUx7JNEJGWw_VU1Vu_pad-1" x="-9700" y="-16000"/><use xlink:href="#sXREUx7JNEJGWw_VU1Vu_pad-1" x="-8250" y="-14300"/><use xlink:href="#sXREUx7JNEJGWw_VU1Vu_pad-1" x="-8100" y="2500"/><use xlink:href="#sXREUx7JNEJGWw_VU1Vu_pad-1" x="-7800" y="-5400"/><use xlink:href="#sXREUx7JNEJGWw_VU1Vu_pad-1" x="-7800" y="-6950"/><use xlink:href="#sXREUx7JNEJGWw_VU1Vu_pad-1" x="-7750" y="-14300"/><use xlink:href="#sXREUx7JNEJGWw_VU1Vu_pad-1" x="-7700" y="9300"/><use xlink:href="#sXREUx7JNEJGWw_VU1Vu_pad-1" x="-7700" y="8450"/><use xlink:href="#sXREUx7JNEJGWw_VU1Vu_pad-1" x="-7300" y="4300"/><use xlink:href="#sXREUx7JNEJGWw_VU1Vu_pad-1" x="-7300" y="3200"/><use xlink:href="#sXREUx7JNEJGWw_VU1Vu_pad-1" x="-7000" y="50"/><use xlink:href="#sXREUx7JNEJGWw_VU1Vu_pad-1" x="-6900" y="-3300"/><use xlink:href="#sXREUx7JNEJGWw_VU1Vu_pad-1" x="-5900" y="4700"/><use xlink:href="#sXREUx7JNEJGWw_VU1Vu_pad-1" x="-5700" y="9300"/><use xlink:href="#sXREUx7JNEJGWw_VU1Vu_pad-1" x="-5700" y="8450"/><use xlink:href="#sXREUx7JNEJGWw_VU1Vu_pad-1" x="-5113" y="4700"/><use xlink:href="#sXREUx7JNEJGWw_VU1Vu_pad-1" x="-5000" y="-8800"/><use xlink:href="#sXREUx7JNEJGWw_VU1Vu_pad-1" x="-5000" y="-10400"/><use xlink:href="#sXREUx7JNEJGWw_VU1Vu_pad-1" x="-4550" y="550"/><use xlink:href="#sXREUx7JNEJGWw_VU1Vu_pad-1" x="-4500" y="-950"/><use xlink:href="#sXREUx7JNEJGWw_VU1Vu_pad-1" x="-4500" y="-2450"/><use xlink:href="#sXREUx7JNEJGWw_VU1Vu_pad-1" x="-4400" y="12430"/><use xlink:href="#sXREUx7JNEJGWw_VU1Vu_pad-1" x="-4400" y="-5400"/><use xlink:href="#sXREUx7JNEJGWw_VU1Vu_pad-1" x="-4327" y="4700"/><use xlink:href="#sXREUx7JNEJGWw_VU1Vu_pad-1" x="-4300" y="9300"/><use xlink:href="#sXREUx7JNEJGWw_VU1Vu_pad-1" x="-4300" y="8450"/><use xlink:href="#sXREUx7JNEJGWw_VU1Vu_pad-1" x="-4000" y="-12900"/><use xlink:href="#sXREUx7JNEJGWw_VU1Vu_pad-1" x="-3800" y="-6100"/><use xlink:href="#sXREUx7JNEJGWw_VU1Vu_pad-1" x="-3700" y="-3450"/><use xlink:href="#sXREUx7JNEJGWw_VU1Vu_pad-1" x="-3700" y="-4400"/><use xlink:href="#sXREUx7JNEJGWw_VU1Vu_pad-1" x="-3540" y="4700"/><use xlink:href="#sXREUx7JNEJGWw_VU1Vu_pad-1" x="-3000" y="-12900"/><use xlink:href="#sXREUx7JNEJGWw_VU1Vu_pad-1" x="-2753" y="4700"/><use xlink:href="#sXREUx7JNEJGWw_VU1Vu_pad-1" x="-2750" y="-10200"/><use xlink:href="#sXREUx7JNEJGWw_VU1Vu_pad-1" x="-2600" y="8450"/><use xlink:href="#sXREUx7JNEJGWw_VU1Vu_pad-1" x="-2300" y="-4300"/><use xlink:href="#sXREUx7JNEJGWw_VU1Vu_pad-1" x="-2250" y="-7500"/><use xlink:href="#sXREUx7JNEJGWw_VU1Vu_pad-1" x="-2100" y="9150"/><use xlink:href="#sXREUx7JNEJGWw_VU1Vu_pad-1" x="-2000" y="-12900"/><use xlink:href="#sXREUx7JNEJGWw_VU1Vu_pad-1" x="-1967" y="4700"/><use xlink:href="#sXREUx7JNEJGWw_VU1Vu_pad-1" x="-1300" y="-6300"/><use xlink:href="#sXREUx7JNEJGWw_VU1Vu_pad-1" x="-1250" y="-7500"/><use xlink:href="#sXREUx7JNEJGWw_VU1Vu_pad-1" x="-1180" y="4700"/><use xlink:href="#sXREUx7JNEJGWw_VU1Vu_pad-1" x="-1000" y="-10200"/><use xlink:href="#sXREUx7JNEJGWw_VU1Vu_pad-1" x="-800" y="9200"/><use xlink:href="#sXREUx7JNEJGWw_VU1Vu_pad-1" x="-800" y="8450"/><use xlink:href="#sXREUx7JNEJGWw_VU1Vu_pad-1" x="-393" y="4700"/><use xlink:href="#sXREUx7JNEJGWw_VU1Vu_pad-1" x="0" y="-4200"/><use xlink:href="#sXREUx7JNEJGWw_VU1Vu_pad-1" x="0" y="-6900"/><use xlink:href="#sXREUx7JNEJGWw_VU1Vu_pad-1" x="0" y="-12900"/><use xlink:href="#sXREUx7JNEJGWw_VU1Vu_pad-1" x="300" y="-14200"/><use xlink:href="#sXREUx7JNEJGWw_VU1Vu_pad-1" x="393" y="4700"/><use xlink:href="#sXREUx7JNEJGWw_VU1Vu_pad-1" x="500" y="-10200"/><use xlink:href="#sXREUx7JNEJGWw_VU1Vu_pad-1" x="800" y="9200"/><use xlink:href="#sXREUx7JNEJGWw_VU1Vu_pad-1" x="800" y="8450"/><use xlink:href="#sXREUx7JNEJGWw_VU1Vu_pad-1" x="1000" y="-12900"/><use xlink:href="#sXREUx7JNEJGWw_VU1Vu_pad-1" x="1180" y="4700"/><use xlink:href="#sXREUx7JNEJGWw_VU1Vu_pad-1" x="1250" y="-6700"/><use xlink:href="#sXREUx7JNEJGWw_VU1Vu_pad-1" x="1967" y="4700"/><use xlink:href="#sXREUx7JNEJGWw_VU1Vu_pad-1" x="2110" y="9175"/><use xlink:href="#sXREUx7JNEJGWw_VU1Vu_pad-1" x="2250" y="-7500"/><use xlink:href="#sXREUx7JNEJGWw_VU1Vu_pad-1" x="2600" y="8450"/><use xlink:href="#sXREUx7JNEJGWw_VU1Vu_pad-1" x="2753" y="4700"/><use xlink:href="#sXREUx7JNEJGWw_VU1Vu_pad-1" x="2850" y="-600"/><use xlink:href="#sXREUx7JNEJGWw_VU1Vu_pad-1" x="3000" y="-5950"/><use xlink:href="#sXREUx7JNEJGWw_VU1Vu_pad-1" x="3000" y="-6700"/><use xlink:href="#sXREUx7JNEJGWw_VU1Vu_pad-1" x="3400" y="-14300"/><use xlink:href="#sXREUx7JNEJGWw_VU1Vu_pad-1" x="3540" y="4700"/><use xlink:href="#sXREUx7JNEJGWw_VU1Vu_pad-1" x="3750" y="-7400"/><use xlink:href="#sXREUx7JNEJGWw_VU1Vu_pad-1" x="3800" y="-600"/><use xlink:href="#sXREUx7JNEJGWw_VU1Vu_pad-1" x="4000" y="-14300"/><use xlink:href="#sXREUx7JNEJGWw_VU1Vu_pad-1" x="4200" y="-6700"/><use xlink:href="#sXREUx7JNEJGWw_VU1Vu_pad-1" x="4300" y="9300"/><use xlink:href="#sXREUx7JNEJGWw_VU1Vu_pad-1" x="4300" y="8450"/><use xlink:href="#sXREUx7JNEJGWw_VU1Vu_pad-1" x="4327" y="4700"/><use xlink:href="#sXREUx7JNEJGWw_VU1Vu_pad-1" x="4400" y="-2700"/><use xlink:href="#sXREUx7JNEJGWw_VU1Vu_pad-1" x="4400" y="-3950"/><use xlink:href="#sXREUx7JNEJGWw_VU1Vu_pad-1" x="4400" y="-4950"/><use xlink:href="#sXREUx7JNEJGWw_VU1Vu_pad-1" x="4600" y="-8000"/><use xlink:href="#sXREUx7JNEJGWw_VU1Vu_pad-1" x="4925" y="-12737"/><use xlink:href="#sXREUx7JNEJGWw_VU1Vu_pad-1" x="5113" y="4700"/><use xlink:href="#sXREUx7JNEJGWw_VU1Vu_pad-1" x="5700" y="9300"/><use xlink:href="#sXREUx7JNEJGWw_VU1Vu_pad-1" x="5700" y="8450"/><use xlink:href="#sXREUx7JNEJGWw_VU1Vu_pad-1" x="5700" y="1000"/><use xlink:href="#sXREUx7JNEJGWw_VU1Vu_pad-1" x="5712" y="-12737"/><use xlink:href="#sXREUx7JNEJGWw_VU1Vu_pad-1" x="5900" y="4700"/><use xlink:href="#sXREUx7JNEJGWw_VU1Vu_pad-1" x="6000" y="-8000"/><use xlink:href="#sXREUx7JNEJGWw_VU1Vu_pad-1" x="6475" y="-12737"/><use xlink:href="#sXREUx7JNEJGWw_VU1Vu_pad-1" x="7000" y="-2700"/><use xlink:href="#sXREUx7JNEJGWw_VU1Vu_pad-1" x="7000" y="-3450"/><use xlink:href="#sXREUx7JNEJGWw_VU1Vu_pad-1" x="7000" y="-4000"/><use xlink:href="#sXREUx7JNEJGWw_VU1Vu_pad-1" x="7500" y="-14300"/><use xlink:href="#sXREUx7JNEJGWw_VU1Vu_pad-1" x="7700" y="9300"/><use xlink:href="#sXREUx7JNEJGWw_VU1Vu_pad-1" x="7800" y="990"/><use xlink:href="#sXREUx7JNEJGWw_VU1Vu_pad-1" x="7800" y="60"/><use xlink:href="#sXREUx7JNEJGWw_VU1Vu_pad-1" x="8000" y="-14300"/><use xlink:href="#sXREUx7JNEJGWw_VU1Vu_pad-1" x="8200" y="10980"/><use xlink:href="#sXREUx7JNEJGWw_VU1Vu_pad-1" x="8300" y="-1800"/><use xlink:href="#sXREUx7JNEJGWw_VU1Vu_pad-1" x="8500" y="2900"/><use xlink:href="#sXREUx7JNEJGWw_VU1Vu_pad-1" x="9000" y="5900"/><use xlink:href="#sXREUx7JNEJGWw_VU1Vu_pad-1" x="9700" y="14100"/><use xlink:href="#sXREUx7JNEJGWw_VU1Vu_pad-1" x="9700" y="1433"/><use xlink:href="#sXREUx7JNEJGWw_VU1Vu_pad-1" x="9700" y="-2583"/><use xlink:href="#sXREUx7JNEJGWw_VU1Vu_pad-1" x="9700" y="-6600"/><use xlink:href="#sXREUx7JNEJGWw_VU1Vu_pad-1" x="9700" y="-10400"/><use xlink:href="#sXREUx7JNEJGWw_VU1Vu_pad-1" x="9700" y="-13200"/><use xlink:href="#sXREUx7JNEJGWw_VU1Vu_pad-1" x="9700" y="-16000"/><use xlink:href="#sXREUx7JNEJGWw_VU1Vu_pad-2" x="-7600" y="13800"/><use xlink:href="#sXREUx7JNEJGWw_VU1Vu_pad-2" x="-7000" y="-950"/><use xlink:href="#sXREUx7JNEJGWw_VU1Vu_pad-2" x="-7000" y="-1450"/><use xlink:href="#sXREUx7JNEJGWw_VU1Vu_pad-2" x="-6300" y="12000"/><use xlink:href="#sXREUx7JNEJGWw_VU1Vu_pad-2" x="-5067" y="13800"/><use xlink:href="#sXREUx7JNEJGWw_VU1Vu_pad-2" x="-3500" y="550"/><use xlink:href="#sXREUx7JNEJGWw_VU1Vu_pad-2" x="-2533" y="13800"/><use xlink:href="#sXREUx7JNEJGWw_VU1Vu_pad-2" x="-1500" y="550"/><use xlink:href="#sXREUx7JNEJGWw_VU1Vu_pad-2" x="0" y="-2700"/><use xlink:href="#sXREUx7JNEJGWw_VU1Vu_pad-2" x="0" y="-5600"/><use xlink:href="#sXREUx7JNEJGWw_VU1Vu_pad-2" x="1500" y="550"/><use xlink:href="#sXREUx7JNEJGWw_VU1Vu_pad-2" x="2533" y="13800"/><use xlink:href="#sXREUx7JNEJGWw_VU1Vu_pad-2" x="3000" y="-2700"/><use xlink:href="#sXREUx7JNEJGWw_VU1Vu_pad-2" x="3800" y="550"/><use xlink:href="#sXREUx7JNEJGWw_VU1Vu_pad-2" x="5067" y="13800"/><use xlink:href="#sXREUx7JNEJGWw_VU1Vu_pad-2" x="6300" y="12000"/><use xlink:href="#sXREUx7JNEJGWw_VU1Vu_pad-2" x="7250" y="-11000"/><use xlink:href="#sXREUx7JNEJGWw_VU1Vu_pad-2" x="7600" y="13800"/><use xlink:href="#sXREUx7JNEJGWw_VU1Vu_pad-3" x="-7237" y="-10400"/><use xlink:href="#sXREUx7JNEJGWw_VU1Vu_pad-3" x="-3170" y="-17000"/><use xlink:href="#sXREUx7JNEJGWw_VU1Vu_pad-3" x="5300" y="-9200"/><use xlink:href="#sXREUx7JNEJGWw_VU1Vu_pad-3" x="7250" y="-9139"/><use xlink:href="#sXREUx7JNEJGWw_VU1Vu_pad-4" x="-10500" y="12000"/><use xlink:href="#sXREUx7JNEJGWw_VU1Vu_pad-4" x="-10500" y="10730"/><use xlink:href="#sXREUx7JNEJGWw_VU1Vu_pad-4" x="-10500" y="4380"/><use xlink:href="#sXREUx7JNEJGWw_VU1Vu_pad-4" x="-10500" y="3110"/><use xlink:href="#sXREUx7JNEJGWw_VU1Vu_pad-4" x="-10500" y="1840"/><use xlink:href="#sXREUx7JNEJGWw_VU1Vu_pad-4" x="-10500" y="570"/><use xlink:href="#sXREUx7JNEJGWw_VU1Vu_pad-4" x="-9700" y="12000"/><use xlink:href="#sXREUx7JNEJGWw_VU1Vu_pad-4" x="-9700" y="10730"/><use xlink:href="#sXREUx7JNEJGWw_VU1Vu_pad-4" x="-9700" y="4380"/><use xlink:href="#sXREUx7JNEJGWw_VU1Vu_pad-4" x="-9700" y="3110"/><use xlink:href="#sXREUx7JNEJGWw_VU1Vu_pad-4" x="-9700" y="1840"/><use xlink:href="#sXREUx7JNEJGWw_VU1Vu_pad-4" x="-9700" y="570"/><use xlink:href="#sXREUx7JNEJGWw_VU1Vu_pad-4" x="-8250" y="-16000"/><use xlink:href="#sXREUx7JNEJGWw_VU1Vu_pad-4" x="-8250" y="-17000"/><use xlink:href="#sXREUx7JNEJGWw_VU1Vu_pad-4" x="-6980" y="-16000"/><use xlink:href="#sXREUx7JNEJGWw_VU1Vu_pad-4" x="-6980" y="-17000"/><use xlink:href="#sXREUx7JNEJGWw_VU1Vu_pad-4" x="-5710" y="-16000"/><use xlink:href="#sXREUx7JNEJGWw_VU1Vu_pad-4" x="-5710" y="-17000"/><use xlink:href="#sXREUx7JNEJGWw_VU1Vu_pad-4" x="-4440" y="-16000"/><use xlink:href="#sXREUx7JNEJGWw_VU1Vu_pad-4" x="-4440" y="-17000"/><use xlink:href="#sXREUx7JNEJGWw_VU1Vu_pad-4" x="-3170" y="-16000"/><use xlink:href="#sXREUx7JNEJGWw_VU1Vu_pad-4" x="-1900" y="-16000"/><use xlink:href="#sXREUx7JNEJGWw_VU1Vu_pad-4" x="-1900" y="-16950"/><use xlink:href="#sXREUx7JNEJGWw_VU1Vu_pad-4" x="-630" y="-16000"/><use xlink:href="#sXREUx7JNEJGWw_VU1Vu_pad-4" x="-630" y="-16950"/><use xlink:href="#sXREUx7JNEJGWw_VU1Vu_pad-4" x="0" y="13900"/><use xlink:href="#sXREUx7JNEJGWw_VU1Vu_pad-4" x="0" y="0"/><use xlink:href="#sXREUx7JNEJGWw_VU1Vu_pad-4" x="640" y="-16000"/><use xlink:href="#sXREUx7JNEJGWw_VU1Vu_pad-4" x="640" y="-17000"/><use xlink:href="#sXREUx7JNEJGWw_VU1Vu_pad-4" x="1910" y="-16000"/><use xlink:href="#sXREUx7JNEJGWw_VU1Vu_pad-4" x="1910" y="-17000"/><use xlink:href="#sXREUx7JNEJGWw_VU1Vu_pad-4" x="3180" y="-16000"/><use xlink:href="#sXREUx7JNEJGWw_VU1Vu_pad-4" x="3180" y="-17000"/><use xlink:href="#sXREUx7JNEJGWw_VU1Vu_pad-4" x="4450" y="-16000"/><use xlink:href="#sXREUx7JNEJGWw_VU1Vu_pad-4" x="4450" y="-17000"/><use xlink:href="#sXREUx7JNEJGWw_VU1Vu_pad-4" x="5720" y="-16000"/><use xlink:href="#sXREUx7JNEJGWw_VU1Vu_pad-4" x="5720" y="-17000"/><use xlink:href="#sXREUx7JNEJGWw_VU1Vu_pad-4" x="6990" y="-16000"/><use xlink:href="#sXREUx7JNEJGWw_VU1Vu_pad-4" x="6990" y="-17000"/><use xlink:href="#sXREUx7JNEJGWw_VU1Vu_pad-4" x="8260" y="-16000"/><use xlink:href="#sXREUx7JNEJGWw_VU1Vu_pad-4" x="8260" y="-17000"/><use xlink:href="#sXREUx7JNEJGWw_VU1Vu_pad-4" x="9700" y="12000"/><use xlink:href="#sXREUx7JNEJGWw_VU1Vu_pad-4" x="9700" y="10730"/><use xlink:href="#sXREUx7JNEJGWw_VU1Vu_pad-4" x="9700" y="4380"/><use xlink:href="#sXREUx7JNEJGWw_VU1Vu_pad-4" x="10500" y="12000"/><use xlink:href="#sXREUx7JNEJGWw_VU1Vu_pad-4" x="10500" y="10730"/><use xlink:href="#sXREUx7JNEJGWw_VU1Vu_pad-4" x="10500" y="4380"/></g></svg>