<svg version="1.1" xmlns="http://www.w3.org/2000/svg" xmlns:xlink="http://www.w3.org/1999/xlink" stroke-linecap="round" stroke-linejoin="round" stroke-width="0" fill-rule="evenodd" width="23mm" height="32.902mm" viewBox="-11500 -18000 23000 32902" id="FWp42FrtsAzxV429BOSm"><defs><circle cx="0" cy="0" r="500" id="FWp42FrtsAzxV429BOSm_pad-10"/><rect x="-500" y="-1000" width="1000" height="2000" id="FWp42FrtsAzxV429BOSm_pad-11"/><rect x="-500" y="-500" width="1000" height="1000" id="FWp42FrtsAzxV429BOSm_pad-12"/><g id="FWp42FrtsAzxV429BOSm_pad-13"><polygon points="185,-135 185,135 -185,135 -185,-135"/><circle cx="185" cy="-135" r="135"/><circle cx="185" cy="135" r="135"/><circle cx="-185" cy="135" r="135"/><circle cx="-185" cy="-135" r="135"/><polygon points="320,-135 320,135 50,135 50,-135"/><polygon points="185,0 -185,0 -185,270 185,270"/><polygon points="-50,135 -50,-135 -320,-135 -320,135"/><polygon points="-185,-270 185,-270 185,0 -185,0"/></g><g id="FWp42FrtsAzxV429BOSm_pad-14"><polygon points="100,600 -100,600 -100,-600 100,-600"/><circle cx="100" cy="600" r="102"/><circle cx="-100" cy="600" r="102"/><circle cx="-100" cy="-600" r="102"/><circle cx="100" cy="-600" r="102"/><polygon points="100,498 -100,498 -100,702 100,702"/><polygon points="2,600 2,-600 -202,-600 -202,600"/><polygon points="-100,-702 100,-702 100,-498 -100,-498"/><polygon points="202,-600 202,600 -2,600 -2,-600"/></g><g id="FWp42FrtsAzxV429BOSm_pad-15"><polygon points="700,1000 -700,1000 -700,-1000 700,-1000"/><circle cx="700" cy="1000" r="102"/><circle cx="-700" cy="1000" r="102"/><circle cx="-700" cy="-1000" r="102"/><circle cx="700" cy="-1000" r="102"/><polygon points="700,898 -700,898 -700,1102 700,1102"/><polygon points="-598,1000 -598,-1000 -802,-1000 -802,1000"/><polygon points="-700,-1102 700,-1102 700,-898 -700,-898"/><polygon points="802,-1000 802,1000 598,1000 598,-1000"/></g><rect x="-800" y="-500" width="1600" height="1000" id="FWp42FrtsAzxV429BOSm_pad-16"/><g id="FWp42FrtsAzxV429BOSm_pad-17"><polygon points="-140,-170 140,-170 140,170 -140,170"/><circle cx="-140" cy="-170" r="140"/><circle cx="140" cy="-170" r="140"/><circle cx="140" cy="170" r="140"/><circle cx="-140" cy="170" r="140"/><polygon points="-140,-310 140,-310 140,-30 -140,-30"/><polygon points="280,-170 280,170 0,170 0,-170"/><polygon points="140,30 -140,30 -140,310 140,310"/><polygon points="0,170 0,-170 -280,-170 -280,170"/></g><g id="FWp42FrtsAzxV429BOSm_pad-18"><polygon points="-172.5,147.5 -172.5,-147.5 172.5,-147.5 172.5,147.5"/><circle cx="-172.5" cy="147.5" r="147.5"/><circle cx="-172.5" cy="-147.5" r="147.5"/><circle cx="172.5" cy="-147.5" r="147.5"/><circle cx="172.5" cy="147.5" r="147.5"/><polygon points="-25,147.5 -25,-147.5 -320,-147.5 -320,147.5"/><polygon points="-172.5,-295 172.5,-295 172.5,0 -172.5,0"/><polygon points="320,-147.5 320,147.5 25,147.5 25,-147.5"/><polygon points="172.5,0 -172.5,0 -172.5,295 172.5,295"/></g><circle cx="0" cy="0" r="1000" id="FWp42FrtsAzxV429BOSm_pad-19"/><g id="FWp42FrtsAzxV429BOSm_pad-20"><polygon points="-185,135 -185,-135 185,-135 185,135"/><circle cx="-185" cy="135" r="135"/><circle cx="-185" cy="-135" r="135"/><circle cx="185" cy="-135" r="135"/><circle cx="185" cy="135" r="135"/><polygon points="-50,135 -50,-135 -320,-135 -320,135"/><polygon points="-185,-270 185,-270 185,0 -185,0"/><polygon points="320,-135 320,135 50,135 50,-135"/><polygon points="185,0 -185,0 -185,270 185,270"/></g><g id="FWp42FrtsAzxV429BOSm_pad-21"><polygon points="-170,140 -170,-140 170,-140 170,140"/><circle cx="-170" cy="140" r="140"/><circle cx="-170" cy="-140" r="140"/><circle cx="170" cy="-140" r="140"/><circle cx="170" cy="140" r="140"/><polygon points="-30,140 -30,-140 -310,-140 -310,140"/><polygon points="-170,-280 170,-280 170,0 -170,0"/><polygon points="310,-140 310,140 30,140 30,-140"/><polygon points="170,0 -170,0 -170,280 170,280"/></g><rect x="-900" y="-500" width="1800" height="1000" id="FWp42FrtsAzxV429BOSm_pad-22"/><g id="FWp42FrtsAzxV429BOSm_pad-23"><polygon points="135,185 -135,185 -135,-185 135,-185"/><circle cx="135" cy="185" r="135"/><circle cx="-135" cy="185" r="135"/><circle cx="-135" cy="-185" r="135"/><circle cx="135" cy="-185" r="135"/><polygon points="135,50 -135,50 -135,320 135,320"/><polygon points="0,185 0,-185 -270,-185 -270,185"/><polygon points="-135,-320 135,-320 135,-50 -135,-50"/><polygon points="270,-185 270,185 0,185 0,-185"/></g><circle cx="0" cy="0" r="550" id="FWp42FrtsAzxV429BOSm_pad-24"/><g id="FWp42FrtsAzxV429BOSm_pad-25"><polygon points="-75,662.5 -75,-662.5 75,-662.5 75,662.5"/><circle cx="-75" cy="662.5" r="75"/><circle cx="-75" cy="-662.5" r="75"/><circle cx="75" cy="-662.5" r="75"/><circle cx="75" cy="662.5" r="75"/><polygon points="0,662.5 0,-662.5 -150,-662.5 -150,662.5"/><polygon points="-75,-737.5 75,-737.5 75,-587.5 -75,-587.5"/><polygon points="150,-662.5 150,662.5 0,662.5 0,-662.5"/><polygon points="75,587.5 -75,587.5 -75,737.5 75,737.5"/></g><g id="FWp42FrtsAzxV429BOSm_pad-26"><polygon points="-662.5,75 -662.5,-75 662.5,-75 662.5,75"/><circle cx="-662.5" cy="75" r="75"/><circle cx="-662.5" cy="-75" r="75"/><circle cx="662.5" cy="-75" r="75"/><circle cx="662.5" cy="75" r="75"/><polygon points="-587.5,75 -587.5,-75 -737.5,-75 -737.5,75"/><polygon points="-662.5,-150 662.5,-150 662.5,0 -662.5,0"/><polygon points="737.5,-75 737.5,75 587.5,75 587.5,-75"/><polygon points="662.5,0 -662.5,0 -662.5,150 662.5,150"/></g><g id="FWp42FrtsAzxV429BOSm_pad-27"><polygon points="-135,-185 135,-185 135,185 -135,185"/><circle cx="-135" cy="-185" r="135"/><circle cx="135" cy="-185" r="135"/><circle cx="135" cy="185" r="135"/><circle cx="-135" cy="185" r="135"/><polygon points="-135,-320 135,-320 135,-50 -135,-50"/><polygon points="270,-185 270,185 0,185 0,-185"/><polygon points="135,50 -135,50 -135,320 135,320"/><polygon points="0,185 0,-185 -270,-185 -270,185"/></g><circle cx="0" cy="0" r="800" id="FWp42FrtsAzxV429BOSm_pad-28"/><g id="FWp42FrtsAzxV429BOSm_pad-29"><polygon points="250,-225 250,225 -250,225 -250,-225"/><circle cx="250" cy="-225" r="225"/><circle cx="250" cy="225" r="225"/><circle cx="-250" cy="225" r="225"/><circle cx="-250" cy="-225" r="225"/><polygon points="475,-225 475,225 25,225 25,-225"/><polygon points="250,0 -250,0 -250,450 250,450"/><polygon points="-25,225 -25,-225 -475,-225 -475,225"/><polygon points="-250,-450 250,-450 250,0 -250,0"/></g></defs><g transform="translate(0,-3098) scale(1,-1)" fill="currentColor" stroke="currentColor"><use xlink:href="#FWp42FrtsAzxV429BOSm_pad-10" x="0" y="13900"/><use xlink:href="#FWp42FrtsAzxV429BOSm_pad-11" x="-3170" y="-17000"/><use xlink:href="#FWp42FrtsAzxV429BOSm_pad-10" x="-8250" y="-16000"/><use xlink:href="#FWp42FrtsAzxV429BOSm_pad-12" x="-6980" y="-16000"/><use xlink:href="#FWp42FrtsAzxV429BOSm_pad-10" x="-5710" y="-16000"/><use xlink:href="#FWp42FrtsAzxV429BOSm_pad-10" x="-4440" y="-16000"/><use xlink:href="#FWp42FrtsAzxV429BOSm_pad-10" x="-3170" y="-16000"/><use xlink:href="#FWp42FrtsAzxV429BOSm_pad-10" x="-1900" y="-16000"/><use xlink:href="#FWp42FrtsAzxV429BOSm_pad-10" x="-630" y="-16000"/><use xlink:href="#FWp42FrtsAzxV429BOSm_pad-10" x="640" y="-16000"/><use xlink:href="#FWp42FrtsAzxV429BOSm_pad-10" x="1910" y="-16000"/><use xlink:href="#FWp42FrtsAzxV429BOSm_pad-10" x="3180" y="-16000"/><use xlink:href="#FWp42FrtsAzxV429BOSm_pad-10" x="4450" y="-16000"/><use xlink:href="#FWp42FrtsAzxV429BOSm_pad-10" x="5720" y="-16000"/><use xlink:href="#FWp42FrtsAzxV429BOSm_pad-12" x="6990" y="-16000"/><use xlink:href="#FWp42FrtsAzxV429BOSm_pad-10" x="8260" y="-16000"/><use xlink:href="#FWp42FrtsAzxV429BOSm_pad-11" x="5720" y="-17000"/><use xlink:href="#FWp42FrtsAzxV429BOSm_pad-13" x="3500" y="5890"/><use xlink:href="#FWp42FrtsAzxV429BOSm_pad-13" x="3500" y="6910"/><use xlink:href="#FWp42FrtsAzxV429BOSm_pad-14" x="3800" y="12430"/><use xlink:href="#FWp42FrtsAzxV429BOSm_pad-14" x="3400" y="12430"/><use xlink:href="#FWp42FrtsAzxV429BOSm_pad-14" x="3000" y="12430"/><use xlink:href="#FWp42FrtsAzxV429BOSm_pad-14" x="2600" y="12430"/><use xlink:href="#FWp42FrtsAzxV429BOSm_pad-14" x="2200" y="12430"/><use xlink:href="#FWp42FrtsAzxV429BOSm_pad-14" x="1800" y="12430"/><use xlink:href="#FWp42FrtsAzxV429BOSm_pad-14" x="1400" y="12430"/><use xlink:href="#FWp42FrtsAzxV429BOSm_pad-14" x="1000" y="12430"/><use xlink:href="#FWp42FrtsAzxV429BOSm_pad-14" x="600" y="12430"/><use xlink:href="#FWp42FrtsAzxV429BOSm_pad-14" x="200" y="12430"/><use xlink:href="#FWp42FrtsAzxV429BOSm_pad-14" x="-200" y="12430"/><use xlink:href="#FWp42FrtsAzxV429BOSm_pad-14" x="-600" y="12430"/><use xlink:href="#FWp42FrtsAzxV429BOSm_pad-14" x="-1000" y="12430"/><use xlink:href="#FWp42FrtsAzxV429BOSm_pad-14" x="-1400" y="12430"/><use xlink:href="#FWp42FrtsAzxV429BOSm_pad-14" x="-1800" y="12430"/><use xlink:href="#FWp42FrtsAzxV429BOSm_pad-14" x="-2200" y="12430"/><use xlink:href="#FWp42FrtsAzxV429BOSm_pad-14" x="-2600" y="12430"/><use xlink:href="#FWp42FrtsAzxV429BOSm_pad-14" x="-3000" y="12430"/><use xlink:href="#FWp42FrtsAzxV429BOSm_pad-14" x="-3400" y="12430"/><use xlink:href="#FWp42FrtsAzxV429BOSm_pad-14" x="-3800" y="12430"/><use xlink:href="#FWp42FrtsAzxV429BOSm_pad-15" x="6300" y="13800"/><use xlink:href="#FWp42FrtsAzxV429BOSm_pad-15" x="-6300" y="13800"/><use xlink:href="#FWp42FrtsAzxV429BOSm_pad-16" x="10500" y="10730"/><use xlink:href="#FWp42FrtsAzxV429BOSm_pad-16" x="10500" y="12000"/><use xlink:href="#FWp42FrtsAzxV429BOSm_pad-17" x="7370" y="-4950"/><use xlink:href="#FWp42FrtsAzxV429BOSm_pad-17" x="8330" y="-4950"/><use xlink:href="#FWp42FrtsAzxV429BOSm_pad-13" x="-1500" y="5890"/><use xlink:href="#FWp42FrtsAzxV429BOSm_pad-13" x="-1500" y="6910"/><use xlink:href="#FWp42FrtsAzxV429BOSm_pad-11" x="-6980" y="-17000"/><use xlink:href="#FWp42FrtsAzxV429BOSm_pad-18" x="5000" y="-11015"/><use xlink:href="#FWp42FrtsAzxV429BOSm_pad-18" x="5000" y="-11985"/><use xlink:href="#FWp42FrtsAzxV429BOSm_pad-13" x="2500" y="5890"/><use xlink:href="#FWp42FrtsAzxV429BOSm_pad-13" x="2500" y="6910"/><use xlink:href="#FWp42FrtsAzxV429BOSm_pad-18" x="-6000" y="-11015"/><use xlink:href="#FWp42FrtsAzxV429BOSm_pad-18" x="-6000" y="-11985"/><use xlink:href="#FWp42FrtsAzxV429BOSm_pad-11" x="-4440" y="-17000"/><use xlink:href="#FWp42FrtsAzxV429BOSm_pad-11" x="8260" y="-17000"/><use xlink:href="#FWp42FrtsAzxV429BOSm_pad-19" x="10500" y="-8500"/><use xlink:href="#FWp42FrtsAzxV429BOSm_pad-20" x="7300" y="2010"/><use xlink:href="#FWp42FrtsAzxV429BOSm_pad-20" x="7300" y="990"/><use xlink:href="#FWp42FrtsAzxV429BOSm_pad-13" x="4000" y="-12010"/><use xlink:href="#FWp42FrtsAzxV429BOSm_pad-13" x="4000" y="-10990"/><use xlink:href="#FWp42FrtsAzxV429BOSm_pad-11" x="3180" y="-17000"/><use xlink:href="#FWp42FrtsAzxV429BOSm_pad-11" x="-630" y="-16950"/><use xlink:href="#FWp42FrtsAzxV429BOSm_pad-13" x="-5000" y="-12010"/><use xlink:href="#FWp42FrtsAzxV429BOSm_pad-13" x="-5000" y="-10990"/><use xlink:href="#FWp42FrtsAzxV429BOSm_pad-13" x="-1000" y="-12010"/><use xlink:href="#FWp42FrtsAzxV429BOSm_pad-13" x="-1000" y="-10990"/><use xlink:href="#FWp42FrtsAzxV429BOSm_pad-13" x="-3500" y="5890"/><use xlink:href="#FWp42FrtsAzxV429BOSm_pad-13" x="-3500" y="6910"/><use xlink:href="#FWp42FrtsAzxV429BOSm_pad-11" x="4450" y="-17000"/><use xlink:href="#FWp42FrtsAzxV429BOSm_pad-20" x="8350" y="-5990"/><use xlink:href="#FWp42FrtsAzxV429BOSm_pad-20" x="8350" y="-7010"/><use xlink:href="#FWp42FrtsAzxV429BOSm_pad-11" x="-5710" y="-17000"/><use xlink:href="#FWp42FrtsAzxV429BOSm_pad-13" x="7350" y="-7010"/><use xlink:href="#FWp42FrtsAzxV429BOSm_pad-13" x="7350" y="-5990"/><use xlink:href="#FWp42FrtsAzxV429BOSm_pad-13" x="8300" y="990"/><use xlink:href="#FWp42FrtsAzxV429BOSm_pad-13" x="8300" y="2010"/><use xlink:href="#FWp42FrtsAzxV429BOSm_pad-16" x="-10500" y="3110"/><use xlink:href="#FWp42FrtsAzxV429BOSm_pad-16" x="-10500" y="4380"/><use xlink:href="#FWp42FrtsAzxV429BOSm_pad-11" x="640" y="-17000"/><use xlink:href="#FWp42FrtsAzxV429BOSm_pad-13" x="3000" y="-12010"/><use xlink:href="#FWp42FrtsAzxV429BOSm_pad-13" x="3000" y="-10990"/><use xlink:href="#FWp42FrtsAzxV429BOSm_pad-13" x="5500" y="5890"/><use xlink:href="#FWp42FrtsAzxV429BOSm_pad-13" x="5500" y="6910"/><use xlink:href="#FWp42FrtsAzxV429BOSm_pad-21" x="-7200" y="-7920"/><use xlink:href="#FWp42FrtsAzxV429BOSm_pad-21" x="-7200" y="-8880"/><use xlink:href="#FWp42FrtsAzxV429BOSm_pad-11" x="-8250" y="-17000"/><use xlink:href="#FWp42FrtsAzxV429BOSm_pad-22" x="-10500" y="10730"/><use xlink:href="#FWp42FrtsAzxV429BOSm_pad-23" x="-5790" y="1500"/><use xlink:href="#FWp42FrtsAzxV429BOSm_pad-23" x="-6810" y="1500"/><use xlink:href="#FWp42FrtsAzxV429BOSm_pad-19" x="-10500" y="-8500"/><use xlink:href="#FWp42FrtsAzxV429BOSm_pad-20" x="-2000" y="-10990"/><use xlink:href="#FWp42FrtsAzxV429BOSm_pad-20" x="-2000" y="-12010"/><use xlink:href="#FWp42FrtsAzxV429BOSm_pad-13" x="4500" y="5890"/><use xlink:href="#FWp42FrtsAzxV429BOSm_pad-13" x="4500" y="6910"/><use xlink:href="#FWp42FrtsAzxV429BOSm_pad-13" x="-4500" y="5890"/><use xlink:href="#FWp42FrtsAzxV429BOSm_pad-13" x="-4500" y="6910"/><use xlink:href="#FWp42FrtsAzxV429BOSm_pad-13" x="-2500" y="5890"/><use xlink:href="#FWp42FrtsAzxV429BOSm_pad-13" x="-2500" y="6910"/><use xlink:href="#FWp42FrtsAzxV429BOSm_pad-13" x="1500" y="5890"/><use xlink:href="#FWp42FrtsAzxV429BOSm_pad-13" x="1500" y="6910"/><use xlink:href="#FWp42FrtsAzxV429BOSm_pad-24" x="7250" y="-9138.986"/><use xlink:href="#FWp42FrtsAzxV429BOSm_pad-10" x="9700" y="4380"/><use xlink:href="#FWp42FrtsAzxV429BOSm_pad-13" x="7500" y="5890"/><use xlink:href="#FWp42FrtsAzxV429BOSm_pad-13" x="7500" y="6910"/><use xlink:href="#FWp42FrtsAzxV429BOSm_pad-16" x="-10500" y="570"/><use xlink:href="#FWp42FrtsAzxV429BOSm_pad-21" x="7300" y="30"/><use xlink:href="#FWp42FrtsAzxV429BOSm_pad-21" x="7300" y="-930"/><use xlink:href="#FWp42FrtsAzxV429BOSm_pad-13" x="-7500" y="5890"/><use xlink:href="#FWp42FrtsAzxV429BOSm_pad-13" x="-7500" y="6910"/><use xlink:href="#FWp42FrtsAzxV429BOSm_pad-25" x="3750" y="2462.5"/><use xlink:href="#FWp42FrtsAzxV429BOSm_pad-25" x="3250" y="2462.5"/><use xlink:href="#FWp42FrtsAzxV429BOSm_pad-25" x="2750" y="2462.5"/><use xlink:href="#FWp42FrtsAzxV429BOSm_pad-25" x="2250" y="2462.5"/><use xlink:href="#FWp42FrtsAzxV429BOSm_pad-25" x="1750" y="2462.5"/><use xlink:href="#FWp42FrtsAzxV429BOSm_pad-25" x="1250" y="2462.5"/><use xlink:href="#FWp42FrtsAzxV429BOSm_pad-25" x="750" y="2462.5"/><use xlink:href="#FWp42FrtsAzxV429BOSm_pad-25" x="250" y="2462.5"/><use xlink:href="#FWp42FrtsAzxV429BOSm_pad-25" x="-250" y="2462.5"/><use xlink:href="#FWp42FrtsAzxV429BOSm_pad-25" x="-750" y="2462.5"/><use xlink:href="#FWp42FrtsAzxV429BOSm_pad-25" x="-1250" y="2462.5"/><use xlink:href="#FWp42FrtsAzxV429BOSm_pad-25" x="-1750" y="2462.5"/><use xlink:href="#FWp42FrtsAzxV429BOSm_pad-25" x="-2250" y="2462.5"/><use xlink:href="#FWp42FrtsAzxV429BOSm_pad-25" x="-2750" y="2462.5"/><use xlink:href="#FWp42FrtsAzxV429BOSm_pad-25" x="-3250" y="2462.5"/><use xlink:href="#FWp42FrtsAzxV429BOSm_pad-25" x="-3750" y="2462.5"/><use xlink:href="#FWp42FrtsAzxV429BOSm_pad-26" x="-5662.5" y="550"/><use xlink:href="#FWp42FrtsAzxV429BOSm_pad-26" x="-5662.5" y="50"/><use xlink:href="#FWp42FrtsAzxV429BOSm_pad-26" x="-5662.5" y="-450"/><use xlink:href="#FWp42FrtsAzxV429BOSm_pad-26" x="-5662.5" y="-950"/><use xlink:href="#FWp42FrtsAzxV429BOSm_pad-26" x="-5662.5" y="-1450"/><use xlink:href="#FWp42FrtsAzxV429BOSm_pad-26" x="-5662.5" y="-1950"/><use xlink:href="#FWp42FrtsAzxV429BOSm_pad-26" x="-5662.5" y="-2450"/><use xlink:href="#FWp42FrtsAzxV429BOSm_pad-26" x="-5662.5" y="-2950"/><use xlink:href="#FWp42FrtsAzxV429BOSm_pad-26" x="-5662.5" y="-3450"/><use xlink:href="#FWp42FrtsAzxV429BOSm_pad-26" x="-5662.5" y="-3950"/><use xlink:href="#FWp42FrtsAzxV429BOSm_pad-26" x="-5662.5" y="-4450"/><use xlink:href="#FWp42FrtsAzxV429BOSm_pad-26" x="-5662.5" y="-4950"/><use xlink:href="#FWp42FrtsAzxV429BOSm_pad-26" x="-5662.5" y="-5450"/><use xlink:href="#FWp42FrtsAzxV429BOSm_pad-26" x="-5662.5" y="-5950"/><use xlink:href="#FWp42FrtsAzxV429BOSm_pad-26" x="-5662.5" y="-6450"/><use xlink:href="#FWp42FrtsAzxV429BOSm_pad-26" x="-5662.5" y="-6950"/><use xlink:href="#FWp42FrtsAzxV429BOSm_pad-25" x="-3750" y="-8862.5"/><use xlink:href="#FWp42FrtsAzxV429BOSm_pad-25" x="-3250" y="-8862.5"/><use xlink:href="#FWp42FrtsAzxV429BOSm_pad-25" x="-2750" y="-8862.5"/><use xlink:href="#FWp42FrtsAzxV429BOSm_pad-25" x="-2250" y="-8862.5"/><use xlink:href="#FWp42FrtsAzxV429BOSm_pad-25" x="-1750" y="-8862.5"/><use xlink:href="#FWp42FrtsAzxV429BOSm_pad-25" x="-1250" y="-8862.5"/><use xlink:href="#FWp42FrtsAzxV429BOSm_pad-25" x="-750" y="-8862.5"/><use xlink:href="#FWp42FrtsAzxV429BOSm_pad-25" x="-250" y="-8862.5"/><use xlink:href="#FWp42FrtsAzxV429BOSm_pad-25" x="250" y="-8862.5"/><use xlink:href="#FWp42FrtsAzxV429BOSm_pad-25" x="750" y="-8862.5"/><use xlink:href="#FWp42FrtsAzxV429BOSm_pad-25" x="1250" y="-8862.5"/><use xlink:href="#FWp42FrtsAzxV429BOSm_pad-25" x="1750" y="-8862.5"/><use xlink:href="#FWp42FrtsAzxV429BOSm_pad-25" x="2250" y="-8862.5"/><use xlink:href="#FWp42FrtsAzxV429BOSm_pad-25" x="2750" y="-8862.5"/><use xlink:href="#FWp42FrtsAzxV429BOSm_pad-25" x="3250" y="-8862.5"/><use xlink:href="#FWp42FrtsAzxV429BOSm_pad-25" x="3750" y="-8862.5"/><use xlink:href="#FWp42FrtsAzxV429BOSm_pad-26" x="5662.5" y="-6950"/><use xlink:href="#FWp42FrtsAzxV429BOSm_pad-26" x="5662.5" y="-6450"/><use xlink:href="#FWp42FrtsAzxV429BOSm_pad-26" x="5662.5" y="-5950"/><use xlink:href="#FWp42FrtsAzxV429BOSm_pad-26" x="5662.5" y="-5450"/><use xlink:href="#FWp42FrtsAzxV429BOSm_pad-26" x="5662.5" y="-4950"/><use xlink:href="#FWp42FrtsAzxV429BOSm_pad-26" x="5662.5" y="-4450"/><use xlink:href="#FWp42FrtsAzxV429BOSm_pad-26" x="5662.5" y="-3950"/><use xlink:href="#FWp42FrtsAzxV429BOSm_pad-26" x="5662.5" y="-3450"/><use xlink:href="#FWp42FrtsAzxV429BOSm_pad-26" x="5662.5" y="-2950"/><use xlink:href="#FWp42FrtsAzxV429BOSm_pad-26" x="5662.5" y="-2450"/><use xlink:href="#FWp42FrtsAzxV429BOSm_pad-26" x="5662.5" y="-1950"/><use xlink:href="#FWp42FrtsAzxV429BOSm_pad-26" x="5662.5" y="-1450"/><use xlink:href="#FWp42FrtsAzxV429BOSm_pad-26" x="5662.5" y="-950"/><use xlink:href="#FWp42FrtsAzxV429BOSm_pad-26" x="5662.5" y="-450"/><use xlink:href="#FWp42FrtsAzxV429BOSm_pad-26" x="5662.5" y="50"/><use xlink:href="#FWp42FrtsAzxV429BOSm_pad-26" x="5662.5" y="550"/><use xlink:href="#FWp42FrtsAzxV429BOSm_pad-20" x="-3000" y="-10990"/><use xlink:href="#FWp42FrtsAzxV429BOSm_pad-20" x="-3000" y="-12010"/><use xlink:href="#FWp42FrtsAzxV429BOSm_pad-19" x="-10500" y="8000"/><use xlink:href="#FWp42FrtsAzxV429BOSm_pad-11" x="1910" y="-17000"/><use xlink:href="#FWp42FrtsAzxV429BOSm_pad-24" x="-7237.5" y="-10400"/><use xlink:href="#FWp42FrtsAzxV429BOSm_pad-20" x="1000" y="-10990"/><use xlink:href="#FWp42FrtsAzxV429BOSm_pad-20" x="1000" y="-12010"/><use xlink:href="#FWp42FrtsAzxV429BOSm_pad-27" x="-6810" y="2600"/><use xlink:href="#FWp42FrtsAzxV429BOSm_pad-27" x="-5790" y="2600"/><use xlink:href="#FWp42FrtsAzxV429BOSm_pad-11" x="-1900" y="-16950"/><use xlink:href="#FWp42FrtsAzxV429BOSm_pad-20" x="-4000" y="-10990"/><use xlink:href="#FWp42FrtsAzxV429BOSm_pad-20" x="-4000" y="-12010"/><use xlink:href="#FWp42FrtsAzxV429BOSm_pad-20" x="0" y="-10990"/><use xlink:href="#FWp42FrtsAzxV429BOSm_pad-20" x="0" y="-12010"/><use xlink:href="#FWp42FrtsAzxV429BOSm_pad-19" x="10500" y="8000"/><use xlink:href="#FWp42FrtsAzxV429BOSm_pad-13" x="-6500" y="5890"/><use xlink:href="#FWp42FrtsAzxV429BOSm_pad-13" x="-6500" y="6910"/><use xlink:href="#FWp42FrtsAzxV429BOSm_pad-16" x="-10500" y="1840"/><use xlink:href="#FWp42FrtsAzxV429BOSm_pad-28" x="0" y="0"/><use xlink:href="#FWp42FrtsAzxV429BOSm_pad-22" x="-10500" y="12000"/><use xlink:href="#FWp42FrtsAzxV429BOSm_pad-11" x="6990" y="-17000"/><use xlink:href="#FWp42FrtsAzxV429BOSm_pad-24" x="5300" y="-9200"/><use xlink:href="#FWp42FrtsAzxV429BOSm_pad-12" x="-9700" y="12000"/><use xlink:href="#FWp42FrtsAzxV429BOSm_pad-12" x="-9700" y="10730"/><use xlink:href="#FWp42FrtsAzxV429BOSm_pad-29" x="-7400" y="-3975"/><use xlink:href="#FWp42FrtsAzxV429BOSm_pad-29" x="-7400" y="-2425"/><use xlink:href="#FWp42FrtsAzxV429BOSm_pad-13" x="6500" y="5890"/><use xlink:href="#FWp42FrtsAzxV429BOSm_pad-13" x="6500" y="6910"/><use xlink:href="#FWp42FrtsAzxV429BOSm_pad-21" x="-7200" y="-5970"/><use xlink:href="#FWp42FrtsAzxV429BOSm_pad-21" x="-7200" y="-6930"/><use xlink:href="#FWp42FrtsAzxV429BOSm_pad-13" x="-5500" y="5890"/><use xlink:href="#FWp42FrtsAzxV429BOSm_pad-13" x="-5500" y="6910"/><use xlink:href="#FWp42FrtsAzxV429BOSm_pad-13" x="8300" y="-960"/><use xlink:href="#FWp42FrtsAzxV429BOSm_pad-13" x="8300" y="60"/><use xlink:href="#FWp42FrtsAzxV429BOSm_pad-13" x="-500" y="5890"/><use xlink:href="#FWp42FrtsAzxV429BOSm_pad-13" x="-500" y="6910"/><use xlink:href="#FWp42FrtsAzxV429BOSm_pad-13" x="500" y="5890"/><use xlink:href="#FWp42FrtsAzxV429BOSm_pad-13" x="500" y="6910"/><use xlink:href="#FWp42FrtsAzxV429BOSm_pad-13" x="2000" y="-12010"/><use xlink:href="#FWp42FrtsAzxV429BOSm_pad-13" x="2000" y="-10990"/><use xlink:href="#FWp42FrtsAzxV429BOSm_pad-10" x="-9700" y="570"/><use xlink:href="#FWp42FrtsAzxV429BOSm_pad-10" x="-9700" y="1840"/><use xlink:href="#FWp42FrtsAzxV429BOSm_pad-10" x="-9700" y="3110"/><use xlink:href="#FWp42FrtsAzxV429BOSm_pad-10" x="-9700" y="4380"/><use xlink:href="#FWp42FrtsAzxV429BOSm_pad-16" x="10500" y="4380"/><use xlink:href="#FWp42FrtsAzxV429BOSm_pad-10" x="9700" y="12000"/><use xlink:href="#FWp42FrtsAzxV429BOSm_pad-10" x="9700" y="10730"/></g></svg>