<svg version="1.1" xmlns="http://www.w3.org/2000/svg" xmlns:xlink="http://www.w3.org/1999/xlink" stroke-linecap="round" stroke-linejoin="round" stroke-width="0" fill-rule="evenodd" width="23mm" height="32.4mm" viewBox="-11500 -18000 23000 32400" id="lMuN9fQGJZcTXmSfaM8J"><defs><rect x="-500" y="-1000" width="1000" height="2000" id="lMuN9fQGJZcTXmSfaM8J_pad-10"/><circle cx="0" cy="0" r="500" id="lMuN9fQGJZcTXmSfaM8J_pad-11"/><rect x="-500" y="-500" width="1000" height="1000" id="lMuN9fQGJZcTXmSfaM8J_pad-12"/><rect x="-800" y="-500" width="1600" height="1000" id="lMuN9fQGJZcTXmSfaM8J_pad-13"/><circle cx="0" cy="0" r="1000" id="lMuN9fQGJZcTXmSfaM8J_pad-14"/><rect x="-900" y="-500" width="1800" height="1000" id="lMuN9fQGJZcTXmSfaM8J_pad-15"/><circle cx="0" cy="0" r="550" id="lMuN9fQGJZcTXmSfaM8J_pad-16"/><circle cx="0" cy="0" r="800" id="lMuN9fQGJZcTXmSfaM8J_pad-17"/><g id="lMuN9fQGJZcTXmSfaM8J_pad-18"><polygon points="-185,135 -185,-135 185,-135 185,135"/><circle cx="-185" cy="135" r="135"/><circle cx="-185" cy="-135" r="135"/><circle cx="185" cy="-135" r="135"/><circle cx="185" cy="135" r="135"/><polygon points="-50,135 -50,-135 -320,-135 -320,135"/><polygon points="-185,-270 185,-270 185,0 -185,0"/><polygon points="320,-135 320,135 50,135 50,-135"/><polygon points="185,0 -185,0 -185,270 185,270"/></g><g id="lMuN9fQGJZcTXmSfaM8J_pad-19"><polygon points="170,-140 170,140 -170,140 -170,-140"/><circle cx="170" cy="-140" r="140"/><circle cx="170" cy="140" r="140"/><circle cx="-170" cy="140" r="140"/><circle cx="-170" cy="-140" r="140"/><polygon points="310,-140 310,140 30,140 30,-140"/><polygon points="170,0 -170,0 -170,280 170,280"/><polygon points="-30,140 -30,-140 -310,-140 -310,140"/><polygon points="-170,-280 170,-280 170,0 -170,0"/></g><g id="lMuN9fQGJZcTXmSfaM8J_pad-20"><polygon points="-140,-170 140,-170 140,170 -140,170"/><circle cx="-140" cy="-170" r="140"/><circle cx="140" cy="-170" r="140"/><circle cx="140" cy="170" r="140"/><circle cx="-140" cy="170" r="140"/><polygon points="-140,-310 140,-310 140,-30 -140,-30"/><polygon points="280,-170 280,170 0,170 0,-170"/><polygon points="140,30 -140,30 -140,310 140,310"/><polygon points="0,170 0,-170 -280,-170 -280,170"/></g><g id="lMuN9fQGJZcTXmSfaM8J_pad-21"><polygon points="-250,225 -250,-225 250,-225 250,225"/><circle cx="-250" cy="225" r="225"/><circle cx="-250" cy="-225" r="225"/><circle cx="250" cy="-225" r="225"/><circle cx="250" cy="225" r="225"/><polygon points="-25,225 -25,-225 -475,-225 -475,225"/><polygon points="-250,-450 250,-450 250,0 -250,0"/><polygon points="475,-225 475,225 25,225 25,-225"/><polygon points="250,0 -250,0 -250,450 250,450"/></g><g id="lMuN9fQGJZcTXmSfaM8J_pad-22"><polygon points="185,-135 185,135 -185,135 -185,-135"/><circle cx="185" cy="-135" r="135"/><circle cx="185" cy="135" r="135"/><circle cx="-185" cy="135" r="135"/><circle cx="-185" cy="-135" r="135"/><polygon points="320,-135 320,135 50,135 50,-135"/><polygon points="185,0 -185,0 -185,270 185,270"/><polygon points="-50,135 -50,-135 -320,-135 -320,135"/><polygon points="-185,-270 185,-270 185,0 -185,0"/></g><g id="lMuN9fQGJZcTXmSfaM8J_pad-23"><polygon points="-100,285 -100,-285 100,-285 100,285"/><circle cx="-100" cy="285" r="50"/><circle cx="-100" cy="-285" r="50"/><circle cx="100" cy="-285" r="50"/><circle cx="100" cy="285" r="50"/><polygon points="-50,285 -50,-285 -150,-285 -150,285"/><polygon points="-100,-335 100,-335 100,-235 -100,-235"/><polygon points="150,-285 150,285 50,285 50,-285"/><polygon points="100,235 -100,235 -100,335 100,335"/></g><g id="lMuN9fQGJZcTXmSfaM8J_pad-24"><polygon points="135,185 -135,185 -135,-185 135,-185"/><circle cx="135" cy="185" r="135"/><circle cx="-135" cy="185" r="135"/><circle cx="-135" cy="-185" r="135"/><circle cx="135" cy="-185" r="135"/><polygon points="135,50 -135,50 -135,320 135,320"/><polygon points="0,185 0,-185 -270,-185 -270,185"/><polygon points="-135,-320 135,-320 135,-50 -135,-50"/><polygon points="270,-185 270,185 0,185 0,-185"/></g><g id="lMuN9fQGJZcTXmSfaM8J_pad-25"><polygon points="-170,140 -170,-140 170,-140 170,140"/><circle cx="-170" cy="140" r="140"/><circle cx="-170" cy="-140" r="140"/><circle cx="170" cy="-140" r="140"/><circle cx="170" cy="140" r="140"/><polygon points="-30,140 -30,-140 -310,-140 -310,140"/><polygon points="-170,-280 170,-280 170,0 -170,0"/><polygon points="310,-140 310,140 30,140 30,-140"/><polygon points="170,0 -170,0 -170,280 170,280"/></g><g id="lMuN9fQGJZcTXmSfaM8J_pad-26"><polygon points="140,170 -140,170 -140,-170 140,-170"/><circle cx="140" cy="170" r="140"/><circle cx="-140" cy="170" r="140"/><circle cx="-140" cy="-170" r="140"/><circle cx="140" cy="-170" r="140"/><polygon points="140,30 -140,30 -140,310 140,310"/><polygon points="0,170 0,-170 -280,-170 -280,170"/><polygon points="-140,-310 140,-310 140,-30 -140,-30"/><polygon points="280,-170 280,170 0,170 0,-170"/></g><g id="lMuN9fQGJZcTXmSfaM8J_pad-27"><polygon points="-225,-250 225,-250 225,250 -225,250"/><circle cx="-225" cy="-250" r="225"/><circle cx="225" cy="-250" r="225"/><circle cx="225" cy="250" r="225"/><circle cx="-225" cy="250" r="225"/><polygon points="-225,-475 225,-475 225,-25 -225,-25"/><polygon points="450,-250 450,250 0,250 0,-250"/><polygon points="225,25 -225,25 -225,475 225,475"/><polygon points="0,250 0,-250 -450,-250 -450,250"/></g><g id="lMuN9fQGJZcTXmSfaM8J_pad-28"><polygon points="-256.25,218.75 -256.25,-218.75 256.25,-218.75 256.25,218.75"/><circle cx="-256.25" cy="218.75" r="218.75"/><circle cx="-256.25" cy="-218.75" r="218.75"/><circle cx="256.25" cy="-218.75" r="218.75"/><circle cx="256.25" cy="218.75" r="218.75"/><polygon points="-37.5,218.75 -37.5,-218.75 -475,-218.75 -475,218.75"/><polygon points="-256.25,-437.5 256.25,-437.5 256.25,0 -256.25,0"/><polygon points="475,-218.75 475,218.75 37.5,218.75 37.5,-218.75"/><polygon points="256.25,0 -256.25,0 -256.25,437.5 256.25,437.5"/></g><g id="lMuN9fQGJZcTXmSfaM8J_pad-29"><polygon points="256.25,-218.75 256.25,218.75 -256.25,218.75 -256.25,-218.75"/><circle cx="256.25" cy="-218.75" r="218.75"/><circle cx="256.25" cy="218.75" r="218.75"/><circle cx="-256.25" cy="218.75" r="218.75"/><circle cx="-256.25" cy="-218.75" r="218.75"/><polygon points="475,-218.75 475,218.75 37.5,218.75 37.5,-218.75"/><polygon points="256.25,0 -256.25,0 -256.25,437.5 256.25,437.5"/><polygon points="-37.5,218.75 -37.5,-218.75 -475,-218.75 -475,218.75"/><polygon points="-256.25,-437.5 256.25,-437.5 256.25,0 -256.25,0"/></g><g id="lMuN9fQGJZcTXmSfaM8J_pad-30"><polygon points="-650,412.5 -650,-412.5 650,-412.5 650,412.5"/><circle cx="-650" cy="412.5" r="250"/><circle cx="-650" cy="-412.5" r="250"/><circle cx="650" cy="-412.5" r="250"/><circle cx="650" cy="412.5" r="250"/><polygon points="-400,412.5 -400,-412.5 -900,-412.5 -900,412.5"/><polygon points="-650,-662.5 650,-662.5 650,-162.5 -650,-162.5"/><polygon points="900,-412.5 900,412.5 400,412.5 400,-412.5"/><polygon points="650,162.5 -650,162.5 -650,662.5 650,662.5"/></g><g id="lMuN9fQGJZcTXmSfaM8J_pad-31"><polygon points="225,250 -225,250 -225,-250 225,-250"/><circle cx="225" cy="250" r="225"/><circle cx="-225" cy="250" r="225"/><circle cx="-225" cy="-250" r="225"/><circle cx="225" cy="-250" r="225"/><polygon points="225,25 -225,25 -225,475 225,475"/><polygon points="0,250 0,-250 -450,-250 -450,250"/><polygon points="-225,-475 225,-475 225,-25 -225,-25"/><polygon points="450,-250 450,250 0,250 0,-250"/></g></defs><g transform="translate(0,-3600) scale(1,-1)" fill="currentColor" stroke="currentColor"><use xlink:href="#lMuN9fQGJZcTXmSfaM8J_pad-10" x="-3170" y="-17000"/><use xlink:href="#lMuN9fQGJZcTXmSfaM8J_pad-11" x="-8250" y="-16000"/><use xlink:href="#lMuN9fQGJZcTXmSfaM8J_pad-12" x="-6980" y="-16000"/><use xlink:href="#lMuN9fQGJZcTXmSfaM8J_pad-11" x="-5710" y="-16000"/><use xlink:href="#lMuN9fQGJZcTXmSfaM8J_pad-11" x="-4440" y="-16000"/><use xlink:href="#lMuN9fQGJZcTXmSfaM8J_pad-11" x="-3170" y="-16000"/><use xlink:href="#lMuN9fQGJZcTXmSfaM8J_pad-11" x="-1900" y="-16000"/><use xlink:href="#lMuN9fQGJZcTXmSfaM8J_pad-11" x="-630" y="-16000"/><use xlink:href="#lMuN9fQGJZcTXmSfaM8J_pad-11" x="640" y="-16000"/><use xlink:href="#lMuN9fQGJZcTXmSfaM8J_pad-11" x="1910" y="-16000"/><use xlink:href="#lMuN9fQGJZcTXmSfaM8J_pad-11" x="3180" y="-16000"/><use xlink:href="#lMuN9fQGJZcTXmSfaM8J_pad-11" x="4450" y="-16000"/><use xlink:href="#lMuN9fQGJZcTXmSfaM8J_pad-11" x="5720" y="-16000"/><use xlink:href="#lMuN9fQGJZcTXmSfaM8J_pad-12" x="6990" y="-16000"/><use xlink:href="#lMuN9fQGJZcTXmSfaM8J_pad-11" x="8260" y="-16000"/><use xlink:href="#lMuN9fQGJZcTXmSfaM8J_pad-10" x="5720" y="-17000"/><use xlink:href="#lMuN9fQGJZcTXmSfaM8J_pad-13" x="10500" y="10730"/><use xlink:href="#lMuN9fQGJZcTXmSfaM8J_pad-13" x="10500" y="12000"/><use xlink:href="#lMuN9fQGJZcTXmSfaM8J_pad-10" x="-6980" y="-17000"/><use xlink:href="#lMuN9fQGJZcTXmSfaM8J_pad-10" x="-4440" y="-17000"/><use xlink:href="#lMuN9fQGJZcTXmSfaM8J_pad-10" x="8260" y="-17000"/><use xlink:href="#lMuN9fQGJZcTXmSfaM8J_pad-14" x="10500" y="-8500"/><use xlink:href="#lMuN9fQGJZcTXmSfaM8J_pad-10" x="3180" y="-17000"/><use xlink:href="#lMuN9fQGJZcTXmSfaM8J_pad-10" x="-630" y="-16950"/><use xlink:href="#lMuN9fQGJZcTXmSfaM8J_pad-10" x="4450" y="-17000"/><use xlink:href="#lMuN9fQGJZcTXmSfaM8J_pad-10" x="-5710" y="-17000"/><use xlink:href="#lMuN9fQGJZcTXmSfaM8J_pad-13" x="-10500" y="3110"/><use xlink:href="#lMuN9fQGJZcTXmSfaM8J_pad-13" x="-10500" y="4380"/><use xlink:href="#lMuN9fQGJZcTXmSfaM8J_pad-10" x="640" y="-17000"/><use xlink:href="#lMuN9fQGJZcTXmSfaM8J_pad-10" x="-8250" y="-17000"/><use xlink:href="#lMuN9fQGJZcTXmSfaM8J_pad-15" x="-10500" y="10730"/><use xlink:href="#lMuN9fQGJZcTXmSfaM8J_pad-14" x="-10500" y="-8500"/><use xlink:href="#lMuN9fQGJZcTXmSfaM8J_pad-16" x="7250" y="-9138.986"/><use xlink:href="#lMuN9fQGJZcTXmSfaM8J_pad-11" x="0" y="13900"/><use xlink:href="#lMuN9fQGJZcTXmSfaM8J_pad-11" x="9700" y="4380"/><use xlink:href="#lMuN9fQGJZcTXmSfaM8J_pad-13" x="-10500" y="570"/><use xlink:href="#lMuN9fQGJZcTXmSfaM8J_pad-14" x="-10500" y="8000"/><use xlink:href="#lMuN9fQGJZcTXmSfaM8J_pad-10" x="1910" y="-17000"/><use xlink:href="#lMuN9fQGJZcTXmSfaM8J_pad-10" x="-1900" y="-16950"/><use xlink:href="#lMuN9fQGJZcTXmSfaM8J_pad-14" x="10500" y="8000"/><use xlink:href="#lMuN9fQGJZcTXmSfaM8J_pad-13" x="-10500" y="1840"/><use xlink:href="#lMuN9fQGJZcTXmSfaM8J_pad-17" x="0" y="0"/><use xlink:href="#lMuN9fQGJZcTXmSfaM8J_pad-15" x="-10500" y="12000"/><use xlink:href="#lMuN9fQGJZcTXmSfaM8J_pad-10" x="6990" y="-17000"/><use xlink:href="#lMuN9fQGJZcTXmSfaM8J_pad-16" x="5300" y="-9200"/><use xlink:href="#lMuN9fQGJZcTXmSfaM8J_pad-12" x="-9700" y="12000"/><use xlink:href="#lMuN9fQGJZcTXmSfaM8J_pad-12" x="-9700" y="10730"/><use xlink:href="#lMuN9fQGJZcTXmSfaM8J_pad-18" x="7600" y="12000"/><use xlink:href="#lMuN9fQGJZcTXmSfaM8J_pad-18" x="7600" y="10980"/><use xlink:href="#lMuN9fQGJZcTXmSfaM8J_pad-19" x="-7300" y="5420"/><use xlink:href="#lMuN9fQGJZcTXmSfaM8J_pad-19" x="-7300" y="6380"/><use xlink:href="#lMuN9fQGJZcTXmSfaM8J_pad-20" x="7620" y="-4700"/><use xlink:href="#lMuN9fQGJZcTXmSfaM8J_pad-20" x="8580" y="-4700"/><use xlink:href="#lMuN9fQGJZcTXmSfaM8J_pad-19" x="7100" y="3020"/><use xlink:href="#lMuN9fQGJZcTXmSfaM8J_pad-19" x="7100" y="3980"/><use xlink:href="#lMuN9fQGJZcTXmSfaM8J_pad-20" x="5220" y="-7100"/><use xlink:href="#lMuN9fQGJZcTXmSfaM8J_pad-20" x="6180" y="-7100"/><use xlink:href="#lMuN9fQGJZcTXmSfaM8J_pad-20" x="7620" y="-3700"/><use xlink:href="#lMuN9fQGJZcTXmSfaM8J_pad-20" x="8580" y="-3700"/><use xlink:href="#lMuN9fQGJZcTXmSfaM8J_pad-21" x="6475" y="-10425"/><use xlink:href="#lMuN9fQGJZcTXmSfaM8J_pad-21" x="6475" y="-11975"/><use xlink:href="#lMuN9fQGJZcTXmSfaM8J_pad-22" x="500" y="-11710"/><use xlink:href="#lMuN9fQGJZcTXmSfaM8J_pad-22" x="500" y="-10690"/><use xlink:href="#lMuN9fQGJZcTXmSfaM8J_pad-19" x="5900" y="5420"/><use xlink:href="#lMuN9fQGJZcTXmSfaM8J_pad-19" x="5900" y="6380"/><use xlink:href="#lMuN9fQGJZcTXmSfaM8J_pad-23" x="6300" y="9540"/><use xlink:href="#lMuN9fQGJZcTXmSfaM8J_pad-23" x="6800" y="9540"/><use xlink:href="#lMuN9fQGJZcTXmSfaM8J_pad-23" x="7300" y="9540"/><use xlink:href="#lMuN9fQGJZcTXmSfaM8J_pad-23" x="7300" y="8060"/><use xlink:href="#lMuN9fQGJZcTXmSfaM8J_pad-23" x="6800" y="8060"/><use xlink:href="#lMuN9fQGJZcTXmSfaM8J_pad-23" x="6300" y="8060"/><use xlink:href="#lMuN9fQGJZcTXmSfaM8J_pad-20" x="-6380" y="-800"/><use xlink:href="#lMuN9fQGJZcTXmSfaM8J_pad-20" x="-5420" y="-800"/><use xlink:href="#lMuN9fQGJZcTXmSfaM8J_pad-23" x="-500" y="9540"/><use xlink:href="#lMuN9fQGJZcTXmSfaM8J_pad-23" x="0" y="9540"/><use xlink:href="#lMuN9fQGJZcTXmSfaM8J_pad-23" x="500" y="9540"/><use xlink:href="#lMuN9fQGJZcTXmSfaM8J_pad-23" x="500" y="8060"/><use xlink:href="#lMuN9fQGJZcTXmSfaM8J_pad-23" x="0" y="8060"/><use xlink:href="#lMuN9fQGJZcTXmSfaM8J_pad-23" x="-500" y="8060"/><use xlink:href="#lMuN9fQGJZcTXmSfaM8J_pad-24" x="6210" y="200"/><use xlink:href="#lMuN9fQGJZcTXmSfaM8J_pad-24" x="5190" y="200"/><use xlink:href="#lMuN9fQGJZcTXmSfaM8J_pad-24" x="-3490" y="-10400"/><use xlink:href="#lMuN9fQGJZcTXmSfaM8J_pad-24" x="-4510" y="-10400"/><use xlink:href="#lMuN9fQGJZcTXmSfaM8J_pad-20" x="-6380" y="-2800"/><use xlink:href="#lMuN9fQGJZcTXmSfaM8J_pad-20" x="-5420" y="-2800"/><use xlink:href="#lMuN9fQGJZcTXmSfaM8J_pad-11" x="-9700" y="570"/><use xlink:href="#lMuN9fQGJZcTXmSfaM8J_pad-11" x="-9700" y="1840"/><use xlink:href="#lMuN9fQGJZcTXmSfaM8J_pad-11" x="-9700" y="3110"/><use xlink:href="#lMuN9fQGJZcTXmSfaM8J_pad-11" x="-9700" y="4380"/><use xlink:href="#lMuN9fQGJZcTXmSfaM8J_pad-19" x="2753.333" y="5420"/><use xlink:href="#lMuN9fQGJZcTXmSfaM8J_pad-19" x="2753.333" y="6380"/><use xlink:href="#lMuN9fQGJZcTXmSfaM8J_pad-25" x="-7300" y="2480"/><use xlink:href="#lMuN9fQGJZcTXmSfaM8J_pad-25" x="-7300" y="1520"/><use xlink:href="#lMuN9fQGJZcTXmSfaM8J_pad-26" x="-7620" y="-800"/><use xlink:href="#lMuN9fQGJZcTXmSfaM8J_pad-26" x="-8580" y="-800"/><use xlink:href="#lMuN9fQGJZcTXmSfaM8J_pad-27" x="-8025" y="-13500"/><use xlink:href="#lMuN9fQGJZcTXmSfaM8J_pad-27" x="-6475" y="-13500"/><use xlink:href="#lMuN9fQGJZcTXmSfaM8J_pad-19" x="-393.333" y="5420"/><use xlink:href="#lMuN9fQGJZcTXmSfaM8J_pad-19" x="-393.333" y="6380"/><use xlink:href="#lMuN9fQGJZcTXmSfaM8J_pad-25" x="3540" y="3980"/><use xlink:href="#lMuN9fQGJZcTXmSfaM8J_pad-25" x="3540" y="3020"/><use xlink:href="#lMuN9fQGJZcTXmSfaM8J_pad-28" x="3375" y="-10412.5"/><use xlink:href="#lMuN9fQGJZcTXmSfaM8J_pad-28" x="3375" y="-11987.5"/><use xlink:href="#lMuN9fQGJZcTXmSfaM8J_pad-25" x="5113.333" y="3980"/><use xlink:href="#lMuN9fQGJZcTXmSfaM8J_pad-25" x="5113.333" y="3020"/><use xlink:href="#lMuN9fQGJZcTXmSfaM8J_pad-28" x="8025" y="-10412.5"/><use xlink:href="#lMuN9fQGJZcTXmSfaM8J_pad-28" x="8025" y="-11987.5"/><use xlink:href="#lMuN9fQGJZcTXmSfaM8J_pad-19" x="4326.667" y="5420"/><use xlink:href="#lMuN9fQGJZcTXmSfaM8J_pad-19" x="4326.667" y="6380"/><use xlink:href="#lMuN9fQGJZcTXmSfaM8J_pad-13" x="10500" y="4380"/><use xlink:href="#lMuN9fQGJZcTXmSfaM8J_pad-29" x="-8025" y="-11987.5"/><use xlink:href="#lMuN9fQGJZcTXmSfaM8J_pad-29" x="-8025" y="-10412.5"/><use xlink:href="#lMuN9fQGJZcTXmSfaM8J_pad-26" x="6180" y="-2700"/><use xlink:href="#lMuN9fQGJZcTXmSfaM8J_pad-26" x="5220" y="-2700"/><use xlink:href="#lMuN9fQGJZcTXmSfaM8J_pad-19" x="-3540" y="5420"/><use xlink:href="#lMuN9fQGJZcTXmSfaM8J_pad-19" x="-3540" y="6380"/><use xlink:href="#lMuN9fQGJZcTXmSfaM8J_pad-11" x="9700" y="12000"/><use xlink:href="#lMuN9fQGJZcTXmSfaM8J_pad-11" x="9700" y="10730"/><use xlink:href="#lMuN9fQGJZcTXmSfaM8J_pad-26" x="6180" y="-1700"/><use xlink:href="#lMuN9fQGJZcTXmSfaM8J_pad-26" x="5220" y="-1700"/><use xlink:href="#lMuN9fQGJZcTXmSfaM8J_pad-20" x="5220" y="-6100"/><use xlink:href="#lMuN9fQGJZcTXmSfaM8J_pad-20" x="6180" y="-6100"/><use xlink:href="#lMuN9fQGJZcTXmSfaM8J_pad-21" x="-6475" y="-10425"/><use xlink:href="#lMuN9fQGJZcTXmSfaM8J_pad-21" x="-6475" y="-11975"/><use xlink:href="#lMuN9fQGJZcTXmSfaM8J_pad-19" x="-5113.333" y="5420"/><use xlink:href="#lMuN9fQGJZcTXmSfaM8J_pad-19" x="-5113.333" y="6380"/><use xlink:href="#lMuN9fQGJZcTXmSfaM8J_pad-20" x="5220" y="-3700"/><use xlink:href="#lMuN9fQGJZcTXmSfaM8J_pad-20" x="6180" y="-3700"/><use xlink:href="#lMuN9fQGJZcTXmSfaM8J_pad-25" x="-2753.333" y="3980"/><use xlink:href="#lMuN9fQGJZcTXmSfaM8J_pad-25" x="-2753.333" y="3020"/><use xlink:href="#lMuN9fQGJZcTXmSfaM8J_pad-27" x="3375" y="-13500"/><use xlink:href="#lMuN9fQGJZcTXmSfaM8J_pad-27" x="4925" y="-13500"/><use xlink:href="#lMuN9fQGJZcTXmSfaM8J_pad-23" x="-7300" y="9540"/><use xlink:href="#lMuN9fQGJZcTXmSfaM8J_pad-23" x="-6800" y="9540"/><use xlink:href="#lMuN9fQGJZcTXmSfaM8J_pad-23" x="-6300" y="9540"/><use xlink:href="#lMuN9fQGJZcTXmSfaM8J_pad-23" x="-6300" y="8060"/><use xlink:href="#lMuN9fQGJZcTXmSfaM8J_pad-23" x="-6800" y="8060"/><use xlink:href="#lMuN9fQGJZcTXmSfaM8J_pad-23" x="-7300" y="8060"/><use xlink:href="#lMuN9fQGJZcTXmSfaM8J_pad-19" x="1180" y="5420"/><use xlink:href="#lMuN9fQGJZcTXmSfaM8J_pad-19" x="1180" y="6380"/><use xlink:href="#lMuN9fQGJZcTXmSfaM8J_pad-25" x="-4326.667" y="3980"/><use xlink:href="#lMuN9fQGJZcTXmSfaM8J_pad-25" x="-4326.667" y="3020"/><use xlink:href="#lMuN9fQGJZcTXmSfaM8J_pad-25" x="393.333" y="3980"/><use xlink:href="#lMuN9fQGJZcTXmSfaM8J_pad-25" x="393.333" y="3020"/><use xlink:href="#lMuN9fQGJZcTXmSfaM8J_pad-30" x="-7150" y="-4637.5"/><use xlink:href="#lMuN9fQGJZcTXmSfaM8J_pad-30" x="-7150" y="-7762.5"/><use xlink:href="#lMuN9fQGJZcTXmSfaM8J_pad-25" x="-1180" y="3980"/><use xlink:href="#lMuN9fQGJZcTXmSfaM8J_pad-25" x="-1180" y="3020"/><use xlink:href="#lMuN9fQGJZcTXmSfaM8J_pad-25" x="-5900" y="3980"/><use xlink:href="#lMuN9fQGJZcTXmSfaM8J_pad-25" x="-5900" y="3020"/><use xlink:href="#lMuN9fQGJZcTXmSfaM8J_pad-31" x="8025" y="-13500"/><use xlink:href="#lMuN9fQGJZcTXmSfaM8J_pad-31" x="6475" y="-13500"/><use xlink:href="#lMuN9fQGJZcTXmSfaM8J_pad-23" x="-3900" y="9540"/><use xlink:href="#lMuN9fQGJZcTXmSfaM8J_pad-23" x="-3400" y="9540"/><use xlink:href="#lMuN9fQGJZcTXmSfaM8J_pad-23" x="-2900" y="9540"/><use xlink:href="#lMuN9fQGJZcTXmSfaM8J_pad-23" x="-2900" y="8060"/><use xlink:href="#lMuN9fQGJZcTXmSfaM8J_pad-23" x="-3400" y="8060"/><use xlink:href="#lMuN9fQGJZcTXmSfaM8J_pad-23" x="-3900" y="8060"/><use xlink:href="#lMuN9fQGJZcTXmSfaM8J_pad-24" x="-3490" y="-7000"/><use xlink:href="#lMuN9fQGJZcTXmSfaM8J_pad-24" x="-4510" y="-7000"/><use xlink:href="#lMuN9fQGJZcTXmSfaM8J_pad-25" x="1966.666" y="3980"/><use xlink:href="#lMuN9fQGJZcTXmSfaM8J_pad-25" x="1966.666" y="3020"/><use xlink:href="#lMuN9fQGJZcTXmSfaM8J_pad-19" x="-1966.666" y="5420"/><use xlink:href="#lMuN9fQGJZcTXmSfaM8J_pad-19" x="-1966.666" y="6380"/><use xlink:href="#lMuN9fQGJZcTXmSfaM8J_pad-20" x="5220" y="-4700"/><use xlink:href="#lMuN9fQGJZcTXmSfaM8J_pad-20" x="6180" y="-4700"/><use xlink:href="#lMuN9fQGJZcTXmSfaM8J_pad-21" x="4925" y="-10425"/><use xlink:href="#lMuN9fQGJZcTXmSfaM8J_pad-21" x="4925" y="-11975"/><use xlink:href="#lMuN9fQGJZcTXmSfaM8J_pad-23" x="2900" y="9540"/><use xlink:href="#lMuN9fQGJZcTXmSfaM8J_pad-23" x="3400" y="9540"/><use xlink:href="#lMuN9fQGJZcTXmSfaM8J_pad-23" x="3900" y="9540"/><use xlink:href="#lMuN9fQGJZcTXmSfaM8J_pad-23" x="3900" y="8060"/><use xlink:href="#lMuN9fQGJZcTXmSfaM8J_pad-23" x="3400" y="8060"/><use xlink:href="#lMuN9fQGJZcTXmSfaM8J_pad-23" x="2900" y="8060"/><use xlink:href="#lMuN9fQGJZcTXmSfaM8J_pad-20" x="-6380" y="-1800"/><use xlink:href="#lMuN9fQGJZcTXmSfaM8J_pad-20" x="-5420" y="-1800"/><use xlink:href="#lMuN9fQGJZcTXmSfaM8J_pad-19" x="-3100" y="-4405"/><use xlink:href="#lMuN9fQGJZcTXmSfaM8J_pad-19" x="-3100" y="-3445"/><use xlink:href="#lMuN9fQGJZcTXmSfaM8J_pad-26" x="-7620" y="-1800"/><use xlink:href="#lMuN9fQGJZcTXmSfaM8J_pad-26" x="-8580" y="-1800"/></g></svg>